<?xml version="1.0" encoding="UTF-8" standalone="no"?>
<!-- Created with Inkscape (http://www.inkscape.org/) -->

<svg
   xmlns:dc="http://purl.org/dc/elements/1.1/"
   xmlns:cc="http://creativecommons.org/ns#"
   xmlns:rdf="http://www.w3.org/1999/02/22-rdf-syntax-ns#"
   xmlns:svg="http://www.w3.org/2000/svg"
   xmlns="http://www.w3.org/2000/svg"
   xmlns:sodipodi="http://sodipodi.sourceforge.net/DTD/sodipodi-0.dtd"
   xmlns:inkscape="http://www.inkscape.org/namespaces/inkscape"
   width="85.599998mm"
   height="30.98mm"
   viewBox="0 0 303.30708 109.77158"
   id="svg2"
   version="1.1"
   inkscape:version="0.91 r13725"
   sodipodi:docname="cgvr-vector.svg">
  <defs
     id="defs4" />
  <sodipodi:namedview
     id="base"
     pagecolor="#ffffff"
     bordercolor="#666666"
     borderopacity="1.0"
     inkscape:pageopacity="0.0"
     inkscape:pageshadow="2"
     inkscape:zoom="1.4"
     inkscape:cx="145.69578"
     inkscape:cy="22.600341"
     inkscape:document-units="px"
     inkscape:current-layer="layer1"
     showgrid="false"
     inkscape:window-width="1280"
     inkscape:window-height="961"
     inkscape:window-x="-8"
     inkscape:window-y="-8"
     inkscape:window-maximized="1"
     units="mm"
     height="52.98mm" />
  <metadata
     id="metadata7">
    <rdf:RDF>
      <cc:Work
         rdf:about="">
        <dc:format>image/svg+xml</dc:format>
        <dc:type
           rdf:resource="http://purl.org/dc/dcmitype/StillImage" />
        <dc:title></dc:title>
      </cc:Work>
    </rdf:RDF>
  </metadata>
  <g
     inkscape:label="Layer 1"
     inkscape:groupmode="layer"
     id="layer1"
     transform="translate(0,-942.5906)">
    <g
       style="font-style:normal;font-weight:normal;font-size:80px;line-height:125%;font-family:sans-serif;letter-spacing:0px;word-spacing:0px;fill:#000000;fill-opacity:1;stroke:none;stroke-width:1px;stroke-linecap:butt;stroke-linejoin:miter;stroke-opacity:1"
       id="text3336">
      <path
         d="m 52.132366,964.77928 q -3.28,1.84 -9.44,5.04 -3.28,-1.52 -9.92,-5.04 3.2,-1.84 9.44,-5.12 3.52,1.84 9.92,5.12 z m 24.72,49.04002 q -7.44,4.72 -22.24,14.16 l 0,-12.72 q -0.56,-0.48 -1.04,0 l 0,13.6 q -4.16,2.32 -11.52,6.88 0,-4 -0.32,-12.72 -0.24,-8.64 -0.24,-13.04 -4.88,-2.72 -10,-6.16 -0.32,-0.56 -0.56,-0.56 -0.16,0.08 -0.16,0.56 l 0,11.76 q 3.36,2.16 10.16,6.8 l 0,12.88 -10.56,-5.92 q 0,-4.32 -0.32,-13.04 -0.24,-8.8 -0.24,-13.12 -3.28,-2.16 -10,-6.64002 -0.32,-0.56 -0.48,-0.56 -0.16,0.08 -0.16,0.56 l 0,11.28002 q 3.52,2.32 10.08,6.8 l 0,13.84 q -3.6,-2.16 -10.56,-6.4 l 0,-14.48 q -5.36,-2.32 -10.6399998,-5.36 l 0,-11.52002 q 3.1999998,1.76 9.3599998,4.88 0.32,-0.48 0.32,-0.64 -4.8,-2.56 -9.6799998,-5.36 l 0.56,-13.36 q 2.5599998,1.6 9.7599998,5.76 0.32,-0.4 0.32,-0.64 -3.12,-2 -9.1999998,-5.44 3.3599998,-1.76 10.3999998,-5.6 3.36,2.24 10.08,5.84 0.4,-0.4 0.4,-0.56 -3.12,-1.44 -9.28,-5.52 3.12,-1.52 9.92,-5.04 3.28,1.76 9.92,4.96 0,1.12 0.56,1.6 -3.04,1.36 -9.76,4.8 1.76,0.96 5.04,2.8 3.28,1.84 4.96,2.8 0.88,-0.32 11.36,-5.6 -3.84,-1.84 -11.12,-5.36 2.16,-0.88 10.88,-6 3.76,1.52 10.88,5.04 -3.52,1.84 -10.16,5.44 -0.16,0.24 0.32,0.64 5.36,-2.24 11.04,-5.84 8,4 11.92,5.44 l 0,38.08002 z m -59.2,7.36 q -3.36,-1.92 -9.5999998,-5.36 l 0,-12.48 q 3.3599998,1.76 9.5999998,4.96 l 0,12.88 z m 58.16,-33.04002 0,-10.96 q -5.28,3.28 -9.52,5.36 l 0,11.52 q 3.28,-2 9.52,-5.92 z m 0,12.08002 0,-10.48002 q -3.36,2 -9.52,5.44 l 0,11.52002 q 3.28,-2 9.52,-6.48 z m -11.6,-18.08002 q -0.72,-0.32 -5.36,-3.04 -3.44,-2 -4.08,-2 l -1.52,0 q -2.24,1.28 -9.36,5.6 2.96,1.76 5.84,3.52 3.52,2.08 4.16,2.08 l 1.44,0 q 6.56,-3.76 8.88,-6.16 z m 0.96,12.8 0,-11.44 -10.56,5.84 0,12.00002 q 3.6,-2.00002 10.56,-6.40002 z m 10.64,18.40002 0,-11.44 q -3.44,2.08 -9.52,5.92 l 0,11.92 q 2.96,-1.92 9.52,-6.4 z m -10.64,-5.76 0,-11.52002 q -3.84,2.24 -10.56,6.40002 l 0,11.52 q 3.6,-2.24 10.56,-6.4 z m -11.6,-18.56002 q -6.4,-3.2 -11.36,-6.08 -5.76,3.6 -11.44,6.08 4.24,2.56 11.92,6.56 3.76,-2.4 10.88,-6.56 z m -0.08,13.20002 0,-12.00002 q -3.68,2.24 -10.96,6.4 l 0,12.00002 q 3.76,-2.24 10.96,-6.4 z m -12.48,-19.52002 q -6.4,-3.6 -10.96,-5.6 -3.68,1.92 -10.4,5.6 1.12,0.56 5.36,3.36 3.44,2.24 4.16,2.24 l 1.44,0 q 3.52,-2.08 10.4,-5.6 z m 0.4,25.92002 0,-12.48002 q -3.6,-2 -10.56,-5.92 l 0,12.48002 q 3.52,1.92 10.56,5.92 z m 12.08,6.16 0,-11.44 q -3.84,2.24 -10.96,6.4 l 0,11.92 q 6.72,-3.76 10.96,-6.88 z m -23.76,-12.96 0,-12.48002 q -3.52,-1.92 -10.48,-5.84 l 0,11.92 q 3.52,2 10.48,6.40002 z"
         style="font-style:normal;font-variant:normal;font-weight:normal;font-stretch:normal;font-family:'Kubic\'s Rube';-inkscape-font-specification:'Kubic\'s Rube'"
         id="path3365" />
      <path
         d="m 126.52987,964.77928 q -3.12,1.44 -9.92,5.04 -1.68,-0.72 -5.2,-2.48 -3.52,-1.84 -5.2,-2.56 3.2,-1.84 9.44,-5.12 3.76,1.84 10.88,5.12 z m 23.76,49.04002 q -10.32,6.96 -22.72,14.16 l 0,-12.88 q 4,-2.24 11.92,-6.88 0,3.68 0.48,11.6 0.48,-0.32 9.36,-6.72 l -0.4,-11.28 q -3.92,2.56 -10.88,6.24 -9.28,4.96 -10.96,5.92 l 0,-11.04 q 4.24,-2.48 12.4,-7.36002 -0.24,6.16002 0.48,11.12002 3.2,-2 9.36,-6.64 l -0.4,-10.40002 q -1.2,0.64 -5.04,3.28 -3.12,2.16 -3.76,2.16 -0.72,0 -0.88,-0.24 -0.16,-0.32 -0.24,-0.32 -1.92,1.44 -11.44,7.28002 l 0,-13.44002 q 4.24,-1.84 10.64,-5.92 -3.36,-1.68 -10.08,-5.36 l -1.28,0 q -0.72,0 -4.16,2.08 -2.96,1.76 -5.84,3.52 3.36,2 10.16,5.44 -5.76,-1.68 -11.36,-5.2 -3.12,1.92 -11.44,6.08 3.52,2.08 10.96,6.56 3.68,-1.92 11.28,-5.84 l 0,13.92002 q -3.6,2.16 -10.64,6.32 l 0.4,11.76 q 3.44,-2.16 10.24,-6.24 l 0,13.36 q -3.6,2.64 -10.48,6.4 0,-4.08 -0.56,-12.48 -0.48,-8.4 -0.48,-12.8 -4.8,-2.64 -10,-6.16 -0.24,-0.16 -0.72,0.32 0,3.76 -0.56,11.76 -0.48,8 -0.48,12.32 -4.240004,-2 -10.480004,-5.68 l 0,-14.32 q 5.52,3.84 10.640004,6.24 l 0,-11.28 q -3.360004,-2.16 -10.080004,-6.64002 -0.32,-0.56 -0.48,-0.56 -0.24,0 -0.24,0.56 l 0,11.12002 q -3.84,-2.24 -11.04,-6.4 l 0,-12.00002 q 9.68,6.8 10.64,6.8 0.64,0 0.88,-0.24 0.24,-0.24 0.4,-0.24 2.88,1.84 9.520004,6.32002 l 0.32,-12.32002 q -4.880004,-3.12 -10.320004,-6.16 -0.48,3.68 -0.48,11.6 -4.24,-2.08 -10.96,-6.88 l 0,-11.44 q 7.2,3.6 21.120004,11.6 l 1.28,0 q 0.56,0 3.84,-1.92 4.4,-2.56 6.72,-3.68 -3.28,-1.84 -10,-5.6 -6.560004,2.8 -10.080004,4.88 l -1.44,0 q -0.72,0 -4.48,-2.32 -5.76,-3.6 -6,-3.76 3.04,-1.52 9.84,-5.04 l 1.44,0 q 0.64,0 4.56,2.32 4.480004,2.8 6.080004,3.44 0.4,-0.16 0.4,-0.56 -6.080004,-3.6 -10.240004,-6 3.12,-1.52 9.920004,-5.04 5.2,2.16 10.48,6.08 -3.36,1.76 -9.76,5.28 1.76,0.96 5.04,2.8 3.28,1.84 4.96,2.8 0.88,-0.32 11.36,-5.6 -3.6,-1.68 -10.64,-5.36 2.8,-1.2 10.8,-5.52 l 1.52,0 q 0.72,0 8.72,3.84 6.64,3.2 13.36,6.48 l 0,38.00002 z m -35.44,21.92 q -3.6,-2.24 -10.56,-6.4 l 0,-13.36 q 3.6,2.16 10.56,6.32 l 0,13.44 z m -23.280004,-14 q -1.44,-0.96 -10.08,-5.92 l 0,-13.44 q 3.36,2 10.08,5.92 l 0,13.44 z m 57.280004,-45.36002 q -1.68,-0.72 -5.44,-2.48 -3.76,-1.84 -5.52,-2.56 -1.44,0.72 -4.72,2.56 -3.28,1.76 -4.72,2.48 1.12,0.48 6.32,3.12 3.92,2 4.64,2 0.72,0 4.24,-2.08 4.48,-2.72 5.2,-3.04 z m 0.4,11.76 0,-10.96 q -5.28,3.28 -9.52,5.36 l 0,11.52 q 3.28,-2 9.52,-5.92 z m -34.4,20.48002 0,-12.48002 q -3.6,-2 -10.56,-5.92 l 0,12.48002 q 3.52,1.92 10.56,5.92 z"
         style="font-style:normal;font-variant:normal;font-weight:normal;font-stretch:normal;font-family:'Kubic\'s Rube';-inkscape-font-specification:'Kubic\'s Rube'"
         id="path3367" />
      <path
         d="m 223.64737,1013.8193 q -7.36,4.88 -34.72,21.92 0,-3.12 -0.32,-12.16 -0.24,-8.96 -0.24,-13.6 -4.88,-2.72 -10,-6.16 -0.32,-0.56 -0.56,-0.56 -0.16,0.08 -0.16,0.56 l 0,11.76 q 3.36,2.16 10.16,6.8 l 0,12.88 q -11.12,-6.56 -32.88,-19.44 l 0,-39.12002 q 3.6,2.16 11.04,6.88 l 0,11.6 q 3.68,2.24 10.4,6.72002 l 0.4,-12.32002 q -2.64,-1.44 -10.24,-6.48 5.52,2.72 9.52,5.2 l 1.28,0 q 0.72,0 10.56,-5.6 -3.28,-1.84 -10,-5.6 -3.28,1.44 -11.12,5.36 -2.72,-1.2 -11.44,-6.56 l 33.76,-16.24 34.16,16.24 q -4,2.48 -10.88,6.56 -4.96,-2 -10.8,-5.36 l -1.28,0 q -0.72,0 -4.16,2.08 -2.96,1.76 -5.84,3.52 3.04,1.6 10.48,5.6 l 1.36,0 q 0.64,0 4.08,-2.08 4.08,-2.4 5.36,-2.88 -3.76,2.56 -10.16,6.24 l 0.4,11.84002 q 6.16,-3.68002 10.32,-6.72002 l 0,-11.12 q 3.84,-2.24 11.52,-6.4 l 0,36.64002 z m -13.52,-42.72002 q -2.72,-1.84 -10.4,-5.12 -3.44,1.6 -9.44,4.56 8.88,5.12 10,5.12 l 1.44,0 q 4.88,-3.2 8.4,-4.56 z m -11.6,-5.84 q -1.44,-0.72 -4.72,-2.32 -3.28,-1.6 -4.72,-2.32 -1.44,0.72 -4.48,2.32 -3.04,1.6 -4.48,2.32 2.96,1.76 8.96,5.04 1.44,-0.72 4.72,-2.48 3.28,-1.84 4.72,-2.56 z m 24.16,34.96002 0,-10.48002 q -3.36,2 -9.52,5.44 l 0,11.52002 q 3.28,-2 9.52,-6.48 z m -22.72,-23.84002 q -2.96,-1.44 -11.44,-5.04 -2.88,1.52 -9.92,5.04 6.32,3.6 10.96,5.6 3.52,-2.08 10.4,-5.6 z m 22.72,36.96002 0,-11.44 q -3.44,2.08 -9.52,5.92 l 0,11.92 q 2.96,-1.92 9.52,-6.4 z m -34.8,-42.80002 q -3.6,-1.76 -10,-4.56 -3.2,1.76 -9.92,5.12 3.76,1.76 9.44,5.04 1.68,-0.96 5.2,-2.8 3.52,-1.84 5.28,-2.8 z m 12.56,18.48 q -6.4,-3.2 -11.36,-6.08 -5.76,3.6 -11.44,6.08 4.24,2.56 11.92,6.56 3.76,-2.4 10.88,-6.56 z m -0.08,13.20002 0,-12.00002 q -3.68,2.24 -10.96,6.4 l 0,12.00002 q 3.76,-2.24 10.96,-6.4 z m 11.68,17.92 0,-11.44 q -3.92,2.32 -10.56,6.4 l 0,11.92 q 3.6,-2.24 10.56,-6.88 z m -23.76,-11.52 0,-12.48002 q -3.6,-2 -10.56,-5.92 l 0,12.48002 q 3.52,1.92 10.56,5.92 z m 12.08,6.16 0,-11.44 q -3.84,2.24 -10.96,6.4 l 0,11.92 q 6.72,-3.76 10.96,-6.88 z m -35.36,-7.6 0,-11.52002 q -3.04,-1.76 -9.04,-5.44 l 0,11.04002 q 3.04,1.92 9.04,5.92 z m 11.6,20.32 0,-11.44 q -3.52,-2.24 -10.48,-6.88 l 0,12.4 q 3.52,2 10.48,5.92 z m -11.6,-6.8 0,-12.4 q -3.04,-2 -9.04,-5.92 l 0,12.96 q 3.44,1.76 9.04,5.36 z"
         style="font-style:normal;font-variant:normal;font-weight:normal;font-stretch:normal;font-family:'Kubic\'s Rube';-inkscape-font-specification:'Kubic\'s Rube'"
         id="path3369" />
      <path
         d="m 283.88862,970.05928 q -3.12,1.68 -6.32,3.36 -4.32,2.24 -5.04,2.24 -1.2,0 -9.44,-4.08 3.44,-2.08 10.32,-6.08 l 1.52,0 q 0.72,0 3.84,1.76 4.88,2.64 5.12,2.8 z m -10.64,-5.28 q -1.04,0.48 -9.84,5.52 l -1.52,0 q -0.88,0 -8.48,-6.08 1.44,-0.72 4.4,-2.24 3.04,-1.6 4.56,-2.32 3.76,1.84 10.88,5.12 z m -11.6,6.8 q -3.68,1.92 -9.52,4.32 -0.16,-0.16 -9.44,-6.32 3.76,-2.24 8.48,-4.56 l 1.44,0 q 0.8,0 9.04,6.56 z m 0,10.64 q -3.68,2.32 -11.44,7.04 -2.32,-0.8 -9.92,-5.12 3.84,-2 11.84,-7.04 3.68,1.28 9.52,5.12 z m -10.24,-5.84 q -1.84,1.12 -11.36,7.04 -3.92,-2.64 -11.44,-7.52 4.32,-2.08 12.88,-6.08 3.28,2.08 9.92,6.56 z m 45.6,37.44002 q -7.44,4.64 -22.16,14.16 0.16,-5.12 -0.32,-11.28 -1.04,-12.16 -1.12,-13.44 -3.36,2.16 -10.88,6.72 l 0.4,11.76 q 4.16,-2.16 10.72,-6.8 l 0,13.92 q -2.48,1.44 -11.28,6.96 -18.4,-10.4 -34.16,-20 l 0,-12.96 q 3.28,2.16 9.92,6.24 0.72,0 0.72,-0.56 -4.64,-2.56 -10.64,-6.8 l 0,-12.00002 q 3.84,2.48 11.04,7.36 l 0,10.72002 q 6,4.24 10.8,6.64 l 0,-11.28 q -3.44,-2.16 -10.16,-6.80002 l 0,-10.96 q 3.2,1.68 9.36,4.8 5.84,-2.56 13.6,-7.76 6.08,4.4 11.04,6.8 0.4,-0.48 0.4,-0.64 -3.52,-2.16 -11.2,-6.88 1.44,-0.72 4.72,-2.56 3.28,-1.84 4.72,-2.56 2.16,0.96 6.88,3.2 4.72,2.24 6.88,3.2 -0.24,6.64 0.4,11.12 2.96,-1.92 9.36,-6.24 l -0.4,-10.8 q -2.48,1.52 -8.56,5.36 -4.24,-2.08 -12.88,-6.08 3.36,-1.76 10.4,-5.52 l 1.44,0 q 0.72,0 4.64,1.92 5.36,2.64 6.32,2.96 l 0,38.08002 z m -58.24,-18.32002 q -3.52,-1.92 -10.56,-6.88 l 0,-11.92 q 3.6,2.48 10.56,7.36 l 0,11.44 z m 57.2,4.72002 0,-10.48002 q -3.36,2 -9.52,5.44 l 0,11.52002 q 3.28,-2 9.52,-6.48 z m -10.64,-5.28002 0,-11.44 -10.56,5.84 0,12.00002 q 3.6,-2.00002 10.56,-6.40002 z m 10.64,18.40002 0,-11.44 q -3.44,2.08 -9.52,5.92 l 0,11.92 q 2.96,-1.92 9.52,-6.4 z m -10.64,-5.76 0,-11.52002 q -3.84,2.24 -10.56,6.40002 l 0,11.52 q 3.6,-2.24 10.56,-6.4 z m -11.68,-5.36 0,-12.00002 q -3.68,2.24 -10.96,6.4 l 0,12.00002 q 3.76,-2.24 10.96,-6.4 z m -12.08,6.4 0,-12.48002 q -3.6,-2 -10.56,-5.92 l 0,12.48002 q 3.52,1.92 10.56,5.92 z m 0,26.16 0,-11.44 q -3.6,-2.24 -10.56,-6.4 l 0,11.44 q 3.76,2.32 10.56,6.4 z m -11.68,-7.28 0,-11.44 q -3.52,-2.24 -10.48,-6.88 l 0,12.4 q 3.52,2 10.48,5.92 z"
         style="font-style:normal;font-variant:normal;font-weight:normal;font-stretch:normal;font-family:'Kubic\'s Rube';-inkscape-font-specification:'Kubic\'s Rube'"
         id="path3371" />
    </g>
  </g>
</svg>
