<?xml version="1.0" standalone="no"?>
<!DOCTYPE svg PUBLIC "-//W3C//DTD SVG 20010904//EN" "http://www.w3.org/TR/2001/REC-SVG-20010904/DTD/svg10.dtd">
<!-- Created using Krita: https://krita.org -->
<svg xmlns="http://www.w3.org/2000/svg" 
    xmlns:xlink="http://www.w3.org/1999/xlink"
    xmlns:krita="http://krita.org/namespaces/svg/krita"
    xmlns:sodipodi="http://sodipodi.sourceforge.net/DTD/sodipodi-0.dtd"
    width="60pt"
    height="24pt"
    viewBox="0 0 60 24">
<defs/>
<path id="shape0" transform="matrix(0.999999978664666 0 0 0.999999978664666 9.16205961915291 6.14044808408682)" fill="none" stroke="#76c578" stroke-width="2.4" stroke-linecap="square" stroke-linejoin="bevel" d="M0.212143 11.7191C0.220658 5.57153 -0.272836 0.818123 0.217245 0.296985C1.27686 -0.829782 4.27467 11.5259 5.62661 11.6673C6.30551 11.7383 5.94494 6.7805 5.94481 0" sodipodi:nodetypes="cccc"/><path id="shape1" transform="matrix(0.999999978664666 0 0 0.999999978664666 18.822807502229 6.10470184937841)" fill="none" stroke="#76c578" stroke-width="2.4" stroke-linecap="square" stroke-linejoin="bevel" d="M0.0313947 0C0.0313947 3.87772 -0.178399 7.5032 0.486666 9.35409C1.53012 12.2581 4.12338 12.6936 5.38692 9.96928C6.22712 8.15771 6.06574 4.28165 6.06574 0.0202853" sodipodi:nodetypes="cccc"/><path id="shape2" transform="matrix(0.999999978664666 0 0 0.999999978664666 28.5354520020616 6.23672844613077)" fill="none" stroke="#76c578" stroke-width="2.4" stroke-linecap="square" stroke-linejoin="bevel" d="M0.0687497 0C0.0687497 4.58235 -0.299552 9.24148 0.66875 11.16C1.73294 11.6886 2.30058 11.49 4.89875 11.49" sodipodi:nodetypes="ccc"/><path id="shape3" transform="matrix(0.999999978664666 0 0 0.999999978664666 44.8618716935825 6.35760100829488)" fill="none" stroke="#76c578" stroke-width="2.4" stroke-linecap="square" stroke-linejoin="bevel" d="M0.00232918 0C0.00232918 3.54299 0 7.75571 0 11.2848" sodipodi:nodetypes="cc"/><path id="shape4" transform="matrix(0.999999978664666 0 0 0.999999978664666 48.5580825596819 6.09270089224888)" fill="none" stroke="#76c578" stroke-width="2.4" stroke-linecap="square" stroke-linejoin="bevel" d="M5.54186 2.36462C5.54186 -1.06558 -1.24294 -0.829787 0.201854 3.50462C0.647382 4.8412 2.54602 5.40364 4.41686 6.62462C6.61207 8.06676 5.48556 11.8146 3.44186 11.8146C1.6466 11.8146 0.141854 11.592 0.141854 9.35462" sodipodi:nodetypes="ccccc"/><path id="shape01" transform="matrix(0.999999966900454 0 0 0.999999966900454 36.3765491136071 6.23672710265097)" fill="none" stroke="#76c578" stroke-width="2.4" stroke-linecap="square" stroke-linejoin="bevel" d="M0.0687497 0C0.0687497 4.58235 -0.299552 9.24148 0.66875 11.16C1.73294 11.6886 2.30058 11.49 4.89875 11.49" sodipodi:nodetypes="ccc"/><path id="shape0" transform="translate(7.9478578873602, 6.14043672026656)" fill="none" stroke="#ffffff" stroke-width="2.4" stroke-linecap="square" stroke-linejoin="bevel" d="M0.212143 11.7191C0.220658 5.57153 -0.272836 0.818123 0.217245 0.296985C1.27686 -0.829782 4.27467 11.5259 5.62661 11.6673C6.30551 11.7383 5.94494 6.7805 5.94481 0" sodipodi:nodetypes="cccc"/><path id="shape1" transform="translate(17.6086063576291, 6.1046966138077)" fill="none" stroke="#ffffff" stroke-width="2.4" stroke-linecap="square" stroke-linejoin="bevel" d="M0.0313947 0C0.0313947 3.87772 -0.178399 7.5032 0.486666 9.35409C1.53012 12.2581 4.12338 12.6936 5.38692 9.96928C6.22712 8.15771 6.06574 4.28165 6.06574 0.0202853" sodipodi:nodetypes="cccc"/><path id="shape2" transform="translate(27.3212510218743, 6.23672321337689)" fill="none" stroke="#ffffff" stroke-width="2.4" stroke-linecap="square" stroke-linejoin="bevel" d="M0.0687497 0C0.0687497 4.58235 -0.299552 9.24148 0.66875 11.16C1.73294 11.6886 2.30058 11.49 4.89875 11.49" sodipodi:nodetypes="ccc"/><path id="shape3" transform="translate(43.6476711308413, 6.35759577811986)" fill="none" stroke="#ffffff" stroke-width="2.4" stroke-linecap="square" stroke-linejoin="bevel" d="M0.00232918 0C0.00232918 3.54299 0 7.75571 0 11.2848" sodipodi:nodetypes="cc"/><path id="shape4" transform="translate(47.3438807044005, 6.09269157456476)" fill="none" stroke="#ffffff" stroke-width="2.4" stroke-linecap="square" stroke-linejoin="bevel" d="M5.54186 2.36462C5.54186 -1.06558 -1.24294 -0.829782 0.201855 3.50462C0.647383 4.8412 2.54602 5.40364 4.41686 6.62462C6.61207 8.06676 5.48556 11.8146 3.44186 11.8146C1.6466 11.8146 0.141855 11.592 0.141855 9.35462" sodipodi:nodetypes="ccccc"/><path id="shape01" transform="matrix(0.999999988235788 0 0 0.999999988235788 35.1623483007121 6.23672186989707)" fill="none" stroke="#ffffff" stroke-width="2.4" stroke-linecap="square" stroke-linejoin="bevel" d="M0.0687497 0C0.0687497 4.58235 -0.299552 9.24148 0.66875 11.16C1.73294 11.6886 2.30058 11.49 4.89875 11.49" sodipodi:nodetypes="ccc"/>
</svg>
