<svg width="1525" height="344" viewBox="0 0 1525 344" fill="none" xmlns="http://www.w3.org/2000/svg">
<g clip-path="url(#clip0_111_80)">
<path fill-rule="evenodd" clip-rule="evenodd" d="M1193.16 221.168L1203 272H1255L1275.27 176.085L1326.54 248.021C1326.54 248.021 1327.55 249.52 1329.37 251.769C1330.29 252.893 1331.4 254.203 1332.69 255.608C1333.99 257.013 1335.46 258.512 1337.09 260.011C1338.71 261.509 1340.49 263.008 1342.4 264.413C1344.31 265.818 1346.34 267.13 1348.49 268.254C1349.56 268.816 1350.65 269.331 1351.77 269.788C1352.89 270.245 1354.03 270.642 1355.2 270.97C1356.36 271.298 1357.54 271.555 1358.74 271.731C1359.94 271.906 1361.15 272 1362.38 272H1418.65L1461 72.0005H1388.1L1366.62 173.664L1319.2 97.4171C1319.2 97.4171 1318.45 95.8285 1316.95 93.4458C1316.21 92.2544 1315.27 90.8634 1314.15 89.3742C1313.04 87.8849 1311.73 86.2973 1310.25 84.7088C1308.76 83.1203 1307.1 81.5314 1305.25 80.0422C1303.4 78.5529 1301.36 77.1632 1299.15 75.9718C1298.05 75.3761 1296.9 74.8295 1295.7 74.3455C1294.51 73.8616 1293.27 73.4404 1291.98 73.093C1290.7 72.7455 1289.37 72.4718 1287.99 72.2857C1286.62 72.0994 1285.2 72.0005 1283.74 72.0005H1224.75L1193.16 221.168Z" fill="#007CAB"/>
<path fill-rule="evenodd" clip-rule="evenodd" d="M958.477 221.168L927.11 272H1010.9L1026.33 242.953H1101.95L1105.58 272H1186.65L1176.81 221.168L1152.77 97.0005C1152.77 97.0005 1152.46 95.438 1151.6 93.0942C1151.18 91.9223 1150.62 90.5552 1149.9 89.0903C1149.17 87.6255 1148.29 86.063 1147.22 84.5005C1146.15 82.938 1144.89 81.3755 1143.41 79.9106C1142.68 79.1782 1141.89 78.47 1141.04 77.7986C1140.19 77.1273 1139.28 76.4927 1138.31 75.9067C1137.35 75.3208 1136.32 74.7839 1135.23 74.3078C1134.14 73.8317 1132.98 73.4165 1131.76 73.0747C1130.54 72.7329 1129.25 72.4648 1127.88 72.2817C1126.52 72.0985 1125.09 72.0005 1123.58 72.0005H1074.88C1073.39 72.0005 1071.93 72.0985 1070.5 72.2817C1069.07 72.4649 1067.68 72.7329 1066.32 73.0747C1064.96 73.4165 1063.63 73.8317 1062.34 74.3078C1061.06 74.7839 1059.8 75.3208 1058.59 75.9067C1056.17 77.0786 1053.9 78.4458 1051.8 79.9106C1049.7 81.3755 1047.78 82.938 1046.04 84.5005C1044.3 86.063 1042.74 87.6255 1041.39 89.0903C1040.04 90.5552 1038.89 91.9223 1037.96 93.0942C1036.1 95.438 1035.1 97.0005 1035.1 97.0005L958.477 221.168ZM1087.74 129.792L1095.6 193.937H1052.95L1087.74 129.792Z" fill="#007CAB"/>
<path fill-rule="evenodd" clip-rule="evenodd" d="M789.955 72L747.606 272H907.115L938.482 221.168H835.028L866.79 72H789.955Z" fill="#007CAB"/>
<path fill-rule="evenodd" clip-rule="evenodd" d="M690.398 72L648.048 272H724.278L766.627 72H690.398Z" fill="#2A2C3F"/>
<path fill-rule="evenodd" clip-rule="evenodd" d="M431.125 72.0001L388.775 272H465.307L478.92 206.947H564.83C568.366 206.947 571.767 206.916 575.038 206.849C578.309 206.781 581.449 206.678 584.466 206.531C587.483 206.384 590.376 206.196 593.149 205.958C595.923 205.721 598.577 205.434 601.116 205.094C603.655 204.753 606.08 204.359 608.396 203.903C610.711 203.448 612.918 202.933 615.02 202.351C617.123 201.77 619.121 201.122 621.02 200.402C622.92 199.682 624.72 198.891 626.426 198.021C628.133 197.151 629.746 196.204 631.269 195.172C632.793 194.14 634.227 193.024 635.578 191.819C636.929 190.613 638.196 189.317 639.384 187.926C640.573 186.535 641.682 185.048 642.718 183.46C643.754 181.871 644.718 180.18 645.612 178.383C646.506 176.585 647.332 174.68 648.094 172.661C648.857 170.643 649.556 168.51 650.197 166.259C650.838 164.008 651.421 161.637 651.95 159.141L660.118 119.806C660.723 116.629 661.252 113.679 661.63 110.918C661.819 109.537 661.97 108.204 662.074 106.914C662.178 105.624 662.234 104.376 662.234 103.165C662.234 101.577 662.157 100.065 661.999 98.6263C661.841 97.1879 661.602 95.8234 661.281 94.5286C660.961 93.2338 660.558 92.0084 660.071 90.8502C659.584 89.6921 659.012 88.6012 658.354 87.5729C657.696 86.5446 656.951 85.5795 656.117 84.6745C655.284 83.7694 654.363 82.9243 653.35 82.1354C652.337 81.3465 651.232 80.6143 650.035 79.9349C648.838 79.2555 647.549 78.6288 646.164 78.0521C644.779 77.4753 643.3 76.9473 641.722 76.4662C640.145 75.985 638.47 75.5507 636.696 75.1589C634.922 74.7671 633.05 74.4187 631.075 74.1094C629.1 73.8 627.024 73.5296 624.843 73.2956C622.663 73.0615 620.379 72.8633 617.99 72.6979C615.6 72.5326 613.104 72.4003 610.501 72.2969C605.294 72.09 599.655 72 593.567 72L431.125 72.0001ZM496.767 122.832H568.46C569.632 122.832 570.714 122.875 571.71 122.961C572.707 123.047 573.618 123.177 574.448 123.352C575.277 123.527 576.025 123.747 576.696 124.013C577.367 124.279 577.961 124.591 578.481 124.951C579.001 125.31 579.447 125.716 579.824 126.171C580.202 126.626 580.51 127.129 580.754 127.682C580.997 128.236 581.175 128.839 581.293 129.492C581.41 130.146 581.467 130.85 581.467 131.607C581.467 132.363 581.392 133.12 581.278 133.876C581.165 134.633 581.013 135.39 580.862 136.146L579.35 143.71C579.086 144.996 578.787 146.178 578.446 147.262C578.104 148.346 577.719 149.331 577.279 150.224C576.84 151.118 576.346 151.919 575.788 152.634C575.229 153.349 574.605 153.978 573.905 154.526C573.206 155.075 572.43 155.543 571.568 155.936C570.707 156.33 569.76 156.649 568.715 156.9C567.67 157.151 566.529 157.333 565.28 157.452C564.031 157.571 562.675 157.628 561.2 157.628H489.507L496.767 122.832Z" fill="#2A2C3F"/>
<path fill-rule="evenodd" clip-rule="evenodd" d="M365.448 272L407.798 72H331.568L289.218 272H365.448Z" fill="#2A2C3F"/>
<path fill-rule="evenodd" clip-rule="evenodd" d="M133.886 218.667L130.357 235.333L126.122 255.333C126 255.91 125.908 256.48 125.846 257.042C125.784 257.603 125.75 258.157 125.746 258.7C125.741 259.244 125.766 259.777 125.816 260.299C125.867 260.822 125.945 261.334 126.05 261.833C126.155 262.332 126.285 262.818 126.441 263.29C126.597 263.763 126.779 264.221 126.984 264.664C127.189 265.107 127.418 265.535 127.67 265.946C127.922 266.358 128.197 266.752 128.494 267.129C128.79 267.505 129.109 267.864 129.448 268.203C129.787 268.542 130.147 268.862 130.527 269.161C130.907 269.46 131.305 269.739 131.723 269.995C132.141 270.251 132.579 270.484 133.033 270.694C133.487 270.904 133.96 271.091 134.448 271.252C134.936 271.414 135.439 271.552 135.959 271.663C136.479 271.773 137.015 271.857 137.564 271.914C138.114 271.97 138.677 272 139.254 272H159.249C159.826 272 160.402 271.97 160.976 271.914C161.549 271.857 162.121 271.773 162.687 271.663C163.254 271.552 163.818 271.414 164.374 271.252C164.931 271.091 165.482 270.904 166.025 270.694C166.568 270.483 167.102 270.251 167.629 269.995C168.155 269.739 168.673 269.46 169.179 269.161C169.686 268.862 170.182 268.542 170.665 268.203C171.148 267.864 171.618 267.505 172.074 267.129C172.531 266.752 172.972 266.358 173.398 265.946C173.824 265.535 174.236 265.107 174.628 264.664C175.021 264.221 175.396 263.763 175.752 263.29C176.108 262.818 176.444 262.332 176.759 261.833C177.075 261.334 177.37 260.822 177.642 260.299C177.914 259.777 178.166 259.244 178.392 258.7C178.618 258.157 178.818 257.603 178.993 257.042C179.169 256.48 179.319 255.91 179.441 255.333L183.676 235.333L187.205 218.667H170.542H150.547H133.886Z" fill="#2A2C3F"/>
<path fill-rule="evenodd" clip-rule="evenodd" d="M92.0558 148.667L162.664 208.666L258.683 148.667L177.348 178.666L175.369 148.667L160.685 178.666L92.0558 148.667Z" fill="#007CAB"/>
<path fill-rule="evenodd" clip-rule="evenodd" d="M241.59 72L238.061 88.6666L231.003 122L227.474 138.667H244.137H277.462C278.039 138.667 278.615 138.637 279.188 138.581C279.762 138.524 280.333 138.44 280.9 138.329C281.467 138.219 282.031 138.081 282.587 137.919C283.144 137.758 283.695 137.571 284.238 137.361C284.781 137.151 285.315 136.917 285.842 136.661C286.368 136.405 286.886 136.127 287.392 135.828C287.898 135.529 288.394 135.209 288.877 134.87C289.36 134.531 289.831 134.172 290.287 133.796C290.743 133.419 291.185 133.025 291.611 132.613C292.037 132.202 292.447 131.774 292.84 131.331C293.233 130.888 293.609 130.429 293.965 129.957C294.321 129.485 294.656 128.999 294.972 128.5C295.288 128.001 295.582 127.489 295.855 126.966C296.127 126.444 296.378 125.911 296.603 125.367C296.829 124.824 297.03 124.27 297.206 123.708C297.382 123.147 297.532 122.577 297.654 122L304.712 88.6667L308.241 72.0001H291.579H258.253L241.59 72Z" fill="#2A2C3F"/>
<path fill-rule="evenodd" clip-rule="evenodd" d="M158.277 72L144.161 138.667H210.811L224.928 72H158.277Z" fill="#2A2C3F"/>
<path fill-rule="evenodd" clip-rule="evenodd" d="M74.9636 72.0001L71.4345 88.6667L64.3762 122C64.254 122.577 64.1626 123.147 64.1003 123.708C64.0381 124.27 64.0043 124.824 64 125.367C63.995 125.911 64.0202 126.444 64.0703 126.966C64.1214 127.489 64.1998 128.001 64.3046 128.5C64.4094 128.999 64.5406 129.485 64.6964 129.957C64.8523 130.429 65.033 130.888 65.2379 131.331C65.443 131.774 65.672 132.202 65.924 132.613C66.176 133.025 66.4513 133.419 66.748 133.796C67.0447 134.172 67.3629 134.531 67.7022 134.87C68.0415 135.209 68.4016 135.529 68.7814 135.828C69.1612 136.127 69.5596 136.406 69.9777 136.662C70.3958 136.917 70.8331 137.15 71.2873 137.361C71.7415 137.571 72.2142 137.757 72.7023 137.919C73.1904 138.081 73.6938 138.219 74.2137 138.329C74.7336 138.44 75.2692 138.524 75.8187 138.581C76.3682 138.637 76.9315 138.667 77.5084 138.667H110.834H127.497L131.026 122L138.084 88.6666L141.613 72H124.95H91.6249L74.9636 72.0001Z" fill="#2A2C3F"/>
</g>
<defs>
<clipPath id="clip0_111_80">
<rect width="1397" height="200" fill="white" transform="translate(64 72)"/>
</clipPath>
</defs>
</svg>
