<svg width="2096" height="300" viewBox="0 0 2096 300" fill="none" xmlns="http://www.w3.org/2000/svg">
<g clip-path="url(#clip0_141_149)">
<path fill-rule="evenodd" clip-rule="evenodd" d="M1694.15 223.752L1708.91 300H1786.92L1817.33 156.127L1894.26 264.032C1894.26 264.032 1895.78 266.281 1898.51 269.653C1899.88 271.339 1901.55 273.305 1903.49 275.412C1905.43 277.52 1907.64 279.768 1910.08 282.016C1912.52 284.264 1915.19 286.512 1918.05 288.619C1920.92 290.727 1923.97 292.695 1927.19 294.381C1928.79 295.224 1930.44 295.997 1932.12 296.682C1933.8 297.367 1935.51 297.964 1937.26 298.455C1939 298.947 1940.78 299.333 1942.57 299.596C1944.37 299.859 1946.2 300 1948.04 300H2032.46L2096 0.000244141H1986.62L1954.4 152.496L1883.25 38.1253C1883.25 38.1253 1882.12 35.7423 1879.88 32.1682C1878.76 30.3811 1877.35 28.2946 1875.68 26.0608C1874 23.8269 1872.05 21.4455 1869.82 19.0628C1867.59 16.68 1865.09 14.2966 1862.31 12.0628C1859.54 9.82892 1856.49 7.74433 1853.17 5.95726C1851.51 5.06374 1849.79 4.24384 1847.99 3.51783C1846.2 2.79186 1844.34 2.16016 1842.41 1.63897C1840.48 1.11773 1838.49 0.707222 1836.43 0.42799C1834.36 0.148683 1832.23 0.000244141 1830.04 0.000244141H1741.54L1694.15 223.752Z" fill="#00A3E0"/>
<path fill-rule="evenodd" clip-rule="evenodd" d="M1342.04 223.752L1294.97 300H1420.69L1443.84 256.43H1557.3L1562.75 300H1684.38L1669.62 223.752L1633.55 37.5002C1633.55 37.5002 1633.07 35.1565 1631.79 31.6409C1631.15 29.883 1630.31 27.8323 1629.23 25.635C1628.15 23.4377 1626.82 21.094 1625.22 18.7502C1623.61 16.4065 1621.72 14.0627 1619.51 11.8655C1618.4 10.7668 1617.21 9.70459 1615.94 8.69749C1614.67 7.69044 1613.31 6.73855 1611.86 5.85962C1610.41 4.98073 1608.87 4.1753 1607.23 3.4612C1605.59 2.74706 1603.86 2.12427 1602.02 1.61157C1600.19 1.09888 1598.25 0.696766 1596.21 0.422108C1594.16 0.147336 1592.01 0.000244141 1589.75 0.000244141H1516.68C1514.44 0.000244141 1512.25 0.14726 1510.11 0.422108C1507.97 0.696879 1505.87 1.09888 1503.83 1.61157C1501.79 2.12427 1499.8 2.74706 1497.87 3.4612C1495.94 4.1753 1494.06 4.98073 1492.24 5.85962C1488.61 7.61744 1485.2 9.66821 1482.06 11.8655C1478.91 14.0627 1476.02 16.4065 1473.41 18.7502C1470.8 21.094 1468.47 23.4377 1466.44 25.635C1464.41 27.8323 1462.69 29.883 1461.29 31.6409C1458.49 35.1565 1457 37.5002 1457 37.5002L1342.04 223.752ZM1535.97 86.6878L1547.77 182.905H1483.78L1535.97 86.6878Z" fill="#00A3E0"/>
<path fill-rule="evenodd" clip-rule="evenodd" d="M1089.19 -0.000244141L1025.65 300H1264.97L1312.04 223.752H1156.82L1204.47 -0.000244141H1089.19Z" fill="#00A3E0"/>
<path fill-rule="evenodd" clip-rule="evenodd" d="M939.821 -0.000244141L876.28 300H990.653L1054.19 -0.000244141H939.821Z" fill="#EEE5E5"/>
<path fill-rule="evenodd" clip-rule="evenodd" d="M550.819 -7.11276e-05L487.278 300H602.104L622.528 202.42H751.425C756.729 202.42 761.832 202.374 766.739 202.273C771.647 202.172 776.359 202.017 780.886 201.797C785.412 201.577 789.752 201.294 793.913 200.937C798.074 200.581 802.056 200.151 805.866 199.64C809.676 199.13 813.314 198.538 816.788 197.855C820.262 197.173 823.573 196.399 826.728 195.527C829.882 194.655 832.88 193.683 835.73 192.603C838.579 191.524 841.281 190.336 843.841 189.031C846.401 187.726 848.821 186.305 851.106 184.758C853.392 183.21 855.544 181.537 857.571 179.728C859.598 177.92 861.499 175.975 863.282 173.888C865.065 171.802 866.729 169.572 868.284 167.189C869.839 164.807 871.284 162.271 872.626 159.574C873.968 156.877 875.207 154.02 876.351 150.992C877.495 147.964 878.543 144.766 879.505 141.388C880.467 138.011 881.342 134.455 882.136 130.711L894.39 71.7088C895.297 66.9433 896.092 62.5181 896.659 58.3767C896.943 56.306 897.17 54.3065 897.325 52.3709C897.481 50.4352 897.565 48.5632 897.565 46.7478C897.565 44.365 897.449 42.0967 897.212 39.9392C896.975 37.7817 896.617 35.7349 896.136 33.7927C895.655 31.8505 895.05 30.0124 894.319 28.2752C893.588 26.5379 892.731 24.9015 891.743 23.3591C890.756 21.8167 889.638 20.3691 888.388 19.0115C887.138 17.6539 885.755 16.3863 884.235 15.2029C882.716 14.0195 881.059 12.9212 879.263 11.9021C877.467 10.883 875.532 9.94304 873.454 9.07787C871.376 8.21269 869.156 7.42073 866.79 6.69899C864.424 5.97726 861.911 5.32578 859.249 4.73806C856.587 4.15035 853.778 3.62787 850.815 3.16382C847.853 2.69977 844.737 2.29414 841.466 1.9431C838.195 1.59198 834.768 1.29463 831.183 1.04666C827.597 0.798721 823.852 0.600241 819.946 0.445091C812.134 0.134792 803.674 -0.000244141 794.54 -0.000244141L550.819 -7.11276e-05ZM649.306 76.2479H756.87C758.629 76.2479 760.252 76.3122 761.747 76.4415C763.242 76.5707 764.61 76.765 765.855 77.0274C767.099 77.2897 768.221 77.6203 769.228 78.0196C770.234 78.4189 771.125 78.8869 771.905 79.4258C772.685 79.9648 773.355 80.5736 773.921 81.2559C774.487 81.9381 774.95 82.6938 775.315 83.5235C775.681 84.3532 775.948 85.2577 776.124 86.2383C776.3 87.2189 776.386 88.2756 776.386 89.4102C776.386 90.5449 776.273 91.6797 776.103 92.8145C775.932 93.9493 775.704 95.0842 775.478 96.2188L773.21 107.565C772.813 109.493 772.365 111.267 771.853 112.893C771.34 114.518 770.762 115.996 770.103 117.336C769.443 118.676 768.703 119.879 767.864 120.951C767.026 122.024 766.09 122.966 765.04 123.789C763.991 124.612 762.827 125.314 761.534 125.904C760.242 126.495 758.82 126.974 757.253 127.35C755.686 127.726 753.973 127.999 752.099 128.178C750.225 128.357 748.19 128.442 745.978 128.442H638.413L649.306 76.2479Z" fill="#EEE5E5"/>
<path fill-rule="evenodd" clip-rule="evenodd" d="M452.28 300L515.819 -0.000244141H401.448L337.907 300H452.28Z" fill="#EEE5E5"/>
<path fill-rule="evenodd" clip-rule="evenodd" d="M104.854 220L99.5586 245L93.2051 275C93.0218 275.865 92.8842 276.72 92.791 277.562C92.6977 278.405 92.647 279.235 92.6406 280.051C92.633 280.866 92.6708 281.665 92.746 282.449C92.8227 283.233 92.9403 284.002 93.0975 284.75C93.2548 285.498 93.4494 286.227 93.6835 286.935C93.9174 287.644 94.1903 288.331 94.4979 288.996C94.8055 289.661 95.1492 290.303 95.5272 290.92C95.9052 291.537 96.3183 292.128 96.7635 292.693C97.2087 293.258 97.6861 293.796 98.1952 294.304C98.7044 294.813 99.2445 295.294 99.8143 295.742C100.384 296.19 100.982 296.608 101.609 296.992C102.236 297.376 102.893 297.725 103.574 298.041C104.255 298.356 104.965 298.636 105.697 298.879C106.43 299.121 107.185 299.328 107.965 299.494C108.745 299.66 109.549 299.786 110.373 299.871C111.197 299.956 112.043 300 112.908 300H142.908C143.774 300 144.637 299.956 145.498 299.871C146.358 299.786 147.216 299.66 148.066 299.494C148.917 299.328 149.762 299.121 150.598 298.879C151.433 298.636 152.259 298.356 153.074 298.041C153.889 297.725 154.69 297.376 155.48 296.992C156.27 296.608 157.047 296.19 157.807 295.742C158.566 295.294 159.31 294.813 160.035 294.304C160.76 293.796 161.466 293.258 162.15 292.693C162.835 292.128 163.497 291.537 164.137 290.92C164.776 290.303 165.393 289.661 165.982 288.996C166.571 288.331 167.134 287.644 167.668 286.935C168.202 286.227 168.706 285.498 169.18 284.75C169.654 284.002 170.095 283.233 170.504 282.449C170.912 281.665 171.29 280.866 171.629 280.051C171.967 279.235 172.268 278.405 172.531 277.562C172.795 276.72 173.02 275.865 173.203 275L179.556 245L184.851 220H159.851H129.851H104.854Z" fill="#EEE5E5"/>
<path fill-rule="evenodd" clip-rule="evenodd" d="M42.0938 115L148.031 205L292.094 115L170.062 160L167.094 115L145.063 160L42.0938 115Z" fill="#00A3E0"/>
<path fill-rule="evenodd" clip-rule="evenodd" d="M266.449 -0.000244141L261.154 24.9997L250.564 74.9998L245.27 99.9997H270.27H320.27C321.135 99.9997 321.999 99.9559 322.859 99.8708C323.72 99.7858 324.577 99.6599 325.428 99.494C326.278 99.3281 327.124 99.1217 327.959 98.8788C328.794 98.6361 329.621 98.3563 330.436 98.0409C331.251 97.7257 332.052 97.376 332.842 96.9921C333.632 96.6081 334.408 96.1905 335.168 95.7421C335.928 95.2937 336.672 94.8133 337.396 94.3046C338.121 93.796 338.827 93.2581 339.512 92.6933C340.196 92.1284 340.859 91.5367 341.498 90.9198C342.137 90.3029 342.753 89.6608 343.342 88.996C343.931 88.3312 344.495 87.6441 345.029 86.9355C345.563 86.2269 346.067 85.4981 346.541 84.7499C347.015 84.0017 347.456 83.2329 347.865 82.4491C348.274 81.6654 348.65 80.8658 348.988 80.0506C349.327 79.2354 349.629 78.4048 349.893 77.5624C350.156 76.72 350.381 75.8655 350.564 74.9999L361.154 24.9999L366.449 -0.000128799H341.449H291.449L266.449 -0.000244141Z" fill="#EEE5E5"/>
<path fill-rule="evenodd" clip-rule="evenodd" d="M141.449 -0.000244141L120.27 99.9997H220.27L241.449 -0.000244141H141.449Z" fill="#EEE5E5"/>
<path fill-rule="evenodd" clip-rule="evenodd" d="M16.4492 -7.11276e-05L11.1544 24.9999L0.564456 74.9999C0.381149 75.8656 0.243979 76.72 0.150436 77.5624C0.0570817 78.4048 0.00639753 79.2355 -2.76641e-05 80.0507C-0.00758672 80.8659 0.03024 81.6654 0.105453 82.4491C0.182177 83.2329 0.299729 84.0017 0.456957 84.7499C0.614186 85.4981 0.811092 86.2269 1.04486 86.9355C1.27881 87.6441 1.54982 88.3312 1.85733 88.996C2.16498 89.6608 2.50861 90.3029 2.88664 90.9198C3.2647 91.5367 3.67784 92.1284 4.12299 92.6933C4.56818 93.2581 5.04547 93.796 5.55461 94.3046C6.06375 94.8133 6.60389 95.2938 7.17373 95.7421C7.74357 96.1905 8.34143 96.6082 8.96868 96.9921C9.59593 97.3761 10.2521 97.7255 10.9335 98.0409C11.6149 98.3565 12.3243 98.6361 13.0566 98.8788C13.7889 99.1215 14.5441 99.3281 15.3241 99.494C16.1042 99.6599 16.9078 99.7858 17.7323 99.8708C18.5567 99.9559 19.4018 99.9997 20.2675 99.9997H70.2675H95.2675L100.562 74.9998L111.152 24.9997L116.447 -0.000244141H91.4472H41.4472L16.4492 -7.11276e-05Z" fill="#EEE5E5"/>
</g>
<defs>
<clipPath id="clip0_141_149">
<rect width="2096" height="300" fill="white" transform="translate(0 -0.000244141)"/>
</clipPath>
</defs>
</svg>
