<svg width="1397" height="200" viewBox="0 0 1397 200" fill="none" xmlns="http://www.w3.org/2000/svg">
<g clip-path="url(#clip0_519_827)">
<path fill-rule="evenodd" clip-rule="evenodd" d="M1129.16 149.168L1139 200H1191L1211.27 104.085L1262.54 176.021C1262.54 176.021 1263.55 177.52 1265.37 179.768C1266.29 180.892 1267.4 182.203 1268.69 183.608C1269.99 185.013 1271.46 186.512 1273.09 188.01C1274.71 189.509 1276.49 191.008 1278.4 192.413C1280.31 193.818 1282.34 195.13 1284.49 196.254C1285.56 196.816 1286.65 197.331 1287.77 197.788C1288.89 198.244 1290.03 198.642 1291.2 198.97C1292.36 199.298 1293.54 199.555 1294.74 199.73C1295.94 199.906 1297.15 200 1298.38 200H1354.65L1397 0.000244141H1324.1L1302.62 101.664L1255.2 25.4169C1255.2 25.4169 1254.45 23.8283 1252.95 21.4455C1252.21 20.2541 1251.27 18.8631 1250.15 17.3739C1249.04 15.8847 1247.73 14.2971 1246.25 12.7086C1244.76 11.1201 1243.1 9.53113 1241.25 8.04192C1239.4 6.55269 1237.36 5.16296 1235.15 3.97158C1234.05 3.3759 1232.9 2.8293 1231.7 2.3453C1230.51 1.86132 1229.27 1.44019 1227.98 1.09272C1226.7 0.745235 1225.37 0.471562 1223.99 0.285408C1222.62 0.0992032 1221.2 0.000244141 1219.74 0.000244141H1160.75L1129.16 149.168Z" fill="#007CAB"/>
<path fill-rule="evenodd" clip-rule="evenodd" d="M894.477 149.168L863.11 200H946.902L962.33 170.953H1037.95L1041.58 200H1122.65L1112.81 149.168L1088.77 25.0002C1088.77 25.0002 1088.46 23.4377 1087.6 21.094C1087.18 19.9221 1086.62 18.5549 1085.9 17.0901C1085.17 15.6252 1084.29 14.0627 1083.22 12.5002C1082.15 10.9377 1080.89 9.37523 1079.41 7.91039C1078.68 7.17797 1077.89 6.4698 1077.04 5.7984C1076.19 5.12703 1075.28 4.49244 1074.31 3.90649C1073.35 3.32056 1072.32 2.78361 1071.23 2.30754C1070.14 1.83145 1068.98 1.41626 1067.76 1.07446C1066.54 0.732667 1065.25 0.464591 1063.88 0.281486C1062.52 0.0983052 1061.09 0.000244141 1059.58 0.000244141H1010.88C1009.39 0.000244141 1007.93 0.0982548 1006.5 0.281486C1005.07 0.464667 1003.68 0.732667 1002.32 1.07446C1000.96 1.41626 999.631 1.83145 998.343 2.30754C997.055 2.78361 995.804 3.32056 994.591 3.90649C992.167 5.07837 989.899 6.44555 987.801 7.91039C985.704 9.37523 983.777 10.9377 982.037 12.5002C980.297 14.0627 978.744 15.6252 977.392 17.0901C976.041 18.5549 974.892 19.9221 973.96 21.094C972.096 23.4377 971.101 25.0002 971.101 25.0002L894.477 149.168ZM1023.74 57.7919L1031.6 121.936H988.95L1023.74 57.7919Z" fill="#007CAB"/>
<path fill-rule="evenodd" clip-rule="evenodd" d="M725.955 0L683.606 200H843.115L874.482 149.168H771.028L802.79 0H725.955Z" fill="#007CAB"/>
<path fill-rule="evenodd" clip-rule="evenodd" d="M626.398 0L584.048 200H660.278L702.627 0H626.398Z" fill="#2A2C3F"/>
<path fill-rule="evenodd" clip-rule="evenodd" d="M367.125 0.000115342L324.775 200H401.307L414.92 134.947H500.83C504.366 134.947 507.767 134.916 511.038 134.849C514.308 134.781 517.449 134.678 520.466 134.531C523.483 134.384 526.376 134.196 529.149 133.958C531.922 133.721 534.577 133.434 537.116 133.094C539.655 132.753 542.08 132.359 544.395 131.903C546.711 131.448 548.918 130.933 551.02 130.351C553.123 129.77 555.121 129.122 557.02 128.402C558.919 127.682 560.72 126.891 562.426 126.021C564.133 125.151 565.745 124.204 567.269 123.172C568.792 122.14 570.227 121.024 571.578 119.819C572.929 118.613 574.196 117.317 575.384 115.926C576.573 114.535 577.682 113.048 578.718 111.46C579.754 109.871 580.718 108.18 581.612 106.383C582.506 104.585 583.332 102.68 584.094 100.661C584.857 98.6426 585.556 96.5105 586.197 94.259C586.838 92.0075 587.421 89.6367 587.95 87.1405L596.118 47.8059C596.723 44.629 597.252 41.6789 597.63 38.9179C597.819 37.5374 597.97 36.2045 598.074 34.914C598.178 33.6236 598.234 32.3756 598.234 31.1653C598.234 29.5768 598.157 28.0646 597.999 26.6263C597.841 25.1879 597.602 23.8234 597.281 22.5286C596.961 21.2338 596.558 20.0084 596.071 18.8502C595.583 17.6921 595.012 16.6012 594.354 15.5729C593.695 14.5446 592.95 13.5795 592.117 12.6745C591.284 11.7694 590.363 10.9243 589.35 10.1354C588.337 9.34649 587.232 8.61428 586.035 7.93487C584.838 7.25546 583.549 6.62885 582.164 6.05207C580.779 5.47529 579.299 4.94731 577.722 4.46615C576.145 3.98499 574.47 3.55068 572.696 3.15887C570.922 2.76706 569.05 2.41874 567.075 2.10937C565.1 1.80001 563.024 1.52959 560.843 1.29556C558.663 1.06148 556.379 0.86325 553.99 0.697934C551.6 0.532643 549.104 0.400323 546.5 0.29689C541.294 0.0900241 535.655 0 529.567 0L367.125 0.000115342ZM432.767 50.8321H504.46C505.632 50.8321 506.714 50.8749 507.71 50.9611C508.707 51.0473 509.618 51.1768 510.448 51.3517C511.277 51.5266 512.025 51.747 512.696 52.0132C513.367 52.2793 513.961 52.5913 514.481 52.9507C515.001 53.3099 515.447 53.7158 515.824 54.1707C516.202 54.6255 516.51 55.1293 516.754 55.6824C516.997 56.2355 517.175 56.8386 517.293 57.4923C517.41 58.146 517.467 58.8505 517.467 59.6069C517.467 60.3634 517.392 61.1199 517.278 61.8764C517.165 62.633 517.013 63.3895 516.862 64.146L515.35 71.7097C515.086 72.9957 514.787 74.1781 514.446 75.2618C514.104 76.3455 513.719 77.3305 513.279 78.2241C512.84 79.1176 512.346 79.9192 511.787 80.6342C511.229 81.3492 510.605 81.9777 509.905 82.5261C509.206 83.0745 508.43 83.5426 507.568 83.9363C506.707 84.33 505.759 84.6493 504.715 84.8998C503.67 85.1505 502.528 85.3326 501.279 85.4519C500.031 85.5714 498.674 85.6278 497.2 85.6278H425.507L432.767 50.8321Z" fill="#2A2C3F"/>
<path fill-rule="evenodd" clip-rule="evenodd" d="M301.448 200L343.798 0H267.568L225.218 200H301.448Z" fill="#2A2C3F"/>
<path fill-rule="evenodd" clip-rule="evenodd" d="M69.8858 146.667L66.3566 163.333L62.122 183.333C61.9998 183.91 61.9081 184.48 61.846 185.042C61.7838 185.603 61.75 186.157 61.7458 186.7C61.7407 187.244 61.7659 187.777 61.816 188.299C61.8672 188.822 61.9455 189.334 62.0503 189.833C62.1551 190.332 62.2848 190.818 62.4408 191.29C62.5968 191.763 62.7786 192.221 62.9837 192.664C63.1887 193.107 63.4177 193.535 63.6697 193.946C63.9217 194.358 64.1969 194.752 64.4937 195.129C64.7904 195.505 65.1086 195.864 65.4479 196.203C65.7873 196.542 66.1473 196.862 66.5271 197.161C66.9068 197.46 67.3054 197.739 67.7234 197.995C68.1415 198.251 68.5788 198.484 69.033 198.694C69.4872 198.904 69.9599 199.091 70.448 199.252C70.9362 199.414 71.4395 199.552 71.9594 199.663C72.4793 199.773 73.015 199.857 73.5645 199.914C74.114 199.97 74.6773 200 75.2542 200H95.2494C95.8264 200 96.4021 199.97 96.9756 199.914C97.5491 199.857 98.1206 199.773 98.6874 199.663C99.2541 199.552 99.8179 199.414 100.375 199.252C100.931 199.091 101.482 198.904 102.025 198.694C102.568 198.483 103.102 198.251 103.629 197.995C104.155 197.739 104.673 197.46 105.179 197.161C105.686 196.862 106.182 196.542 106.665 196.203C107.148 195.864 107.618 195.505 108.074 195.129C108.531 194.752 108.972 194.358 109.398 193.946C109.824 193.535 110.236 193.107 110.629 192.664C111.021 192.221 111.396 191.763 111.752 191.29C112.108 190.818 112.444 190.332 112.76 189.833C113.076 189.334 113.37 188.822 113.642 188.299C113.915 187.777 114.166 187.244 114.392 186.7C114.618 186.157 114.818 185.603 114.993 185.042C115.169 184.48 115.319 183.91 115.441 183.333L119.676 163.333L123.205 146.667H106.542H86.5471H69.8858Z" fill="#2A2C3F"/>
<path fill-rule="evenodd" clip-rule="evenodd" d="M28.0559 76.6665L98.6641 136.666L194.683 76.6665L113.348 106.666L111.369 76.6665L96.6854 106.666L28.0559 76.6665Z" fill="#007CAB"/>
<path fill-rule="evenodd" clip-rule="evenodd" d="M177.591 0L174.061 16.6666L167.003 49.9999L163.474 66.6666H180.137H213.462C214.039 66.6666 214.615 66.6373 215.188 66.5806C215.762 66.5239 216.333 66.44 216.9 66.3294C217.467 66.2188 218.031 66.0812 218.587 65.9193C219.144 65.7575 219.695 65.571 220.238 65.3607C220.781 65.1505 221.315 64.9174 221.842 64.6615C222.368 64.4055 222.886 64.1271 223.392 63.8281C223.898 63.5292 224.394 63.2089 224.877 62.8698C225.36 62.5307 225.831 62.1722 226.287 61.7956C226.743 61.419 227.185 61.0246 227.611 60.6133C228.037 60.2021 228.447 59.7739 228.84 59.3308C229.233 58.8875 229.609 58.4295 229.965 57.9571C230.321 57.4847 230.656 56.9989 230.972 56.5C231.288 56.0012 231.583 55.4887 231.855 54.9662C232.127 54.4437 232.378 53.9106 232.603 53.3672C232.829 52.8237 233.031 52.27 233.206 51.7083C233.382 51.1468 233.532 50.5771 233.654 50L240.712 16.6667L244.241 7.68946e-05H227.579H194.253L177.591 0Z" fill="#2A2C3F"/>
<path fill-rule="evenodd" clip-rule="evenodd" d="M94.2771 0L80.1606 66.6666H146.811L160.928 0H94.2771Z" fill="#2A2C3F"/>
<path fill-rule="evenodd" clip-rule="evenodd" d="M10.9636 0.000115342L7.4345 16.6667L0.376255 50.0001C0.254079 50.5771 0.162655 51.1468 0.100307 51.7083C0.0380859 52.27 0.00430454 52.8238 2.20965e-05 53.3672C-0.00501607 53.9107 0.0201957 54.4437 0.0703255 54.9662C0.121463 55.4887 0.199812 56.0012 0.304606 56.5C0.4094 56.9989 0.54064 57.4847 0.696445 57.9571C0.852376 58.4295 1.03301 58.8875 1.23796 59.3308C1.44302 59.7739 1.67205 60.2021 1.92401 60.6133C2.17599 61.0245 2.45135 61.419 2.74804 61.7956C3.04477 62.1722 3.36289 62.5307 3.70223 62.8698C4.04158 63.2089 4.40158 63.5293 4.78139 63.8282C5.16119 64.1271 5.55967 64.4055 5.97773 64.6615C6.3958 64.9175 6.83316 65.1504 7.28732 65.3607C7.74149 65.5711 8.21425 65.7575 8.70235 65.9193C9.19047 66.0811 9.69379 66.2188 10.2137 66.3294C10.7336 66.44 11.2692 66.5239 11.8188 66.5806C12.3682 66.6373 12.9315 66.6666 13.5085 66.6666H46.8339H63.4965L67.0257 49.9999L74.0839 16.6666L77.613 0H60.9503H27.6249L10.9636 0.000115342Z" fill="#2A2C3F"/>
</g>
<defs>
<clipPath id="clip0_519_827">
<rect width="1397" height="200" fill="white"/>
</clipPath>
</defs>
</svg>
