<svg width="737" height="161" viewBox="0 0 737 161" fill="none" xmlns="http://www.w3.org/2000/svg">
<path d="M1.39876e-05 -3.49691e-06L40 0L40 18.5245L22.1217 18.5245L22.1217 141.475L40 141.475L40 160L0 160L1.39876e-05 -3.49691e-06Z" fill="#FF0086"/>
<path d="M518 -3.49691e-06L478 0L478 18.5245L495.878 18.5245L495.878 141.475L478 141.475L478 160L518 160L518 -3.49691e-06Z" fill="#FF0086"/>
<path fill-rule="evenodd" clip-rule="evenodd" d="M611.998 35.5843V17.7921V0H594.249V17.7921V35.5843V53.3333V71.1255H576.457H558.665V53.3333V35.5843V17.7921V0H540.916V17.7921V35.5843V53.3333V71.1255H558.665V88.8745H576.457H594.249V71.1255H611.998V53.3333V35.5843ZM683.123 17.7922H700.872V35.5412H683.123V17.7922ZM683.123 35.5412L683.123 53.3764H647.582V88.8745H629.747V0H683.123V17.7921H647.582V35.5412L683.123 35.5412ZM718.665 71.1255H736.457V88.9176H718.665V71.1255ZM585.331 124.502H567.582L567.582 142.251H549.79V124.459H567.582L567.582 106.71H585.374V124.459H603.123V142.251H585.331V124.502ZM532.041 142.251H549.833V160.043H532.041V142.251ZM620.916 142.251H603.123V160.043H620.916V142.251ZM736.414 35.5843V17.7921V0H718.665V17.7921V35.5843V53.3333H736.414V35.5843Z" fill="#EDEDED"/>
<path fill-rule="evenodd" clip-rule="evenodd" d="M83.9633 127.905L64.491 137.426C71.47 150.738 87.6251 157.846 104.728 157.846C128.939 157.846 146.688 142.682 146.688 117.006V39.8923H125.622V47.0005C118.944 41.4432 110.242 38.126 100.592 38.126C77.9751 38.126 60.7 56.6505 60.7 79.9138C60.7 103.177 77.932 121.874 100.592 121.874C110.242 121.874 118.988 118.557 125.622 112.999V116.963C125.622 129.025 117.695 136.607 104.728 136.607C95.2072 136.607 87.7543 133.592 83.9633 127.905ZM124.329 79.9569C124.329 91.5024 114.981 100.851 103.436 100.851C91.89 100.851 82.5416 91.3731 82.5416 79.9569C82.5416 68.5406 91.89 59.1922 103.436 59.1922C114.981 59.1922 124.329 68.4114 124.329 79.9569ZM191.319 38.126C168.702 38.126 151.427 56.7797 151.427 79.9138V80C151.427 103.263 168.659 121.96 191.319 121.96C201.142 121.96 209.715 118.643 216.349 113.086V120.194H237.588V39.8923H216.349V47.0005C209.672 41.4432 201.142 38.126 191.319 38.126ZM215.057 79.9569C215.057 91.5024 205.708 100.851 194.163 100.851C182.617 100.851 173.269 91.3731 173.269 79.9569C173.269 68.5406 182.617 59.1922 194.163 59.1922C205.708 59.1922 215.057 68.4114 215.057 79.9569ZM245.514 39.8492H266.753V46.3543C271.836 41.1416 278.643 38.126 286.871 38.126C299.838 38.126 309.359 43.511 315.046 52.0409C321.551 43.3387 330.899 38.126 342.617 38.126C366.354 38.126 378.072 56.1766 378.072 78.6645V120.151H356.833V78.6645C356.833 68.8422 351.276 59.1922 339.731 59.1922C327.539 59.1922 322.326 69.9623 322.326 81.6801V120.151H301.26V78.6645C301.26 68.8422 295.573 59.1922 283.985 59.1922C271.793 59.1922 266.71 69.9623 266.71 81.6801V120.151H245.471V39.8492H245.514ZM406.634 42.3911C386.042 52.2134 376.952 77.2861 386.904 98.1369C396.941 119.16 423.134 127.345 443.985 117.394C459.02 110.199 467.421 98.4816 468.411 83.9635H448.939C447.604 90.0378 443.683 95.7675 435.541 99.6447C426.279 104.082 417.361 102.014 411.115 95.509L464.276 70.1348C456.177 41.7449 427.916 32.2242 406.634 42.3911ZM437.624 64.0307C432.197 58.2361 424.195 55.7534 415.078 60.0971C406.936 63.9743 403.619 72.0734 404.222 80.0001L437.624 64.0307Z" fill="#EDEDED"/>
</svg>
