<svg xmlns="http://www.w3.org/2000/svg" xmlns:xlink="http://www.w3.org/1999/xlink" xmlns:inkscape="http://www.inkscape.org/namespaces/inkscape" version="1.1" width="841.89" height="595.276" viewBox="0 0 841.89 595.276">
<defs>
<clipPath id="clip_0">
<path transform="matrix(1,0,0,-1,0,595.276)" d="M0 595.276H841.89V0H0Z"/>
</clipPath>
</defs>
<g inkscape:groupmode="layer" inkscape:label="Layer 1">
<g clip-path="url(#clip_0)">
<path transform="matrix(1,0,0,-1,735.8687,431.83869)" d="M0 0C-19.12 37.855-28.025 77.439-28.025 124.573-28.025 151.622-24.23 178.566-16.746 204.657L-16.742 204.669C-16.362 206.018-15.972 207.304-15.581 208.591L-15.172 209.957C-15.036 210.415-14.9 210.873-14.763 211.313-14.669 211.608-14.575 211.894-14.481 212.18L-14.284 212.785C-10.338 225.192-5.492 237.604 .119 249.677L2.07 253.874-158.419 253.872C-193.496 313.885-251.882 349.653-314.924 349.653-377.966 349.653-436.352 313.885-471.429 253.872L-631.918 253.874-629.967 249.677C-624.357 237.61-619.511 225.198-615.56 212.772L-615.37 212.191C-615.275 211.901-615.18 211.612-615.088 211.322-614.945 210.864-614.807 210.396-614.668 209.93L-614.283 208.645C-613.887 207.34-613.491 206.038-613.103 204.657-605.617 178.564-601.822 151.62-601.822 124.573-601.822 77.439-610.728 37.855-629.847 0L-632.011-4.284H-459.122C-423.222-53.22-370.747-81.253-314.923-81.253-259.101-81.253-206.625-53.22-170.727-4.284H2.163Z" fill="#ffffff"/>
<path transform="matrix(1,0,0,-1,561.2476,431.4402)" d="M0 0 .884 1.224H167.232C165.763 4.261 164.381 7.317 163.039 10.381H-.313-3.568L-5.476 7.742C-39.62-39.495-87.043-66.586-140.301-66.587H-140.303-140.305C-193.563-66.586-240.986-39.495-275.131 7.742L-277.038 10.381H-280.294-443.644C-444.986 7.317-446.368 4.261-447.837 1.224H-281.489L-280.605 0C-245.81-48.138-194.672-75.745-140.303-75.745-85.935-75.745-34.796-48.138 0 0M12.792 247.568 11.94 249.05C-21.972 308.098-78.885 343.35-140.302 343.35-201.72 343.35-258.633 308.098-292.546 249.05L-293.397 247.568-448.076 247.57C-446.717 244.535-445.411 241.479-444.15 238.411L-291.651 238.41H-287.963L-286.126 241.608C-252.855 299.538-200.558 334.138-140.435 334.189V334.193H-140.021V334.19C-79.891 334.146-27.586 299.544 5.689 241.608L7.525 238.41H11.213L163.545 238.411C164.806 241.479 166.112 244.534 167.471 247.57ZM152.197 205.88C144.562 179.261 140.691 151.773 140.691 124.175 140.691 82.392 147.591 46.402 162.216 12.29H-4.543L-7.028 8.861C-40.805-37.87-87.663-64.675-140.303-64.676-192.944-64.675-239.802-37.87-273.579 8.861L-276.064 12.29H-442.821C-428.196 46.402-421.296 82.392-421.296 124.175-421.296 151.772-425.168 179.265-432.801 205.874-433.197 207.28-433.604 208.62-434.011 209.962L-434.386 211.21C-434.532 211.705-434.679 212.199-434.833 212.693-434.935 213.013-435.036 213.323-435.138 213.633L-435.315 214.176C-437.69 221.643-440.39 229.108-443.374 236.501L-286.858 236.499-284.465 240.657C-251.524 298.018-199.808 332.266-140.332 332.278H-140.106C-80.629 332.266-28.914 298.018 4.027 240.657L6.42 236.499 162.769 236.501C159.785 229.108 157.085 221.647 154.714 214.189L154.529 213.625C154.429 213.317 154.327 213.01 154.225 212.684 154.076 212.208 153.932 211.722 153.788 211.237L153.389 209.906C152.988 208.585 152.588 207.265 152.197 205.88" fill="#c20f30"/>
<path transform="matrix(1,0,0,-1,562.1141,425.7365)" d="M0 0C-.03-.044-.064-.085-.094-.128-.048-.151 .013-.165 .088-.172 .09-.038 .131 .189 0 0" fill="#ffffff"/>
<path transform="matrix(1,0,0,-1,185.8059,345.83583)" d="M0 0H-17.229L-19.125 .103-13.576-1.896H1.896L8.015 21.733H5.533ZM71.909 2.531 71.906 2.537 47.036 96.843 45.069 99.387 44.102 100.547 70.73-.376H54.187L53.455-.362H51.493L55.82-2.278H73.223L71.908 2.53ZM246.027 39.717V39.716L245.141 29.81H203.461C203.482 29.802 203.494 29.798 203.516 29.791 204.325 29.573 205.133 29.359 205.943 29.148 207.573 28.725 209.228 28.254 210.913 28.105 211.844 28.023 212.775 27.963 213.705 27.907H246.88L247.838 38.643V38.644C248.732 48.649 246.027 55.175 246.027 55.175 246.96 46.498 246.028 39.725 246.027 39.717M246.328 13.978 246.219 17.323 244.094 21.696 244.139 20.287C244.148 20.288 244.141 20.29 244.152 20.292L244.154 20.231 244.141 20.236 244.143 20.176C244.155 20.178 244.148 20.179 244.156 20.181L244.489 10.966 244.605 7.755 244.83 1.514C241.183 .736 237.613 .145 234.087-.355 230.054-.926 226.095-1.348 222.255-1.553 219.029-2.009 215.035-2.136 212.605-2.239 210.414-2.394 205.951-2.179 205.866-2.528 205.81-2.761 210.802-3.224 211.21-3.473 211.558-3.497 211.906-3.52 212.261-3.538 213.292-3.566 214.879-3.605 216.215-3.635 218.498-3.631 220.821-3.558 223.183-3.417 230.236-2.995 237.624-1.971 245.238-.346L246.784-.018 246.449 10.273ZM337.959 14.123 337.851 17.468 335.725 21.841 335.771 20.431C335.779 20.433 335.772 20.434 335.784 20.436L335.785 20.375C335.78 20.377 335.778 20.378 335.772 20.38L335.774 20.32C335.786 20.322 335.779 20.324 335.787 20.325L336.12 11.11 336.236 7.9 336.461 1.658C332.814 .88 329.245 .29 325.718-.21 321.686-.782 317.726-1.204 313.886-1.408 310.66-1.865 306.666-1.991 304.236-2.094 302.045-2.249 297.582-2.034 297.497-2.383 297.441-2.616 302.433-3.079 302.841-3.329 303.19-3.352 303.537-3.376 303.892-3.394 304.923-3.421 306.51-3.46 307.846-3.49 310.129-3.486 312.453-3.414 314.814-3.272 321.867-2.85 329.255-1.826 336.87-.201L338.416 .127 338.08 10.417ZM413.423 54.004C413.331 54.349 413.216 54.719 413.111 55.076L413.101 55.161 413.042 55.313C412.32 57.75 411.348 60.426 409.987 63.139 409.987 63.139 411.023 59.864 411.927 55.581 412.658 51.615 413.387 45.154 412.85 36.644 412.021 25.99 409.589 17.555 405.664 11.579 402.083 6.129 395.615 1.66 387.699-.368 387.496-.424 387.292-.478 387.086-.531 386.914-.572 386.731-.581 386.565-.642 383.507-1.769 376.882-1.948 373.433-2.094 371.243-2.249 366.779-2.034 366.694-2.383 366.636-2.628 372.149-3.126 372.075-3.365 372.759-3.39 378.672-3.535 379.378-3.536 392.074-3.538 401.89 2.2 407.18 10.252 411.642 17.044 414.195 26.713 414.814 39.022 415.063 45.219 414.472 49.207 414.247 50.451 414.036 51.518 413.772 52.706 413.423 54.004M386.825 23.74C384.748 20.126 380.539 18.292 374.322 18.292 369.431 18.292 365.754 19.459 363.392 21.761 362.729 22.406 362.214 23.055 361.818 23.744 361.091 25.006 360.488 26.563 359.978 28.505 359.023 32.139 358.54 36.902 358.54 42.656 358.54 51.408 359.709 57.659 362.015 61.236 364.237 64.683 368.377 66.43 374.322 66.43 379.794 66.43 383.752 64.923 386.089 61.951 386.346 61.637 386.498 61.444 386.634 61.234 387.041 60.599 387.418 59.843 387.819 58.85 389.337 55.102 390.107 49.654 390.107 42.656 390.107 33.886 389.003 27.522 386.825 23.74M408.255 42.508C408.255 45.602 408.094 48.615 407.774 51.468 407.267 55.977 406.341 60.051 405.024 63.574 403.814 66.809 402.27 69.624 400.432 71.943 395.19 78.56 386.405 81.916 374.322 81.916 362.238 81.916 353.454 78.56 348.214 71.943 343.023 65.391 340.39 55.487 340.39 42.508 340.39 29.532 342.943 19.585 347.978 12.945 348.844 11.798 349.943 10.674 351.334 9.505 352.886 8.204 354.677 7.076 356.658 6.153 361.432 3.931 367.376 2.805 374.322 2.805 386.704 2.805 395.57 6.216 400.668 12.943 405.702 19.587 408.255 29.534 408.255 42.508M488.586 81.694 489.019 73.43V-25.462H473.069 471.166L478.24-27.365H490.922V75.167ZM464.47 21.215C459.917 19.762 455.333 19.03 450.82 19.03 446.844 19.03 443.835 20.193 441.622 22.588 441.139 23.112 440.76 23.588 440.429 24.09 439.591 25.35 438.889 27.018 438.344 29.044 437.426 32.45 436.96 36.879 436.96 42.212 436.96 50.758 438.272 56.975 440.862 60.69 443.376 64.302 448.421 66.134 455.852 66.134 457.94 66.134 460.765 66.004 464.247 65.749L466.01 65.621V21.734ZM466.01-20.653H483.864V80.059L478.126 80.581C468.177 81.466 460.683 81.916 455.852 81.916 442.429 81.916 432.814 78.954 427.279 73.115 421.758 67.29 418.958 56.968 418.958 42.435 418.958 27.93 421.342 17.601 426.045 11.739 426.844 10.743 427.835 9.76 429.072 8.736 430.559 7.509 432.255 6.46 434.111 5.618 438.225 3.75 443.2 2.805 448.897 2.805 453.33 2.805 458.225 3.789 463.444 5.731L466.01 6.684ZM330.98 21.706 329.928 21.535C320.957 20.071 311.947 19.327 303.151 19.327 295.85 19.327 290.547 21.208 287.386 24.915 286.864 25.526 286.429 26.137 286.057 26.78 285.022 28.56 284.145 31.021 283.454 34.083 282.22 39.555 281.596 46.943 281.596 56.048 281.596 70.354 283.146 76.835 286.201 81.946 289.159 86.894 294.962 89.404 303.448 89.404 312.22 89.404 321.126 88.613 329.917 87.05L330.971 86.864 331.642 102.027 330.885 102.203C320.299 104.674 310.47 105.927 301.672 105.927 286.713 105.927 276.347 101.779 270.856 93.598 265.449 85.539 262.708 75.261 262.708 56.418 262.708 37.576 265.421 23.815 270.774 15.516 271.986 13.636 273.493 11.921 275.258 10.416 276.93 8.989 278.859 7.747 280.99 6.727 286.422 4.124 293.378 2.805 301.672 2.805 310.762 2.805 320.536 3.906 330.722 6.081L331.487 6.244ZM290.27 27.398C289.033 32.758 288.409 40.104 288.409 49.361 288.409 63.498 289.912 71.719 292.876 76.673 295.652 81.315 301.182 81.766 309.308 81.766 318.024 81.766 326.875 80.979 335.61 79.428L337.734 79.052 338.486 96.086 336.962 100.191C336.424 100.317 337.168 100.153 336.634 100.272L336.544 94.594C336.96 94.5 336.098 94.689 336.516 94.592L335.927 81.304C327.088 82.873 318.132 83.668 309.308 83.668 300.465 83.668 294.387 82.907 291.244 77.65 288.1 72.396 286.506 63.846 286.506 49.361 286.506 43.306 287.144 38.045 287.68 33.576 287.986 32.221 288.316 31.101 288.651 30.108 288.907 29.509 289.146 29.039 289.35 28.687 289.605 28.248 289.906 27.827 290.27 27.398M195.314 50.959C195.688 56.169 196.894 60.045 198.897 62.481 201.216 65.298 205.031 66.725 210.232 66.725 215.425 66.725 219.136 65.376 221.262 62.717 221.364 62.589 221.46 62.448 221.555 62.308 222.131 61.48 222.613 60.504 223.021 59.361 223.813 57.133 224.298 54.292 224.467 50.918L224.566 48.92H195.168ZM239.405 20.169 234.326 19.625C226.95 19.032 219.706 18.735 212.748 18.735 206.417 18.735 201.954 19.95 199.482 22.345 199.319 22.486 199.2 22.596 199.096 22.709 198.007 23.924 197.135 25.552 196.498 27.553 196.002 29.112 195.677 30.742 195.504 32.533L195.303 34.618H241.125L242.248 47.265C242.24 49.236 242.118 51.423 241.863 53.779 241.447 57.622 240.644 61.125 239.483 64.191 235.025 75.953 225.184 81.916 210.232 81.916 188.304 81.916 177.186 68.358 177.186 41.619 177.186 28.243 179.669 18.341 184.565 12.186 185.362 11.185 186.358 10.189 187.614 9.139 189.145 7.857 190.903 6.757 192.839 5.865 197.256 3.834 202.662 2.805 208.901 2.805 217.594 2.805 227.711 3.957 238.976 6.227L239.747 6.382ZM130.679 100.936H112.381V4.432H171.073V20.955H130.679ZM137.388 96.128 135.485 100.388 135.529 94.225H135.485V24.761H137.388ZM175.405 14.244H175.403V-.376H118.614V-.362H116.712L125.28-2.278H177.306V10.263L175.405 16.147ZM97.347 27.613H78.162V4.432001H97.347ZM101.685 21.199H101.629V-.078H84.344L82.442 .025 88.009-1.981H103.532V23.102L101.685 26.812ZM7.007 42.558 19.022 86.016H25.022L36.896 42.558ZM4.883 101.651-20.633 4.432H-2.252L3.224 26.182H40.677L46.151 4.432H64.682L39.014 101.651ZM211.125 168.889C211.463 170.463 211.465 172.975 211.052 175.762 210.378 180.312 208.12 183.748 207.657 183.679 207.307 183.627 206.03 179.668 206.704 175.118 207.119 172.317 207.854 169.902 208.639 168.497 209.415 168.709 210.267 168.851 211.125 168.889M259.278 175.762C258.865 172.975 258.867 170.463 259.205 168.889 260.063 168.851 260.915 168.709 261.692 168.497 262.476 169.902 263.211 172.317 263.626 175.118 264.3 179.668 263.023 183.627 262.673 183.679 262.21 183.748 259.952 180.312 259.278 175.762M272.447 163.384C273.082 164.254 273.476 165.318 273.542 166.467 273.725 169.683 271.278 171.646 268.075 171.637 267.272 171.635 266.474 171.506 265.718 171.275 264.039 170.76 262.577 169.738 261.744 168.482 262.433 168.309 263.105 168.068 263.711 167.726 266.965 168.86 269.843 166.88 272.447 163.384M202.255 171.637C199.052 171.646 196.605 169.683 196.788 166.467 196.854 165.318 197.248 164.254 197.883 163.384 200.487 166.88 203.365 168.86 206.619 167.726 207.225 168.068 207.897 168.309 208.586 168.482 207.753 169.738 206.291 170.76 204.612 171.275 203.856 171.506 203.058 171.635 202.255 171.637M218.788 196.16C219.05 196.194 219.291 196.222 219.556 196.185 221.541 195.913 223.066 193.672 224.033 192.145 225.185 190.328 226.083 188.353 226.865 186.353 227.34 185.138 227.781 183.908 228.177 182.666 228.267 182.384 228.351 182.101 228.436 181.818 228.973 182.202 229.58 182.539 230.249 182.821 230.132 183.385 229.998 183.946 229.904 184.482 229.737 185.428 229.544 186.368 229.33 187.304 228.869 189.323 228.316 191.327 227.588 193.266 226.386 196.464 224.593 199.886 221.399 201.471 219.143 202.589 215.258 202.868 214.929 199.486 214.704 197.187 216.728 195.89 218.788 196.16M240.806 186.623C240.584 185.601 240.395 184.573 240.215 183.543 240.183 183.364 240.12 183.107 240.051 182.816 240.74 182.524 241.363 182.176 241.91 181.777 242.049 182.291 242.15 182.787 242.244 183.076 242.603 184.179 243.001 185.272 243.424 186.353 244.606 189.376 246.063 192.723 248.514 194.955 249.122 195.509 249.865 196.055 250.701 196.181 251.173 196.252 251.573 196.107 252.044 196.073 254.434 195.9 256.122 198.503 255.023 200.622 253.712 203.149 250.334 202.351 248.352 201.178 246.867 200.3 245.696 198.985 244.774 197.542 242.686 194.276 241.623 190.374 240.806 186.623M231.447 187.788C231.677 186.785 231.877 185.8 232.043 184.859 232.099 184.537 232.172 184.207 232.245 183.872 232.274 183.742 232.303 183.605 232.331 183.47 233.219 183.661 234.16 183.775 235.144 183.775 236.135 183.775 237.081 183.659 237.974 183.466 237.977 183.479 237.98 183.493 237.983 183.505 238.021 183.669 238.057 183.811 238.077 183.918 238.241 184.861 238.443 185.974 238.684 187.084 239.495 190.807 240.635 195.1 242.945 198.712 243.78 200.018 244.728 201.096 245.762 201.967L243.575 204.707C241.494 202.397 238.491 200.933 235.144 200.933 231.798 200.933 228.795 202.396 226.714 204.706L224.542 201.983C227.221 199.742 228.698 196.486 229.62 194.03 230.308 192.2 230.906 190.158 231.447 187.788M256.123 172.69C255.463 173.125 254.734 173.474 253.964 173.702 250.893 174.612 247.992 173.417 247.262 170.279 247.002 169.159 247.081 168.027 247.445 167.014 250.928 169.635 254.247 170.725 257.05 168.721 257.728 168.878 258.44 168.92 259.15 168.893 258.704 170.332 257.589 171.724 256.123 172.69M222.885 167.014C223.249 168.027 223.328 169.159 223.068 170.279 222.338 173.417 219.437 174.612 216.366 173.702 215.597 173.474 214.867 173.125 214.207 172.69 212.741 171.724 211.626 170.332 211.18 168.893 211.89 168.92 212.602 168.878 213.28 168.721 216.083 170.725 219.403 169.635 222.885 167.014M239.285 167.884 244.88 165.221C245.138 168.549 245.137 171.884 244.88 175.225L239.471 172.651C239.871 171.528 239.785 170.484 239.655 169.736 239.589 169.102 239.451 168.487 239.285 167.884M225.427 175.225C225.169 171.884 225.168 168.549 225.427 165.221L231.021 167.884C230.854 168.487 230.717 169.102 230.651 169.737 230.521 170.484 230.436 171.529 230.835 172.651ZM235.181 175.806C236.176 175.837 237.14 175.489 237.933 174.846L240.887 180.26C237.057 180.518 233.234 180.519 229.419 180.26L232.376 174.842C233.174 175.484 234.151 175.83 235.181 175.806M262.727 166.719C261.001 167.478 258.435 167.952 256.612 167.21 256.063 166.986 255.857 166.276 256.201 165.794 256.505 165.366 256.922 165.401 257.373 165.481 257.605 165.523 257.833 165.569 258.068 165.598 258.532 165.654 258.997 165.67 259.464 165.639 260.287 165.584 261.098 165.392 261.858 165.073 262.396 164.847 263.054 164.285 263.644 164.541 264.587 164.95 264.182 165.954 263.498 166.336 263.248 166.476 262.99 166.604 262.727 166.719M206.645 164.541C207.235 164.285 207.892 164.847 208.43 165.073 209.191 165.392 210.002 165.584 210.825 165.639 211.292 165.67 211.757 165.654 212.22 165.598 212.455 165.569 212.684 165.523 212.916 165.481 213.366 165.401 213.784 165.366 214.088 165.794 214.432 166.276 214.226 166.986 213.677 167.21 211.854 167.952 209.287 167.478 207.562 166.719 207.299 166.604 207.04 166.476 206.79 166.336 206.107 165.954 205.702 164.95 206.645 164.541M279.735 163.992C279.513 163.353 279.481 162.656 279.652 162.001 279.676 161.91 279.75 161.663 279.879 161.481 280.017 161.286 280.21 161.155 280.194 161.081 280.179 161.011 279.138 160.25 278.789 160.057 278.017 159.63 277.156 159.23 276.298 159.01 274.441 158.533 272.39 158.492 270.507 158.818 268.616 159.144 266.834 159.892 265.216 160.915 264.748 161.211 264.297 161.532 263.856 161.867 263.706 161.981 263.563 162.104 263.417 162.222 262.702 162.79 262.067 163.25 261.463 163.581 260.053 164.353 258.679 164.384 256.882 163.688 256.394 163.499 255.881 163.267 255.319 162.969 252.054 161.537 248.435 160.45 245.042 161.381 243.544 161.792 242.187 162.566 240.893 163.422 239.79 164.152 238.731 164.943 237.669 165.729 237.428 165.907 237.353 165.977 237.354 166.107 237.751 167.332 238.23 168.624 238.355 169.906 238.526 170.864 238.514 171.82 237.991 172.756 237.331 173.939 236.232 174.518 235.144 174.495 234.057 174.518 232.958 173.939 232.297 172.756 231.774 171.82 231.763 170.864 231.933 169.906 232.058 168.624 232.537 167.332 232.934 166.107 232.936 165.977 232.861 165.907 232.619 165.729 231.557 164.943 230.498 164.152 229.396 163.422 228.102 162.566 226.744 161.792 225.247 161.381 221.853 160.45 218.235 161.537 214.969 162.969 214.408 163.267 213.895 163.499 213.407 163.688 211.609 164.384 210.235 164.353 208.826 163.581 208.222 163.25 207.587 162.79 206.872 162.222 206.725 162.104 206.583 161.981 206.433 161.867 205.992 161.532 205.541 161.211 205.072 160.915 203.454 159.892 201.673 159.144 199.782 158.818 197.899 158.492 195.847 158.533 193.991 159.01 193.132 159.23 192.271 159.63 191.5 160.057 191.151 160.25 190.11 161.011 190.094 161.081 190.078 161.155 190.271 161.286 190.41 161.481 190.539 161.663 190.612 161.91 190.636 162.001 190.808 162.656 190.775 163.353 190.554 163.992 189.684 166.499 186.259 167.278 184.474 165.259 183.737 164.426 183.516 163.274 183.538 162.197 183.569 160.661 184.27 159.252 185.352 158.185 186.454 157.1 187.908 156.418 189.352 155.899 191.979 154.953 194.803 154.365 197.603 154.415 202.535 154.501 207.008 156.7 210.641 159.945 211.075 160.332 211.139 160.187 211.677 159.944 212.157 159.727 212.64 159.516 213.126 159.312 214.005 158.944 214.893 158.597 215.794 158.285 217.298 157.764 218.84 157.33 220.414 157.081 222.283 156.785 224.205 156.772 226.059 157.13 228.982 157.694 231.633 159.201 234.17 160.753L234.171 160.752C234.82 161.027 235.469 161.027 236.118 160.752 238.656 159.201 241.307 157.694 244.23 157.13 246.084 156.772 248.006 156.785 249.874 157.081 251.448 157.33 252.991 157.764 254.495 158.285 255.396 158.597 256.284 158.944 257.163 159.312 257.649 159.516 258.132 159.727 258.612 159.944 259.149 160.187 259.214 160.332 259.647 159.945 263.28 156.7 267.753 154.501 272.685 154.415 275.486 154.365 278.31 154.953 280.936 155.899 282.38 156.418 283.834 157.1 284.936 158.185 286.019 159.252 286.72 160.661 286.751 162.197 286.773 163.274 286.552 164.426 285.815 165.259 284.029 167.278 280.604 166.499 279.735 163.992M232.546 226.485C232.546 225.05 233.709 223.886 235.144 223.886 236.579 223.886 237.743 225.05 237.743 226.485 237.743 227.92 236.579 229.083 235.144 229.083 233.709 229.083 232.546 227.92 232.546 226.485M239.909 226.485C239.909 225.398 239.49 224.415 238.819 223.635L243.175 220.839C243.438 222.322 243.705 224.385 243.705 226.486 243.705 227.996 243.562 229.503 243.386 230.783L239.283 228.691C239.676 228.039 239.909 227.291 239.909 226.485M231.471 223.634C230.799 224.414 230.38 225.398 230.38 226.485 230.38 227.291 230.612 228.039 231.005 228.691L226.902 230.783C226.725 229.507 226.584 228.007 226.584 226.483 226.584 224.399 226.854 222.314 227.113 220.836ZM235.144 231.013C236.231 231.013 237.214 230.614 237.994 229.977L240.79 234.117C239.307 234.367 237.244 234.62 235.143 234.62 233.058 234.62 230.973 234.364 229.496 234.117L232.293 229.976C233.074 230.614 234.058 231.013 235.144 231.013M251.013 193.124C250.726 192.987 250.062 192.471 248.823 190.517 248.12 189.41 247.47 188.14 246.814 186.607 254.108 187.905 271.276 191.194 282.369 195.189L293.14 182.083 284.925 168.321C285.883 168.024 286.753 167.476 287.441 166.698 288.133 165.915 288.586 164.923 288.792 163.784L300.024 182.599 284.11 201.962C276.775 198.643 262.847 195.394 251.013 193.124M177.148 182.083 187.92 195.189C199.013 191.194 216.181 187.905 223.474 186.607 222.819 188.14 222.168 189.41 221.466 190.517 220.227 192.471 219.563 192.987 219.276 193.124 207.442 195.394 193.513 198.643 186.178 201.962L170.265 182.599 181.496 163.784C181.703 164.923 182.155 165.915 182.847 166.698 183.536 167.476 184.406 168.024 185.363 168.321ZM235.144 203.105C240.219 203.105 244.332 207.218 244.332 212.293 244.332 217.367 240.219 221.481 235.144 221.481 230.07 221.481 225.956 217.367 225.956 212.293 225.956 207.218 230.07 203.105 235.144 203.105M271.762 140.75C271.258 140.845 270.75 140.926 270.245 141.011 269.776 141.091 269.304 141.156 268.835 141.236 268.163 141.35 267.493 141.469 266.818 141.565 266.674 141.586 266.529 141.604 266.385 141.625 265.72 141.729 265.061 141.854 264.393 141.942 263.318 142.084 262.234 142.209 261.156 142.347 260.996 142.367 260.838 142.393 260.677 142.413 260.576 142.425 260.473 142.433 260.372 142.445 259.734 142.523 259.102 142.616 258.46 142.684 257.808 142.752 257.143 142.788 256.487 142.852 255.895 142.91 255.311 142.985 254.715 143.038 253.651 143.133 252.584 143.197 251.519 143.276 250.813 143.328 250.113 143.412 249.408 143.456 247.167 143.595 244.923 143.691 242.677 143.758 242.588 143.761 242.499 143.767 242.409 143.77 240.737 143.819 239.065 143.839 237.393 143.849 237.29 143.849 237.187 143.854 237.084 143.854 236.446 143.855 235.808 143.852 235.17 143.852 234.532 143.852 233.894 143.855 233.256 143.854 233.153 143.854 233.051 143.849 232.948 143.849 231.276 143.839 229.604 143.819 227.932 143.77 227.842 143.767 227.753 143.761 227.663 143.758 225.418 143.691 223.174 143.595 220.932 143.456 220.227 143.412 219.528 143.328 218.822 143.276 217.757 143.197 216.69 143.133 215.625 143.038 215.03 142.985 214.446 142.91 213.854 142.852 213.198 142.788 212.533 142.752 211.881 142.684 211.238 142.616 210.607 142.523 209.969 142.445 209.868 142.433 209.764 142.425 209.663 142.413 209.503 142.393 209.345 142.367 209.185 142.347 208.106 142.209 207.023 142.084 205.948 141.942 205.28 141.854 204.621 141.729 203.956 141.625 203.812 141.604 203.667 141.586 203.523 141.565 202.848 141.469 202.178 141.35 201.506 141.236 201.037 141.156 200.565 141.091 200.096 141.011 199.59 140.926 199.083 140.845 198.579 140.75 198.376 140.712 197.164 140.443 195.587 140.066L198.812 131.084C199.247 131.181 199.556 131.251 199.741 131.293 200.16 131.393 200.588 131.468 201.007 131.56 202.012 131.784 203.025 131.965 204.033 132.173 206.029 132.584 208.044 132.921 210.063 133.236 212.036 133.544 214.015 133.845 216.014 134.096 218.88 134.455 221.79 134.761 224.691 134.974 228.175 135.231 231.677 135.392 235.17 135.398 238.663 135.392 242.166 135.231 245.65 134.974 248.551 134.761 251.461 134.455 254.327 134.096 256.326 133.845 258.305 133.544 260.278 133.236 262.297 132.921 264.312 132.584 266.308 132.173 267.315 131.965 268.329 131.784 269.334 131.56 269.754 131.467 270.182 131.393 270.601 131.293 270.786 131.25 271.095 131.181 271.529 131.084L274.753 140.066C273.177 140.443 271.965 140.712 271.762 140.75M264.548 128.404C264.02 128.435 263.423 128.228 262.91 128.133 262.418 128.042 261.923 127.964 261.43 127.877 260.446 127.705 259.462 127.542 258.474 127.389 256.49 127.08 254.498 126.841 252.507 126.575 248.551 126.047 244.513 125.816 240.517 125.674 236.542 125.532 232.559 125.539 228.586 125.713 224.593 125.889 220.611 126.234 216.654 126.723 214.655 126.97 212.675 127.285 210.685 127.574 209.693 127.718 208.715 127.923 207.728 128.086 206.698 128.256 205.104 128.84 204.612 127.617 204.387 127.06 204.69 126.422 205.304 126.165 205.772 125.969 206.374 125.937 206.879 125.844 207.901 125.655 208.928 125.489 209.95 125.302 211.96 124.934 214.006 124.681 216.037 124.414 220.068 123.885 224.147 123.571 228.217 123.386 232.273 123.201 236.338 123.168 240.397 123.306 244.47 123.445 248.534 123.757 252.575 124.216 256.662 124.681 260.728 125.296 264.752 126.075 266.249 126.365 266.067 128.315 264.548 128.404M279.719 148.518C273.654 149.873 267.525 150.943 261.364 151.752 255.274 152.551 249.148 153.093 243.008 153.335 236.89 153.576 230.762 153.518 224.649 153.197 218.514 152.875 212.366 152.329 206.29 151.408 203.228 150.944 200.145 150.504 197.115 149.864 195.574 149.539 194.026 149.249 192.486 148.92 191.725 148.758 190.817 148.704 190.112 148.363 189.38 148.009 188.961 147.243 188.976 146.458 188.958 146.192 188.982 145.922 189.073 145.66 189.816 143.534 192.219 144.549 193.771 144.845 195.259 145.128 196.733 145.485 198.227 145.735 201.227 146.238 204.212 146.787 207.224 147.216 213.189 148.066 219.191 148.667 225.21 148.972 231.2 149.276 237.203 149.287 243.194 149.041 249.217 148.794 255.304 148.391 261.267 147.473 264.268 147.011 267.27 146.594 270.261 146.058 271.75 145.791 273.233 145.508 274.716 145.208 275.46 145.058 276.206 144.921 276.948 144.762 277.72 144.598 278.621 144.238 279.416 144.292 280.623 144.374 281.252 145.353 281.264 146.336 281.348 147.274 280.858 148.264 279.719 148.518M221.106-53.515V-35.734H227.199L231.485-50.376H231.748V-35.734H235.355V-53.515H229.419L224.976-38.872H224.713V-53.515ZM193.637-49.318C194.151-50.233 195.115-50.691 196.526-50.691 197.937-50.691 198.901-50.233 199.416-49.318 199.93-48.402 200.187-46.87 200.187-44.716 200.187-42.563 199.925-40.999 199.402-40.023 198.879-39.047 197.921-38.558 196.526-38.558 195.132-38.558 194.173-39.047 193.65-40.023 193.128-40.999 192.865-42.563 192.865-44.716 192.865-46.87 193.122-48.402 193.637-49.318M202.24-51.619C201.132-53.092 199.229-53.829 196.526-53.829 193.824-53.829 191.92-53.092 190.813-51.619 189.705-50.146 189.153-47.84 189.153-44.703 189.153-41.565 189.705-39.233 190.813-37.708 191.92-36.183 193.824-35.421 196.526-35.421 199.229-35.421 201.132-36.183 202.24-37.708 203.347-39.233 203.9-41.565 203.9-44.703 203.9-47.84 203.347-50.146 202.24-51.619M168.914-46.455C168.949-45.898 168.965-45.126 168.965-44.14 168.965-43.156 168.93-42.367 168.862-41.775 168.792-41.182 168.627-40.641 168.364-40.153 168.104-39.665 167.714-39.33 167.202-39.147 166.688-38.963 165.994-38.872 165.123-38.872H162.742V-50.376H165.123C166.43-50.376 167.381-50.046 167.971-49.384 168.478-48.844 168.792-47.866 168.914-46.455M165.123-53.515H159.135V-35.734H165.123C166.655-35.734 167.92-35.895 168.914-36.218 169.908-36.54 170.679-37.072 171.229-37.813 171.776-38.554 172.155-39.426 172.366-40.428 172.575-41.43 172.68-42.733 172.68-44.337 172.68-45.941 172.583-47.271 172.391-48.324 172.198-49.38 171.838-50.321 171.307-51.148 170.774-51.977 170.002-52.578 168.992-52.953 167.982-53.328 166.691-53.515 165.123-53.515M126.895-53.515V-35.734H132.988L137.274-50.376H137.537V-35.734H141.144V-53.515H135.208L130.765-38.872H130.502V-53.515ZM99.423-49.318C99.938-50.233 100.902-50.691 102.313-50.691 103.723-50.691 104.687-50.233 105.202-49.318 105.716-48.402 105.974-46.87 105.974-44.716 105.974-42.563 105.711-40.999 105.188-40.023 104.666-39.047 103.707-38.558 102.313-38.558 100.918-38.558 99.959-39.047 99.437-40.023 98.914-40.999 98.652-42.563 98.652-44.716 98.652-46.87 98.909-48.402 99.423-49.318M108.026-51.619C106.919-53.092 105.015-53.829 102.313-53.829 99.61-53.829 97.706-53.092 96.599-51.619 95.491-50.146 94.939-47.84 94.939-44.703 94.939-41.565 95.491-39.233 96.599-37.708 97.706-36.183 99.61-35.421 102.313-35.421 105.015-35.421 106.919-36.183 108.026-37.708 109.134-39.233 109.686-41.565 109.686-44.703 109.686-47.84 109.134-50.146 108.026-51.619M79.539-53.515H69.42V-35.734H73.027V-50.325H79.539ZM393.333-47.579C393.333-49.654 394.389-50.691 396.499-50.691 398.605-50.691 399.661-49.654 399.661-47.579V-35.734H403.271V-47.501C403.271-49.68 402.708-51.28 401.584-52.299 400.46-53.319 398.762-53.829 396.499-53.829 394.232-53.829 392.537-53.319 391.41-52.299 390.287-51.28 389.726-49.68 389.726-47.501V-35.734H393.333ZM360.413-38.923V-35.734H373.487V-38.923H368.78V-53.515H365.171V-38.923ZM340.54-43.682C340.959-43.16 341.168-42.472 341.168-41.618 341.168-40.763 340.946-40.084 340.502-39.577 340.055-39.072 339.416-38.819 338.579-38.819H335.284V-44.468H338.631C339.486-44.468 340.123-44.206 340.54-43.682M335.284-47.553V-53.515H331.677V-35.734H338.579C342.763-35.734 344.853-37.686 344.853-41.591 344.853-43.91 343.982-45.619 342.24-46.717L344.775-53.515H340.827L338.761-47.553ZM307.121-38.715 305.318-47.161H310.181L308.375-38.715ZM300.322-53.515 304.324-35.734H311.175L315.175-53.515H311.565L310.861-50.299H304.635L303.932-53.515ZM273.313-38.923V-35.734H286.387V-38.923H281.681V-53.515H278.071V-38.923ZM255.296-42.126C253.707-42.126 252.419-43.414 252.419-45.003 252.419-46.591 253.707-47.879 255.296-47.879 256.884-47.879 258.172-46.591 258.172-45.003 258.172-43.414 256.884-42.126 255.296-42.126M46.165-42.126C44.577-42.126 43.289-43.414 43.289-45.003 43.289-46.591 44.577-47.879 46.165-47.879 47.754-47.879 49.041-46.591 49.041-45.003 49.041-43.414 47.754-42.126 46.165-42.126M424.124-42.126C422.535-42.126 421.247-43.414 421.247-45.003 421.247-46.591 422.535-47.879 424.124-47.879 425.712-47.879 427-46.591 427-45.003 427-43.414 425.712-42.126 424.124-42.126M272.706-89.297V-86.083H283.741V-90.161L277.596-103.654 274.249-102.712 280.134-90.137V-89.297ZM252.443-94.724C252.443-92.571 252.215-91.063 251.763-90.202 251.308-89.338 250.547-88.907 249.475-88.907 248.402-88.907 247.633-89.34 247.173-90.212 246.71-91.084 246.48-92.593 246.48-94.737 246.48-96.882 246.715-98.38 247.187-99.235 247.658-100.091 248.424-100.516 249.485-100.516 250.55-100.516 251.308-100.091 251.763-99.235 252.215-98.38 252.443-96.879 252.443-94.724M244.454-87.911C245.578-86.484 247.246-85.769 249.461-85.769 251.674-85.769 253.344-86.484 254.468-87.911 255.592-89.34 256.155-91.639 256.155-94.802 256.155-97.968 255.597-100.232 254.482-101.602 253.366-102.972 251.692-103.654 249.461-103.654 247.23-103.654 245.556-102.972 244.441-101.602 243.325-100.232 242.767-97.968 242.767-94.802 242.767-91.639 243.328-89.34 244.454-87.911M220.698-89.01C219.912-89.01 219.311-89.184 218.894-89.536 218.475-89.882 218.266-90.413 218.266-91.128 218.266-91.843 218.691-92.498 219.547-93.088H221.849C222.702-92.498 223.129-91.818 223.129-91.052 223.129-89.693 222.317-89.01 220.698-89.01M217.979-98.109C217.979-99.647 218.881-100.411 220.684-100.411 222.488-100.411 223.389-99.647 223.389-98.109 223.389-97.204 222.875-96.549 221.849-96.148H219.547C218.502-96.549 217.979-97.204 217.979-98.109M216.094-87.012C217.229-86.183 218.745-85.769 220.644-85.769 222.545-85.769 224.08-86.189 225.247-87.023 226.414-87.862 226.999-89.021 226.999-90.499 226.999-91.512 226.877-92.271 226.633-92.777 226.39-93.283 225.883-93.841 225.117-94.45 225.883-95.095 226.433-95.704 226.763-96.281 227.094-96.855 227.262-97.648 227.262-98.661 227.262-100.367 226.65-101.629 225.431-102.439 224.21-103.248 222.615-103.654 220.644-103.654 216.287-103.654 214.107-102.084 214.107-98.948 214.107-97.833 214.277-96.966 214.618-96.346 214.957-95.726 215.512-95.095 216.278-94.45 215.545-93.857 215.049-93.278 214.786-92.709 214.526-92.146 214.396-91.398 214.396-90.475 214.396-88.994 214.962-87.84 216.094-87.012M195.541-86.083V-103.34H191.934V-90.161L188.195-92.568 186.548-89.874 192.248-86.083Z" fill="#ffffff"/>
<g inkscape:groupmode="layer" inkscape:label="tehniline v&#xE4;rviinfo">
</g>
</g>
</g>
</svg>
