<?xml version="1.0" encoding="UTF-8" standalone="no"?>
<!-- Created with Inkscape (http://www.inkscape.org/) -->

<svg
   width="531.33679mm"
   height="111.71188mm"
   viewBox="0 0 531.33679 111.71188"
   version="1.1"
   id="svg1"
   xml:space="preserve"
   inkscape:version="1.3 (0e150ed6c4, 2023-07-21)"
   sodipodi:docname="arvutimuuseum.svg"
   xmlns:inkscape="http://www.inkscape.org/namespaces/inkscape"
   xmlns:sodipodi="http://sodipodi.sourceforge.net/DTD/sodipodi-0.dtd"
   xmlns="http://www.w3.org/2000/svg"
   xmlns:svg="http://www.w3.org/2000/svg"><sodipodi:namedview
     id="namedview1"
     pagecolor="#505050"
     bordercolor="#ffffff"
     borderopacity="1"
     inkscape:showpageshadow="0"
     inkscape:pageopacity="0"
     inkscape:pagecheckerboard="1"
     inkscape:deskcolor="#505050"
     inkscape:document-units="mm"
     inkscape:zoom="0.26173516"
     inkscape:cx="1178.6724"
     inkscape:cy="-490.95429"
     inkscape:window-width="1920"
     inkscape:window-height="1009"
     inkscape:window-x="-8"
     inkscape:window-y="-8"
     inkscape:window-maximized="1"
     inkscape:current-layer="layer1" /><defs
     id="defs1" /><g
     inkscape:label="Kiht 1"
     inkscape:groupmode="layer"
     id="layer1"
     transform="translate(161.81608,-89.188794)"><path
       style="fill:#ffffff;fill-opacity:1"
       d="m -140.14232,199.68805 c -1.05973,-1.05973 -1.19944,-1.41537 -1.19944,-3.05323 0,-1.70384 0.11414,-1.96237 1.41111,-3.19615 1.28208,-1.21961 1.41111,-1.50493 1.41111,-3.12037 v -1.77802 h -5.11528 -5.11528 v 5.29166 5.29167 h -5.64444 -5.64444 v -5.46806 -5.46805 h 5.29166 5.29167 v -4.7625 -4.7625 h -1.77802 c -1.61545,0 -1.90076,0.12903 -3.12038,1.41111 -1.15076,1.20971 -1.55406,1.41111 -2.82561,1.41111 -3.058,0 -4.85516,-1.93129 -4.52477,-4.86248 0.41563,-3.68743 5.03051,-5.04725 7.43425,-2.19057 0.79067,0.93965 1.10442,1.05583 2.85147,1.05583 h 1.96306 v -4.40972 -4.40972 h -1.92787 c -1.58356,0 -1.99711,0.12938 -2.31557,0.72443 -0.56244,1.05094 -2.45467,2.09494 -3.79978,2.09647 -2.57568,0.003 -4.304,-1.8332 -4.304,-4.57246 0,-1.87394 1.68688,-3.82105 3.56948,-4.12012 1.57925,-0.25088 3.74601,0.69583 4.28127,1.87059 0.33214,0.72898 0.61854,0.82609 2.43643,0.82609 h 2.06004 v -4.40973 -4.40972 h -2.06004 c -1.81789,0 -2.10429,0.0971 -2.43643,0.82608 -0.20701,0.45435 -0.9623,1.10412 -1.67842,1.44394 -1.7606,0.83546 -3.49362,0.47925 -5.00071,-1.02784 -0.97456,-0.97456 -1.16952,-1.42973 -1.15912,-2.70621 0.015,-1.8462 0.56679,-2.93372 1.95156,-3.84656 1.8919,-1.24716 4.6836,-0.66538 5.92918,1.23562 0.51334,0.78345 0.83984,0.89997 2.52183,0.89997 h 1.93215 v -4.40972 -4.40972 h -1.96306 c -1.74379,0 -2.06154,0.11705 -2.84489,1.04801 -2.50359,2.97534 -7.53927,1.30305 -7.53927,-2.50371 0,-2.83464 1.73758,-4.54153 4.62321,-4.54153 1.27155,0 1.67485,0.20141 2.82561,1.41112 1.21962,1.28208 1.50493,1.41111 3.12038,1.41111 h 1.77802 v -4.58611 -4.58612 h -1.8147 c -1.64457,0 -1.91747,0.1189 -2.91095,1.26818 -1.34397,1.55475 -3.62303,1.99804 -5.44048,1.0582 -2.25369,-1.16543 -2.92566,-4.56237 -1.2876,-6.50909 1.83768,-2.18397 4.83175,-2.19614 6.65691,-0.0271 0.77096,0.91624 1.0956,1.03478 2.83376,1.03478 h 1.96306 v -5.64444 -5.64444 h 4.23333 4.23333 v -2.46945 -2.46944 h 1.94028 1.94028 v -4.58611 -4.58611 h 6.17361 6.17361 v -2.092898 c 0,-1.806329 -0.0999,-2.124614 -0.7299,-2.324554 -0.40144,-0.127413 -1.03584,-0.733423 -1.40979,-1.34669 -1.5038,-2.466237 -0.33515,-5.651868 2.39237,-6.521335 1.30987,-0.417556 1.63132,-0.394412 3.01346,0.216972 3.00944,1.331219 3.57978,4.80818 1.15581,7.046165 -1.13601,1.048845 -1.24695,1.323481 -1.24695,3.086805 v 1.935535 h 4.40972 4.40972 v -1.963058 c 0,-1.728376 -0.12105,-2.06491 -1.01257,-2.815079 -2.12816,-1.790731 -2.3022,-4.552819 -0.40633,-6.448693 2.76835,-2.768343 7.41613,-0.807244 7.41613,3.129181 0,1.361221 -0.8992,2.954363 -2.00001,3.5435 -0.71679,0.383612 -0.82222,0.703801 -0.82222,2.49709 v 2.057059 h 4.58612 4.58611 l -0.0136,-2.028477 c -0.0127,-1.894208 -0.0886,-2.075634 -1.14653,-2.741003 -2.96414,-1.864214 -2.12874,-6.434114 1.38838,-7.594867 2.539078,-0.837971 5.41618,1.256178 5.41618,3.942262 0,1.634143 -0.768768,3.303397 -1.76754,3.837924 -0.580253,0.310541 -0.701904,0.740349 -0.701904,2.479902 v 2.104259 h 4.409722 4.409722 v -2.092898 c 0,-1.806329 -0.09994,-2.124614 -0.729896,-2.324554 -1.078206,-0.342209 -2.089495,-2.244817 -2.091008,-3.933958 -0.0025,-2.757099 2.839135,-4.863003 5.414861,-4.012937 3.396185,1.120842 4.301251,5.307887 1.632713,7.553314 -0.935027,0.786773 -1.051671,1.102649 -1.051671,2.847975 v 1.963058 h 4.409722 4.409722 v -1.95106 c 0,-1.784779 -0.104297,-2.04263 -1.223792,-3.02556 -3.044983,-2.67353 -1.237413,-7.488199 2.811292,-7.488199 4.083524,0 5.855644,4.653093 2.834451,7.442479 -1.136009,1.048845 -1.246951,1.323481 -1.246951,3.086805 v 1.935535 h 4.409722 4.409722 v -5.291671 -5.291667 h 5.644444 5.644444 v 5.468056 5.468052 h -5.644444 -5.644444 v 5.29167 5.29167 h 2.269283 c 1.984677,0 2.298336,-0.0915 2.500942,-0.7299 0.316224,-0.99633 2.211587,-2.08941 3.625766,-2.09101 3.314163,-0.004 5.346427,3.10038 4.009106,6.12362 -1.314761,2.97224 -4.805974,3.52807 -7.029984,1.11924 -1.071317,-1.16035 -1.297953,-1.24695 -3.263194,-1.24695 h -2.111919 v 4.40972 4.40972 h 2.111919 c 1.965241,0 2.191877,-0.0866 3.263194,-1.24695 2.22401,-2.40883 5.715223,-1.853 7.029984,1.11923 1.337321,3.02324 -0.694943,6.12738 -4.009106,6.12362 -1.414179,-0.002 -3.309542,-1.09467 -3.625766,-2.091 -0.202606,-0.63836 -0.516265,-0.7299 -2.500942,-0.7299 h -2.269283 v 4.58611 4.58611 l 2.028472,-1e-5 c 1.891562,-1e-5 2.094311,-0.0825 3.003947,-1.22256 1.262814,-1.58267 3.260766,-2.18444 4.920653,-1.48207 2.241557,0.94849 3.33509,2.98982 2.755231,5.14325 -0.920579,3.41877 -5.145804,4.44042 -7.499858,1.81345 -0.873273,-0.97451 -1.167167,-1.07706 -3.086806,-1.07706 h -2.121639 v 4.40972 4.40973 h 2.104254 c 1.76148,0 2.167411,-0.11801 2.49196,-0.72444 0.213237,-0.39843 0.89351,-1.03284 1.511717,-1.40979 4.403077,-2.68475 9.153727,3.15382 5.420126,6.66136 -1.96788,1.84873 -4.668904,1.71434 -6.378459,-0.31735 -0.786801,-0.93506 -1.076898,-1.03478 -3.010156,-1.03478 h -2.139442 v 4.40972 4.40972 h 2.236429 c 2.002852,0 2.27574,-0.0863 2.612817,-0.82608 0.411879,-0.90397 2.39111,-1.99614 3.61742,-1.99614 1.595809,0 3.245898,1.12892 3.938431,2.69451 1.308563,2.95822 -0.739859,6.12493 -3.96198,6.12493 -1.205717,0 -3.185356,-1.09955 -3.593871,-1.99614 -0.337077,-0.7398 -0.609965,-0.82608 -2.612817,-0.82608 h -2.236429 v 5.11528 5.11528 h -4.056944 -4.056944 v 2.46944 2.46944 h -2.116667 -2.116666 v 4.58612 4.58611 h -5.115278 -5.115277 v 1.96305 c 0,1.73816 0.118546,2.0628 1.034784,2.83377 2.169072,1.82515 2.156899,4.81922 -0.02707,6.65691 -1.94672,1.63806 -5.343661,0.96608 -6.509091,-1.28761 -0.939841,-1.81745 -0.496554,-4.0965 1.058198,-5.44048 1.149286,-0.99348 1.268176,-1.26638 1.268176,-2.91095 v -1.81469 h -4.586111 -4.586111 v 1.77802 c 0,1.61544 0.129026,1.90076 1.411111,3.12037 1.209705,1.15077 1.411111,1.55406 1.411111,2.82561 0,2.92648 -1.572523,4.62322 -4.284758,4.62322 -4.0548,0 -5.86025,-4.93098 -2.76047,-7.53927 0.93095,-0.78335 1.04801,-1.10111 1.04801,-2.8449 v -1.96305 h -4.40972 -4.40972 v 1.92786 c 0,1.58356 0.12938,1.99711 0.72443,2.31557 1.83644,0.98284 2.61363,3.9663 1.56265,5.99867 -0.99887,1.9316 -3.98336,2.70549 -6.13759,1.59149 -1.05645,-0.54631 -2.14672,-2.43546 -2.14672,-3.7197 0,-1.16841 1.01144,-3.06313 1.97067,-3.69164 0.72865,-0.47743 0.85156,-0.83683 0.85156,-2.49011 v -1.93214 h -4.40973 -4.40972 v 2.09289 c 0,1.75894 0.10882,2.12743 0.68197,2.30934 0.37509,0.11905 1.03102,0.93749 1.45764,1.81876 0.67733,1.39919 0.72423,1.77396 0.36999,2.95633 -1.44825,4.83381 -8.5112,3.89205 -8.5055,-1.13411 0.002,-1.3451 1.04553,-3.23733 2.09647,-3.79978 0.59505,-0.31846 0.72443,-0.73201 0.72443,-2.31557 v -1.92786 h -4.40972 -4.40972 v 1.96305 c 0,1.74379 0.11705,2.06155 1.04801,2.8449 2.05818,1.73184 2.04529,4.89088 -0.0271,6.63465 -0.84169,0.70824 -1.45978,0.90462 -2.84718,0.90462 -1.54495,0 -1.92584,-0.15374 -2.97154,-1.19945 z m 62.300552,-47.83666 v -34.925 h -34.925002 -34.92499 v 34.925 34.925 h 34.92499 34.925002 z m -61.736112,0.35278 v -26.81111 h 26.81111 26.811114 v 26.81111 26.81111 h -26.811114 -26.81111 z m 14.98181,15.52222 c 2.10638,-2.61938 4.01313,-4.96592 4.23723,-5.21454 0.31968,-0.35465 1.34573,0.78532 4.76281,5.29167 2.39544,3.15903 4.39951,5.80051 4.45349,5.86993 0.0832,0.10696 8.61091,-5.59351 9.40661,-6.28796 0.14912,-0.13014 -1.63682,-2.74443 -3.96875,-5.80955 -2.33192,-3.06511 -4.23986,-5.68778 -4.23986,-5.82815 0,-0.23287 3.93787,-1.0515 13.142123,-2.73207 1.892407,-0.34553 3.398886,-0.75379 3.347732,-0.90725 -0.07845,-0.23534 -38.823955,-22.48229 -38.926435,-22.35083 -0.0194,0.0248 0.40993,9.49076 0.95397,21.03542 0.54404,11.54465 0.99644,21.67048 1.00533,22.50185 l 0.0162,1.51158 0.9899,-1.1588 c 0.54445,-0.63734 2.71331,-3.30193 4.81968,-5.9213 z m 59.101524,-29.63333 v -34.925 h -34.924994 -34.925 v 3.88055 3.88056 h 31.39722 31.397219 v 31.04444 31.04445 h 3.527777 3.527778 z m 119.48296,27.38671 c -2.060307,-0.57933 -3.882663,-2.2574 -4.427939,-4.07737 -0.266977,-0.89109 -0.40225,-5.38099 -0.40225,-13.3512 v -12.0086 l 1.675694,-0.19979 c 0.921632,-0.10988 3.382257,-0.30249 5.468055,-0.42802 l 3.792361,-0.22824 v 12.31881 c 0,9.11092 0.110238,12.42904 0.423333,12.74214 0.641645,0.64164 2.196909,0.50737 3.192311,-0.27562 1.975852,-1.5542 2.181753,-2.78576 2.31108,-13.82333 l 0.11849,-10.11255 1.651698,-0.19649 c 0.908434,-0.10807 3.358261,-0.29919 5.444059,-0.42472 l 3.792361,-0.22824 v 15.0352 15.03519 h -5.468055 -5.468055 v -2.01372 -2.01373 l -1.499306,1.46768 c -2.734466,2.6768 -6.999635,3.79604 -10.603837,2.7826 z m 118.180546,0 c -2.0603,-0.57933 -3.88266,-2.2574 -4.42794,-4.07737 -0.26697,-0.89109 -0.40225,-5.38099 -0.40225,-13.3512 v -12.0086 l 1.6757,-0.19758 c 0.92163,-0.10866 3.2933,-0.29875 5.27039,-0.42241 l 3.59469,-0.22484 0.10947,12.15372 c 0.11868,13.1752 0.14081,13.31934 2.04537,13.31934 1.32533,0 2.61789,-1.10499 3.39672,-2.90381 0.5732,-1.3239 0.66633,-2.72816 0.7705,-11.61847 l 0.11849,-10.11255 1.6517,-0.19649 c 0.90843,-0.10807 3.35826,-0.29919 5.44405,-0.42472 l 3.79237,-0.22824 v 15.0352 15.03519 h -5.46806 -5.46805 v -2.01372 -2.01373 l -1.49931,1.46768 c -2.73447,2.6768 -6.99964,3.79604 -10.60384,2.7826 z m 34.15175,0.17443 c -2.88674,-0.76162 -4.47167,-2.32341 -5.09298,-5.01863 -0.20185,-0.87562 -0.36158,-6.5739 -0.36645,-13.0726 l -0.009,-11.52037 1.67569,-0.19979 c 0.92164,-0.10988 3.38226,-0.30249 5.46806,-0.42802 l 3.79236,-0.22824 v 11.83723 c 0,6.83744 0.14532,12.21945 0.34405,12.74214 0.27372,0.71996 0.58017,0.90331 1.4993,0.89707 2.22517,-0.0151 3.574,-1.92861 4.14544,-5.88088 0.19098,-1.32086 0.35038,-6.0776 0.35422,-10.57053 l 0.007,-8.16898 1.67569,-0.19979 c 0.92164,-0.10988 3.38226,-0.30249 5.46806,-0.42802 l 3.79236,-0.22824 v 15.0352 15.03519 h -5.46806 -5.46805 v -2.05619 -2.05619 l -1.63746,1.56896 c -0.90061,0.86293 -2.32519,1.87318 -3.16573,2.24499 -1.70857,0.75578 -5.39965,1.12184 -7.01487,0.69569 z m 34.53113,-0.16981 c -2.50621,-0.6359 -4.91632,-2.1323 -6.12773,-3.80461 -0.99563,-1.37442 -2.02066,-4.90193 -1.6151,-5.55815 0.18103,-0.29291 4.52864,-1.23348 5.25903,-1.13774 0.16352,0.0214 0.33883,0.80955 0.38957,1.75137 0.17786,3.30168 2.5861,5.69428 6.01793,5.97888 2.76885,0.22961 3.65941,-0.091 4.26263,-1.53475 0.93262,-2.23207 0.0844,-3.11011 -5.9792,-6.18933 -6.53721,-3.31973 -9.05383,-6.16493 -9.03745,-10.21741 0.0148,-3.6636 2.49457,-7.01371 6.28078,-8.4852 2.75218,-1.06961 8.34083,-1.32624 11.14285,-0.51167 3.2804,0.95364 6.17414,4.2015 6.19698,6.95537 0.007,0.87211 -0.14008,0.95967 -2.22601,1.32291 -3.0641,0.53359 -2.94455,0.58061 -3.14963,-1.2388 -0.33806,-2.99934 -2.46467,-4.72067 -5.83334,-4.72166 -1.5135,-4.4e-4 -2.03249,0.16383 -2.73403,0.86536 -1.74376,1.74377 -0.64829,3.73655 3.042,5.53376 1.05211,0.51239 3.15183,1.52774 4.66604,2.25633 5.27981,2.54048 7.65669,5.55777 7.65038,9.71164 -0.006,4.10703 -1.96948,6.9682 -5.87562,8.5629 -2.16948,0.8857 -9.56604,1.16213 -12.33008,0.4608 z m 30.71814,0.007 c -4.35323,-1.10976 -7.21968,-3.50143 -8.67537,-7.23845 -0.94813,-2.43403 -1.30032,-8.42612 -0.67289,-11.44845 0.89372,-4.30502 3.95173,-8.54045 7.44395,-10.31009 4.90946,-2.48781 11.93408,-1.47919 15.14171,2.17411 2.15588,2.4554 3.53416,6.72746 3.53416,10.95427 v 1.87549 h -7.63712 -7.63712 l 0.21017,2.97813 c 0.24452,3.46484 1.24792,6.13866 2.79086,7.43696 0.80324,0.67588 1.43951,0.8738 2.80904,0.8738 3.3727,0 4.89084,-1.72297 5.15579,-5.8514 l 0.16371,-2.55091 1.80775,0.51555 c 0.99427,0.28355 1.98678,0.57413 2.20559,0.64575 0.60728,0.19875 -0.11189,3.57939 -1.18082,5.55067 -0.94156,1.7364 -2.47996,3.00901 -4.86146,4.02154 -1.83773,0.78134 -8.12779,1.00274 -10.59795,0.37303 z m 7.44346,-20.35225 c -0.32968,-3.77949 -0.89933,-5.60153 -2.01065,-6.43126 -1.94282,-1.45052 -3.33895,0.84651 -3.71242,6.10798 l -0.22392,3.15463 h 3.09699 3.09699 z m 19.02949,20.51472 c -2.88674,-0.76162 -4.47168,-2.32341 -5.09298,-5.01863 -0.20185,-0.87562 -0.36158,-6.5739 -0.36645,-13.0726 l -0.009,-11.52037 1.67569,-0.19566 c 0.92163,-0.10762 3.38226,-0.29654 5.46806,-0.41983 l 3.79236,-0.22417 v 11.82904 c 0,6.83211 0.14533,12.21129 0.34404,12.73394 0.50923,1.33936 2.55157,1.27861 3.85304,-0.11462 1.72021,-1.84148 1.89137,-2.9779 2.06044,-13.68027 l 0.15699,-9.93731 1.64344,-0.19534 c 0.90389,-0.10745 3.35,-0.29806 5.4358,-0.42359 l 3.79236,-0.22824 v 15.0352 15.03519 h -5.46806 -5.46805 v -2.11768 -2.11768 l -1.26628,1.40162 c -1.74048,1.9265 -4.40027,3.16288 -7.21754,3.35501 -1.25175,0.0854 -2.75216,0.0296 -3.33424,-0.12401 z M 87.489358,165.09514 c -0.746,-0.26598 -1.758647,-0.85433 -2.250326,-1.30743 -1.771516,-1.63252 -1.861365,-2.29329 -1.861365,-13.68888 v -10.59466 h -1.763889 -1.763889 v -1.76389 -1.76389 h 1.763889 1.763889 v -2.58141 -2.58141 l 2.028472,-0.62688 c 1.11566,-0.34479 3.496909,-1.31621 5.291666,-2.15872 L 93.961,126.49614 v 4.74012 4.74013 h 2.469444 2.469444 v 1.76389 1.76389 H 96.430444 93.961 v 10.43013 c 0,6.51513 0.137076,10.68627 0.365189,11.1125 0.434356,0.8116 1.338518,0.8969 1.623903,0.1532 0.137858,-0.35925 0.70069,-0.52917 1.752817,-0.52917 1.351691,0 1.549757,0.0972 1.549757,0.76018 0,1.15361 -2.476589,3.30236 -4.349878,3.77406 -2.145487,0.54024 -5.739386,0.48695 -7.41343,-0.10993 z m -125.114462,-0.0473 c 0,-0.13273 2.481291,-8.59342 5.513979,-18.80153 3.032689,-10.20811 5.660684,-19.08034 5.839989,-19.71606 l 0.32601,-1.15585 5.151369,0.0975 5.15137,0.0975 5.401032,19.40278 c 2.9705682,10.67153 5.4063315,19.60122 5.4128078,19.84375 0.00896,0.3354 -1.3785634,0.44097 -5.7953908,0.44097 h -5.807167 l -0.48703,-1.67569 c -0.267867,-0.92163 -0.780869,-2.82663 -1.140004,-4.23333 l -0.652972,-2.55764 h -5.870945 -5.870945 l -1.221302,4.14514 -1.221302,4.14514 -2.364749,0.10431 c -1.300612,0.0574 -2.36475,-0.004 -2.36475,-0.13702 z m 17.638888,-12.69203 c 0,-0.14815 -3.737023,-14.33031 -4.347923,-16.50054 -0.06308,-0.22408 -3.312192,10.80177 -4.739752,16.0843 -0.152704,0.56507 0.225138,0.61736 4.46042,0.61736 2.54499,0 4.627255,-0.0905 4.627255,-0.20112 z m 17.6388881,-1.68612 v -14.58724 l 3.8741777,-0.2353 c 2.1307978,-0.12941 4.5914226,-0.33361 5.4680552,-0.45376 l 1.5938775,-0.21847 v 2.05173 2.05173 l 1.2701301,-1.48386 c 1.6680594,-1.94876 2.8627154,-2.5237 5.2439204,-2.5237 1.742025,0 2.110849,0.13552 3.276699,1.20394 1.277435,1.17068 1.316556,1.28031 1.416301,3.96875 0.05745,1.54856 -0.105747,3.54076 -0.370992,4.5287 l -0.47357,1.76389 -3.302697,0.10225 c -1.816483,0.0562 -3.501189,0.0261 -3.74379,-0.067 -0.348899,-0.13389 -0.336872,-0.5608 0.05754,-2.04253 0.569556,-2.1397 0.629845,-3.42624 0.192873,-4.11588 -0.563125,-0.88873 -1.701524,-0.0807 -2.5546911,1.81321 -0.8001097,1.77617 -0.8332546,2.20746 -0.9480067,12.33566 L 8.5335936,165.25694 H 3.0931329 -2.3473279 Z m 31.9180039,14.2209 c -0.124527,-0.20149 -0.911231,-2.3843 -1.748233,-4.85069 -0.837001,-2.4664 -3.039723,-8.88967 -4.894938,-14.27394 l -3.373118,-9.78958 h 5.748936 5.748936 l 2.943789,9.32962 c 1.619084,5.13129 3.041543,9.2692 3.16102,9.19536 0.119477,-0.0738 1.558927,-4.27105 3.198777,-9.32712 l 2.981547,-9.19287 1.889826,-0.002 c 1.364383,-0.002 1.844502,0.12012 1.726812,0.43848 -0.08966,0.24254 -2.287967,6.83066 -4.885132,14.64028 l -4.722117,14.1993 h -3.774847 c -2.229206,0 -3.867552,-0.15 -4.001258,-0.36634 z m 72.504214,-14.22332 v -14.58966 l 3.26319,-0.2363 c 1.79476,-0.12997 4.25538,-0.33342 5.46806,-0.45211 l 2.20486,-0.21581 v 15.04177 15.04177 h -5.46806 -5.46805 z m 16.58055,-0.0439 v -14.63356 l 0.79375,-0.16138 c 0.43656,-0.0888 2.89719,-0.25638 5.46806,-0.37247 l 4.6743,-0.21108 v 2.17457 2.17456 l 1.54716,-1.42612 c 1.95762,-1.80448 3.09477,-2.38843 5.52638,-2.83794 2.90506,-0.53703 4.97648,0.0163 6.84314,1.828 0.82978,0.80534 1.5735,1.67269 1.65272,1.92745 0.0944,0.30366 0.64019,-0.009 1.58456,-0.90714 4.69587,-4.46708 11.662,-4.16464 14.28835,0.62033 0.37903,0.69055 0.50759,3.65717 0.5924,13.67014 l 0.10832,12.78819 h -5.48818 -5.48818 v -11.66485 c 0,-7.36625 -0.13458,-11.91632 -0.36519,-12.34723 -0.49134,-0.91806 -1.85241,-0.86515 -2.9935,0.11638 -1.59331,1.37051 -1.92126,3.83063 -1.92747,14.4589 l -0.006,9.4368 h -5.46805 -5.46806 V 153.5063 c 0,-13.00739 -0.0653,-13.43322 -1.95813,-12.7594 -1.23292,0.43891 -2.23359,1.78186 -2.64298,3.54705 -0.17652,0.76109 -0.32473,5.78912 -0.32936,11.17339 l -0.008,9.78958 h -5.46805 -5.46806 z m 207.7861,0 v -14.63356 l 0.79375,-0.16138 c 0.43656,-0.0888 2.89719,-0.25638 5.46806,-0.37247 l 4.6743,-0.21108 v 2.17457 2.17456 l 1.54716,-1.42612 c 2.76667,-2.55023 5.89454,-3.53788 9.05667,-2.85972 1.75238,0.37581 3.94647,2.01797 4.79529,3.58901 0.30413,0.56289 0.49896,0.47577 1.88538,-0.84311 4.47361,-4.25564 11.56596,-3.99192 14.0372,0.52196 0.53342,0.97433 0.61745,2.61172 0.71301,13.8927 l 0.10832,12.78819 h -5.48818 -5.48818 v -11.66485 c 0,-7.36625 -0.13458,-11.91632 -0.36519,-12.34723 -0.78541,-1.46754 -3.1687,-0.46876 -4.16389,1.745 -0.47852,1.06444 -0.59426,3.02245 -0.69588,11.77195 l -0.1219,10.49513 h -5.44046 -5.44046 v -11.66485 c 0,-7.36625 -0.13458,-11.91632 -0.36519,-12.34723 -0.85309,-1.594 -3.46086,0.0862 -4.1857,2.69683 -0.23495,0.84624 -0.38483,5.25259 -0.38603,11.34928 l -0.002,9.96597 h -5.46805 -5.46806 z M 104.54924,131.8307 c -2.45301,-1.2303 -2.86317,-4.00271 -0.88487,-5.98102 1.2365,-1.23649 1.2372,-1.23668 4.05129,-1.10889 2.46684,0.11203 2.92749,0.24073 3.72853,1.04177 1.08324,1.08324 1.45656,3.25516 0.78197,4.54938 -0.64216,1.23201 -2.5981,2.11557 -4.68322,2.11557 -0.97519,0 -2.31378,-0.27579 -2.9937,-0.61681 z"
       id="path1" /></g></svg>
