<svg width="123" height="48" viewBox="0 0 123 48" fill="none" xmlns="http://www.w3.org/2000/svg">
<path fill-rule="evenodd" clip-rule="evenodd" d="M9.90358 0L113.096 0.0356342C118.559 0.0356342 123 4.4879 123 9.96683V38.1024C123 43.582 118.559 48 113.096 48L9.90358 47.9644C4.44129 47.9644 0.03486 43.5457 0.03486 38.0318L0 9.93187C0 4.45294 4.44129 0 9.90358 0Z" fill="#D82332"/>
<path fill-rule="evenodd" clip-rule="evenodd" d="M28.5183 23.4128C28.4828 23.4827 28.4828 23.5173 28.4828 23.5872C28.2722 24.0412 28.1672 24.4266 28.1672 24.7428C28.1672 25.1961 28.3076 25.6527 28.5183 26.0008V23.4128ZM28.5183 18.1635V20.8574C28.3785 21.103 28.2019 21.3473 28.0267 21.6635C27.3926 22.4323 26.5847 23.1326 25.5647 23.7616C24.4745 24.5324 23.0332 25.1282 21.4862 25.5469C19.9037 26.0008 18.2872 26.2471 16.7395 26.2471C15.6848 26.2471 14.6996 26.0008 13.998 25.6168C13.293 25.1961 12.9412 24.6363 12.9412 24.0412C12.9412 23.5872 13.891 21.3127 15.7891 17.2536L16.2473 16.343C16.7034 15.3984 17.1622 14.5238 17.4431 13.8235C17.8638 13.1239 18.1106 12.6686 18.1808 12.5295C18.322 12.4243 18.5681 12.2147 18.8851 12.0043C19.2001 11.7933 19.4469 11.6196 19.5867 11.5144C19.5867 11.5144 19.6576 11.4445 19.7285 11.4092C20.2556 10.9892 20.6074 10.7795 20.9244 10.7795C21.1705 10.7795 21.3805 10.8834 21.4862 10.9892C21.5564 11.1649 21.6621 11.34 21.6621 11.6196C21.6621 11.8998 21.4862 12.5295 21.1705 13.3343C20.8542 14.0685 20.3612 15.049 19.6931 16.0987C19.2363 16.9734 18.5681 18.0231 17.7595 19.2825C16.7395 20.8574 16.2473 21.8725 16.2473 22.2572C16.2473 22.8523 16.6338 23.4827 17.3013 23.8322C17.9702 24.2176 18.8851 24.4266 20.0101 24.4266C21.4862 24.4266 22.7516 24.0412 23.7368 23.3076C24.7561 22.6074 25.3888 21.6635 25.3888 20.5778C25.3888 19.8429 25.0725 19.2479 24.51 18.8631C23.9475 18.4784 23.1389 18.268 22.0835 18.268H21.1705C20.7471 18.3373 20.396 18.3725 20.2556 18.3725C19.9037 18.3725 19.6576 18.3373 19.5526 18.268C19.4469 18.1635 19.3413 17.9525 19.3413 17.7775C19.3413 17.6736 19.3767 17.5684 19.3767 17.4633C19.4469 17.4287 19.5526 17.2536 19.6576 17.2176C19.6931 16.9734 20.0455 16.5886 20.5365 16.343C20.6421 16.3084 20.8542 16.2039 20.9585 16.0987C22.2246 15.2939 23.2098 14.4892 23.807 13.8588C24.4745 13.1592 24.7561 12.5295 24.7561 11.969C24.7561 11.4092 24.2639 10.9546 23.2793 10.6391C22.3309 10.2896 20.9585 10.1498 19.3413 10.1498C18.2872 10.1498 17.1963 10.1851 16.1416 10.2896C15.0166 10.5 13.786 10.7096 12.6255 10.9892C11.7808 11.1649 11.0083 11.4092 10.3401 11.6196C9.67198 11.7933 9.24995 12.0043 9.03926 12.1095C8.96837 12.1095 8.86336 12.2493 8.72224 12.459C8.58178 12.7039 8.33565 12.879 8.1243 12.879C7.80795 12.879 7.49159 12.7745 7.3518 12.5987C7.10568 12.459 7 12.2147 7 12.1095C7 11.8645 7.49159 11.4092 8.61723 10.8834C8.72224 10.7795 8.93292 10.7096 8.96837 10.7096C11.4651 9.37901 13.7164 8.46974 15.6848 7.87466C17.6538 7.31485 19.7981 7 21.8728 7C23.7368 7 25.2838 7.35079 26.4088 8.01511C27.5692 8.7147 28.1317 9.59002 28.1317 10.7096C28.1317 11.4445 27.6742 12.2493 26.9017 13.1592C26.0931 14.0339 24.7561 15.049 22.858 16.3084H23.1389H23.807C25.3888 16.3084 26.6556 16.5886 27.5692 17.1484C27.9558 17.4633 28.2722 17.7775 28.5183 18.1635ZM28.5183 20.8574C28.7644 20.4028 28.8701 19.9481 28.8701 19.5274C28.8701 19.0382 28.7644 18.5835 28.5183 18.1635V20.8574ZM35.3397 16.6931V19.2479V19.2825C34.9177 19.7378 34.4608 20.1931 34.0034 20.647C33.4054 21.3473 32.9493 22.0123 32.6329 22.5728C32.2805 23.0627 32.1755 23.5872 32.1755 23.9726V24.2176C32.1755 24.2881 32.2805 24.2881 32.3868 24.2881C32.7734 24.2881 33.4054 23.9726 34.2154 23.3775C34.5659 23.0627 34.9538 22.7125 35.3397 22.3271V22.2925V24.0066V24.0412C35.0588 24.3214 34.7772 24.5324 34.4608 24.7428C33.8977 25.1961 33.2302 25.5469 32.6329 25.7565C31.9641 26.0008 31.2618 26.2125 30.593 26.353C29.9951 26.4921 29.573 26.5979 29.5035 26.5979C29.0808 26.5979 28.7644 26.4215 28.5885 26.0381L28.5183 26.0008V23.4128C28.7296 22.9568 29.0808 22.3617 29.5035 21.7673C30.0305 20.9626 30.6987 20.0872 31.4718 19.389C32.2805 18.6874 33.1954 17.9525 34.3197 17.2536C34.6722 17.0439 34.9538 16.8682 35.3397 16.6931ZM35.3397 24.0066V22.2925C35.7617 21.8372 36.149 21.3832 36.6058 20.8574C37.0974 20.0872 37.6258 19.389 37.9067 18.7939C38.328 18.1635 38.5387 17.7775 38.5387 17.4979C38.3641 17.3588 38.328 17.3235 38.2237 17.3235C37.9067 17.3235 37.3094 17.6736 36.5349 18.268C36.149 18.5835 35.7617 18.8971 35.3397 19.2479V16.6931C35.7972 16.4488 36.1838 16.2385 36.6058 16.0987C37.3094 15.8537 37.9067 15.6787 38.4344 15.6787C39.1366 15.6787 39.8055 15.8537 40.2971 16.0987C40.8596 16.4488 41.1759 16.799 41.1759 17.1131C41.1759 17.2176 41.0013 17.6736 40.8248 18.3725C40.6134 19.1427 40.4389 19.8776 40.2971 20.5079C39.9807 21.7673 39.7352 22.8523 39.5948 23.7616C39.3841 24.6722 39.2784 25.232 39.2784 25.4404C39.2784 25.5469 39.348 25.7918 39.3841 25.9675C39.4891 26.1419 39.5948 26.3163 39.5948 26.4215C39.5948 26.5606 39.4891 26.7716 39.2784 26.9121C39.1012 27.0519 38.7862 27.1571 38.5387 27.1571C38.4692 27.1571 38.2578 27.1571 38.118 27.1204C37.9067 27.0519 37.7662 27.0166 37.6599 27.0166C37.6258 27.0166 37.4492 27.0519 37.4137 27.0519C37.3094 27.0519 37.2037 27.1204 37.1683 27.1204C36.8512 27.1204 36.6058 26.9121 36.3951 26.4921C36.2533 26.1419 36.1838 25.4404 36.1838 24.603V23.8674C36.1838 23.6225 36.2533 23.3076 36.2888 23.0274C36.0079 23.3775 35.6908 23.7283 35.3397 24.0066ZM46.0637 35.4157V39.755C44.9742 39.8942 44.1301 40 43.5322 40C43.1463 40 42.7938 39.9294 42.5831 39.8596C42.3718 39.755 42.2668 39.5447 42.2668 39.3344C42.2668 39.0195 42.7243 38.6341 43.4974 38.0756C44.3054 37.5145 44.7635 37.1304 44.8337 36.9547C44.8337 36.9194 44.904 36.8149 44.904 36.7097C45.0799 36.3256 45.326 36.0108 45.5721 35.7658C45.7474 35.6254 45.9239 35.5215 46.0637 35.4157ZM46.0637 11.7241V20.0173C45.853 20.5079 45.7126 20.8927 45.6424 21.2069C45.2203 22.2572 45.0096 23.0627 45.0096 23.5173C45.0096 23.7616 45.1147 24.0412 45.2203 24.1477C45.3608 24.2881 45.6424 24.392 45.8183 24.392C45.9239 24.392 45.9942 24.392 46.0637 24.358V26.6305C45.8885 26.7017 45.7474 26.7716 45.5721 26.8761C44.7635 27.2263 44.2699 27.402 44.0245 27.402C43.9195 27.402 43.6379 27.2616 43.3917 27.1571C43.1804 26.946 42.9343 26.7716 42.8293 26.7716C42.7243 26.7716 42.6179 26.6665 42.5477 26.6665C41.81 26.3163 41.422 25.9675 41.422 25.6527C41.422 25.6168 41.4575 25.4404 41.4575 25.232C41.5284 25.0569 41.5284 24.8479 41.5284 24.6722V24.392C41.5284 23.8322 41.9852 22.3617 42.9343 20.0872L43.1804 19.4922C43.3917 18.933 43.7435 18.0577 44.1656 17.1131C45.1147 14.8739 45.5721 13.4734 45.5721 13.1239V12.5987C45.5721 12.459 45.5367 12.2493 45.5367 12.2493C45.5367 12.2147 45.5721 12.1095 45.5721 12.0043C45.6771 11.9338 45.853 11.8293 46.0637 11.7241ZM46.0637 20.0173V11.7241C46.3099 11.6196 46.6617 11.4785 47.0489 11.34C47.5766 11.1649 48.0334 10.9546 48.315 10.7795C48.3846 10.7795 48.5605 10.7449 48.7364 10.7096C48.9825 10.5 49.1932 10.4301 49.2989 10.4301C49.4393 10.4301 49.545 10.5 49.65 10.6051C49.7209 10.7096 49.8266 10.8834 49.8266 11.0598C49.8266 11.4092 49.2989 12.7745 48.315 14.9438L48.103 15.3285C47.2241 17.3235 46.5212 18.8971 46.0637 20.0173ZM46.0637 26.6305V24.358C46.6262 24.3214 47.2241 24.0066 47.8221 23.5872C48.5264 23.0627 48.9116 22.7824 48.9825 22.7824C49.1584 22.7824 49.2641 22.8523 49.2989 22.9222C49.4045 23.0627 49.5095 23.2724 49.5095 23.3775C49.5095 23.6225 49.2989 23.9726 49.0534 24.2881C48.7718 24.6722 48.315 25.0922 47.8221 25.5116C47.2596 25.9323 46.6617 26.3163 46.0637 26.6305ZM46.0637 39.755C47.1546 39.5793 48.5264 39.2997 50.072 38.9842C53.2008 38.3206 56.5771 37.4106 59.9533 36.3256C60.0229 36.3256 60.1995 36.2551 60.3747 36.1499C61.7812 35.7658 63.1176 35.0303 64.2432 34.1909C64.9803 33.5952 66.0698 32.8616 67.055 32.1607C67.372 31.9517 67.6884 31.8106 67.7927 31.7753C68.3926 31.3559 68.8488 30.8654 69.2013 30.3422C69.5156 29.8509 69.6574 29.2206 69.6574 28.6261C69.6574 27.3314 68.8488 26.353 67.372 25.7565C65.8952 25.1282 63.3991 24.8479 59.9179 24.8479C59.144 24.8479 58.3 24.8812 57.3155 24.9518C56.4012 24.9518 55.8032 24.987 55.6635 24.987C54.5385 24.987 53.6596 24.8812 53.166 24.6722C52.7092 24.5324 52.3929 24.1823 52.3929 23.7283C52.3929 23.2724 52.7092 22.8177 53.2724 22.4323C53.8349 21.9777 54.6783 21.5576 55.8032 21.1376C56.4721 20.8927 57.3155 20.5778 58.3354 20.2976C59.3908 20.0872 60.6215 19.7724 62.0274 19.4229C62.8005 19.2825 63.5744 19.0735 64.2432 19.0382C64.8385 18.933 65.2257 18.8631 65.5427 18.8631C65.7889 18.8631 65.9655 18.933 66.0698 19.0382C66.1407 19.0735 66.2109 19.2825 66.2109 19.389C66.2109 19.389 66.1407 19.4922 66.1407 19.598V19.7724C66.1407 19.9481 66.2477 20.1578 66.3527 20.2976C66.457 20.4374 66.6677 20.5425 66.8088 20.5425C67.055 20.5425 67.372 20.2976 67.7245 19.7724C67.8636 19.598 68.0402 19.389 68.0763 19.2825C68.2856 19.0735 68.5324 18.7233 68.8488 18.3725C69.5156 17.6736 69.9029 17.1484 69.9029 16.799C69.9029 16.343 69.6928 15.9935 69.3056 15.7486C68.9879 15.5382 68.4261 15.4337 67.7245 15.4337C67.0202 15.4337 66.1407 15.5382 65.1923 15.6787C64.2432 15.889 63.153 16.0987 62.1324 16.4488C60.3038 16.9734 58.5468 17.6736 56.9289 18.3725C55.3825 19.0735 53.9753 19.8776 52.8503 20.7529C51.9013 21.4525 51.0927 22.2572 50.5295 22.9568C50.0025 23.7283 49.7557 24.4971 49.7557 25.1282C49.7557 25.4404 49.8266 25.7565 50.0025 25.9675C50.1075 26.1419 50.3536 26.3163 50.7054 26.3163C50.7756 26.3163 50.987 26.353 51.197 26.353C51.7254 26.353 52.1113 26.4568 52.3581 26.7018C52.4992 26.8762 52.7453 27.0519 52.9908 27.3654C53.2008 27.6117 53.4128 27.8214 53.5178 27.856C53.8696 28.1362 54.3619 28.3106 55.0301 28.487C55.6982 28.5216 56.5771 28.6261 57.4907 28.6261C57.6679 28.6261 58.195 28.5922 58.9327 28.5922C59.6718 28.5922 60.3038 28.5216 60.8322 28.5216C62.5551 28.5216 63.9255 28.696 64.8385 29.0462C65.6491 29.3257 66.1407 29.7804 66.1407 30.446C66.1407 31.3919 64.4178 32.4762 61.0783 33.49C57.7375 34.541 53.0965 35.4843 47.2596 36.2551C47.6114 36.0108 47.9625 35.6607 48.42 35.3105C49.0875 34.6462 49.5095 34.1909 49.5095 33.946C49.5095 33.8754 49.4045 33.7343 49.3698 33.6657C49.2989 33.6311 49.0875 33.5952 48.9825 33.5952C48.842 33.5952 48.42 33.8401 47.7512 34.1909C47.2596 34.5058 46.6971 34.9245 46.0637 35.4157V39.755ZM88.2221 26.0381V28.696C87.7653 29.0814 87.3787 29.5361 86.9219 30.0606C86.324 30.691 85.8672 31.3559 85.5501 31.9157C85.2338 32.4762 85.0238 32.9655 85.0238 33.3149C85.0238 33.49 85.0927 33.6311 85.0927 33.6311C85.0927 33.6311 85.2338 33.6657 85.3047 33.6657C85.7608 33.6657 86.324 33.3862 87.0637 32.7205C87.4837 32.4762 87.8723 32.1254 88.2221 31.7061V33.4194C87.9419 33.6657 87.6242 33.946 87.3787 34.1197C86.7808 34.541 86.1488 34.8912 85.5501 35.1355C84.8465 35.3451 84.1777 35.5555 83.5818 35.7658C82.9136 35.8697 82.5611 35.9409 82.3859 35.9409C81.998 35.9409 81.6823 35.7658 81.4368 35.4157C81.2255 35.0303 81.0844 34.5757 81.0844 34.0851C81.0844 33.8401 81.1907 33.4194 81.4007 32.9295C81.5786 32.4762 81.9284 31.8106 82.3859 31.1469C82.9484 30.3056 83.6172 29.5008 84.3904 28.7659C85.1281 28.0663 86.1133 27.3315 87.2028 26.6665C87.5901 26.4568 87.8723 26.2471 88.2221 26.0381ZM73.4196 32.1607C74.2636 30.7615 75.1425 29.5361 75.9156 28.5922C76.7263 27.5764 77.5342 26.8762 78.1315 26.353C78.2719 26.1419 78.5528 25.9675 78.8003 25.8617C79.1514 25.6527 79.4671 25.6168 79.7126 25.6168C80.1012 25.6168 80.4169 25.7565 80.663 26.0381C80.9446 26.353 81.0155 26.8762 81.0155 27.3654C81.0155 28.1715 80.8389 29.2918 80.4884 30.5518C80.1012 31.8452 79.9239 32.7911 79.9239 33.2118C79.9239 33.5253 79.9948 33.8401 80.1012 33.9806C80.2757 34.1909 80.3808 34.3294 80.3808 34.3993C80.3808 34.6462 79.9601 35.0303 79.2571 35.5555C78.5528 36.0108 77.9221 36.2551 77.4279 36.2551C77.1115 36.2551 76.8306 36.0441 76.6193 35.6607C76.5129 35.3451 76.3738 34.7507 76.3738 34.0498C76.3738 33.946 76.4434 33.6657 76.5129 33.3149C76.6193 32.9295 76.8306 32.2659 77.1115 31.4618C77.3215 30.7615 77.5342 30.2017 77.6747 29.7457C77.8506 29.2206 77.9221 28.8704 77.9221 28.8371L77.7803 28.696C77.7442 28.696 77.4279 28.941 77.0052 29.3969C76.6193 29.8509 76.0554 30.5871 75.3886 31.4951C74.6843 32.405 74.0182 33.3149 73.4196 34.1909C72.8571 35.0303 72.5053 35.5555 72.5053 35.5555C72.5053 35.5555 72.1889 35.6607 71.696 35.905C71.1342 36.1499 70.7108 36.2551 70.7108 36.2551C70.678 36.2551 70.4653 36.1153 70.2192 35.8697C70.0099 35.5555 69.9029 35.3451 69.9029 35.2047C69.9029 35.1355 70.0099 34.6462 70.2192 33.8401C70.4306 32.9295 70.7108 31.9517 70.993 30.9353C71.3796 29.7804 71.696 28.7659 71.9782 27.856C72.3655 27.0519 72.5053 26.5606 72.6109 26.4215C72.7173 26.353 72.9621 26.1419 73.4196 25.9675C73.9118 25.686 74.2636 25.6168 74.4389 25.6168C74.7198 25.6168 75.1077 25.686 75.3886 25.897C75.7043 26.1419 75.8468 26.4215 75.8468 26.6665L74.9318 28.3106C74.3339 29.4316 73.8068 30.7615 73.4196 32.1607ZM93.8483 33.245C93.8483 33.2803 93.8135 33.3149 93.8135 33.3149C93.6738 33.8401 93.6029 34.2255 93.6029 34.5757C93.6029 34.8912 93.7072 35.2047 93.8135 35.451L93.8483 35.4843V33.245ZM93.8483 26.0381V27.3315C93.8483 27.3654 93.8135 27.3654 93.8135 27.402C93.8135 27.5058 93.7774 27.6117 93.7774 27.7881C93.5674 28.5216 93.3554 29.2206 93.144 29.8509C92.8986 31.1469 92.6525 32.2313 92.4424 33.1412C92.3361 34.0498 92.1963 34.6462 92.1963 34.7853C92.1963 34.9597 92.2672 35.1355 92.3361 35.3451C92.407 35.5555 92.4424 35.6607 92.4424 35.7658C92.4424 35.905 92.3361 36.1153 92.1615 36.2551C91.9482 36.3962 91.7047 36.5706 91.4218 36.5706C91.3877 36.5706 91.1757 36.5007 90.9657 36.5007C90.8954 36.3962 90.6841 36.3962 90.5784 36.3962H90.3316C90.2259 36.3962 90.1216 36.5007 90.0507 36.5007C89.7698 36.5007 89.4534 36.2551 89.313 35.8697C89.1377 35.4843 89.0669 34.8539 89.0669 33.946V33.2118C89.0669 33.036 89.1377 32.7205 89.2073 32.405C88.8903 32.7911 88.5385 33.1412 88.2221 33.4194V31.7061C88.6448 31.2508 89.0669 30.7615 89.4534 30.2363C90.0173 29.5008 90.5089 28.7659 90.8954 28.1715C91.1757 27.5764 91.4218 27.1204 91.4218 26.8762C91.282 26.7018 91.1757 26.6665 91.1402 26.6665C90.8259 26.6665 90.2259 27.0166 89.4534 27.6117C89.0669 27.9265 88.6448 28.2773 88.2221 28.696V26.0381C88.6448 25.8617 89.1016 25.6527 89.4534 25.5116C90.2259 25.232 90.8954 25.0922 91.3175 25.0922C92.0552 25.0922 92.6525 25.232 93.2511 25.5116C93.532 25.6527 93.7072 25.7918 93.8135 26.0008L93.8483 26.0381ZM93.8483 27.3315C93.9901 26.8422 94.0597 26.5606 94.0597 26.4568C94.0597 26.3163 93.9901 26.1766 93.8483 26.0381V27.3315ZM103.201 34.6462C102.954 35.3451 102.814 35.7998 102.814 35.905C102.814 36.1153 102.921 36.3256 102.99 36.3962C103.061 36.4654 103.096 36.4654 103.201 36.5007V34.6462ZM103.201 26.353V28.2068C103.025 28.3805 102.85 28.487 102.709 28.487C102.64 28.487 102.498 28.4158 102.357 28.3805C102.181 28.3106 102.005 28.2773 101.9 28.2773C101.373 28.2773 100.882 28.5216 100.458 28.8371C99.9675 29.2206 99.5093 29.7457 99.0879 30.446C98.7007 31.1469 98.2793 31.7753 98.1034 32.405C97.8219 33.0706 97.6807 33.6311 97.6807 33.946C97.6807 34.0851 97.7175 34.2255 97.7877 34.3294C97.8921 34.3993 97.9964 34.4352 98.173 34.4352C98.2793 34.4352 98.807 34.2941 99.4384 34.0498C100.107 33.8401 100.811 33.4194 101.478 33.036C102.005 32.5108 102.393 32.1607 102.605 31.9517C102.814 31.8106 102.99 31.7061 103.061 31.7061H103.201V33.0007L102.921 33.4194C102.498 33.946 102.005 34.4352 101.373 34.8912C100.741 35.3451 99.9675 35.7998 99.2625 36.1153C98.49 36.3962 97.9275 36.6039 97.5757 36.6039C97.4694 36.6039 97.3289 36.5706 97.0835 36.5706C96.8721 36.5706 96.626 36.5007 96.4507 36.5007H96.2735C96.1692 36.5007 96.0635 36.5706 96.0635 36.5706C95.3605 36.5706 94.7278 36.3596 94.271 36.0108C94.1299 35.8697 93.9901 35.6607 93.8483 35.4843V33.245C93.9901 32.8616 94.1299 32.4762 94.3426 32.0555C94.7987 31.0411 95.4294 30.0959 96.1692 29.2918C96.9785 28.3805 97.9964 27.5058 99.1923 26.8069C100.354 26.106 101.268 25.686 101.794 25.686C102.146 25.686 102.569 25.8617 102.921 26.1419C102.99 26.2125 103.096 26.2824 103.201 26.353ZM103.201 28.2068V28.1715C103.271 28.1362 103.271 28.0663 103.307 27.9618C103.484 27.6822 103.553 27.3315 103.553 27.0166C103.553 26.8762 103.484 26.5979 103.201 26.353V28.2068ZM103.201 33.0007V32.9655C103.377 32.6852 103.484 32.3704 103.484 32.1607C103.484 32.0216 103.413 31.9157 103.201 31.7061V33.0007ZM103.201 36.5007V34.6462V34.5757C103.201 34.5058 103.271 34.4352 103.271 34.3294C103.553 33.49 104.079 31.9517 104.888 29.8509C105.838 27.1571 106.717 25.0569 107.422 23.3775C108.125 21.7673 108.792 20.2284 109.391 19.0382C109.601 18.6874 110.128 18.2341 110.832 17.7775C111.604 17.2536 112.098 17.0086 112.309 17.0086C112.342 17.0086 112.413 17.0439 112.484 17.1131C112.59 17.2176 112.694 17.4287 112.907 17.6736C113.153 17.9525 113.327 18.2341 113.327 18.3725C113.327 18.6175 112.694 19.9481 111.535 22.2572C110.304 24.6363 109.249 26.6665 108.511 28.3106C108.934 28.0324 109.671 27.5058 110.409 26.8762C111.885 25.7565 112.907 25.1282 113.609 25.0569C113.821 24.9518 113.961 24.8812 114.067 24.8479C114.242 24.7774 114.381 24.7428 114.488 24.7428C114.84 24.7428 115.228 24.9518 115.508 25.232C115.789 25.6527 115.965 26.1419 115.965 26.6665C115.965 27.6822 115.332 28.6261 114.242 29.3257C114.03 29.4316 113.856 29.5361 113.821 29.6419C113.573 29.7804 113.259 30.1305 112.907 30.6557C112.59 31.1469 112.237 31.4618 111.885 31.4618C111.676 31.4618 111.5 31.3559 111.324 31.2508C111.219 31.1469 111.148 30.9353 111.148 30.691C111.148 30.446 111.43 30.0606 111.956 29.5361C112.484 29.0814 112.765 28.6261 112.765 28.2773C112.765 28.0663 112.659 27.856 112.555 27.7881C112.413 27.6117 112.203 27.5764 111.992 27.5764C111.676 27.5764 111.324 27.6822 110.832 27.9265C110.375 28.1715 109.813 28.5922 109.213 29.0462C109.601 29.0814 109.847 29.152 109.952 29.2206C110.128 29.3257 110.234 29.5361 110.234 29.6765C110.234 29.7457 110.304 29.9568 110.304 30.0606C110.304 30.7615 110.479 31.3559 110.655 31.7753C111.041 32.405 111.43 32.9295 111.885 33.2118C112.413 33.6311 113.012 33.8401 113.573 33.8401C114.138 33.8401 114.523 33.6311 114.804 33.4194C115.05 33.1412 115.297 32.9655 115.508 32.9655C115.613 32.9655 115.755 33.0706 115.789 33.1751C115.965 33.3149 116 33.5253 116 33.6657C116 33.8401 115.896 34.1197 115.755 34.3294C115.613 34.5757 115.332 34.8539 115.086 34.9597C114.945 35.0303 114.63 35.1355 114.313 35.3105C112.694 36.0441 111.676 36.5007 111.324 36.5007C110.234 36.5007 109.391 36.0108 108.757 34.9597C108.125 33.946 107.667 32.4762 107.596 30.5518C106.963 32.1254 106.507 33.3149 106.19 34.0851C105.838 34.8539 105.593 35.3451 105.451 35.5555C105.347 35.5894 104.994 35.7998 104.467 36.0441C103.869 36.3962 103.553 36.5706 103.484 36.5706C103.377 36.5706 103.271 36.5706 103.201 36.5007Z" fill="#FFFFFE"/>
<path fill-rule="evenodd" clip-rule="evenodd" d="M112.043 44.9416C114.222 44.9416 116.188 44.0603 117.629 42.6126C119.069 41.167 119.946 39.1891 119.946 37.0024V36.9668V11.0332C119.946 8.42167 118.682 6.05784 116.715 4.61149C116.258 4.29336 115.801 4.01147 115.309 3.80005C114.817 3.55307 114.291 3.37655 113.731 3.27118C113.168 3.12889 112.606 3.09399 112.008 3.05842H10.9922C10.1844 3.05842 9.4114 3.16446 8.70921 3.37655C7.4438 3.76448 6.28529 4.47055 5.37265 5.38668C4.45933 6.30483 3.79188 7.43305 3.40505 8.70423C3.19459 9.44519 3.05429 10.1862 3.05429 10.9976L3.0897 36.9306C3.0897 39.8602 4.63505 42.4006 6.95341 43.7764C7.40906 44.0932 7.9362 44.3067 8.46401 44.5181C9.0259 44.6939 9.58778 44.8 10.1497 44.8711C10.4309 44.9047 10.7116 44.9047 10.9922 44.9047L112.043 44.9416ZM112.008 2C112.677 2 113.344 2.10671 113.939 2.21209C114.572 2.35303 115.169 2.56445 115.732 2.81143C116.329 3.09399 116.855 3.41145 117.348 3.76448C119.56 5.42225 121 8.06931 121 11.0332V36.9668V37.0024C121 39.4716 120.017 41.7314 118.366 43.3536C116.751 44.9758 114.502 46 112.043 46C78.3596 46 44.6765 45.9866 10.9922 45.9638C10.6761 45.9638 10.3601 45.9638 10.0434 45.9295C9.37666 45.8577 8.74529 45.7174 8.148 45.5067C7.51529 45.2933 6.95341 45.0114 6.39152 44.6939C3.79188 43.1066 2.03541 40.2475 2.03541 36.9306L2 10.9976C2 10.1157 2.14164 9.23311 2.38751 8.38677C2.80842 6.93975 3.61617 5.66991 4.63505 4.61149C5.68866 3.58864 6.95341 2.81143 8.39319 2.35303C9.23636 2.10671 10.0788 2 10.9922 2H112.008Z" fill="#FFFFFE"/>
</svg>
