<?xml version="1.0" encoding="UTF-8" standalone="no"?>
<svg
   version="1.1"
   width="64"
   height="64"
   shape-rendering="crispEdges"
   id="svg51"
   sodipodi:docname="lvlup_logo.svg"
   inkscape:version="1.3 (0e150ed6c4, 2023-07-21)"
   xmlns:inkscape="http://www.inkscape.org/namespaces/inkscape"
   xmlns:sodipodi="http://sodipodi.sourceforge.net/DTD/sodipodi-0.dtd"
   xmlns="http://www.w3.org/2000/svg"
   xmlns:svg="http://www.w3.org/2000/svg">
  <defs
     id="defs51" />
  <sodipodi:namedview
     id="namedview51"
     pagecolor="#505050"
     bordercolor="#ffffff"
     borderopacity="1"
     inkscape:showpageshadow="0"
     inkscape:pageopacity="0"
     inkscape:pagecheckerboard="1"
     inkscape:deskcolor="#505050"
     inkscape:zoom="10.429825"
     inkscape:cx="23.106811"
     inkscape:cy="32.455003"
     inkscape:window-width="1920"
     inkscape:window-height="1009"
     inkscape:window-x="-8"
     inkscape:window-y="479"
     inkscape:window-maximized="1"
     inkscape:current-layer="svg51" />
  <g
     id="g69">
    <path
       style="fill:#ccccd1;fill-opacity:1;stroke:none;stroke-width:1px;stroke-linecap:butt;stroke-linejoin:miter;stroke-opacity:1"
       d="M 6,18 V 30 H 16 V 28 H 10 V 18 Z"
       id="path57-0-4" />
    <path
       style="fill:#e54127;fill-opacity:1;stroke:none;stroke-width:1px;stroke-linecap:butt;stroke-linejoin:miter;stroke-opacity:1"
       d="M 4,16 V 28 H 14 V 26 H 8 V 16 Z"
       id="path57-9" />
    <path
       style="fill:#ccccd1;fill-opacity:1;stroke:none;stroke-width:1px;stroke-linecap:butt;stroke-linejoin:miter;stroke-opacity:1"
       d="m 18,18 v 8 h 2 v 2 h 2 v 2 h 2 v -2 h 2 v -2 h 2 v -8 h -4 v 8 h -2 v -8 z"
       id="path52-3" />
    <path
       style="fill:#ccccd1;fill-opacity:1;stroke:none;stroke-width:1px;stroke-linecap:butt;stroke-linejoin:miter;stroke-opacity:1"
       d="m 24,32 v 18 h 4 v -6 h 10 v -2 h 2 v -8 h -2 v -2 z m 4,10 v -8 h 8 v 8 z"
       id="path55-6"
       sodipodi:nodetypes="cccccccccccccccc" />
    <path
       style="fill:#ccccd1;fill-opacity:1;stroke:none;stroke-width:1px;stroke-linecap:butt;stroke-linejoin:miter;stroke-opacity:1"
       d="m 6,32 v 16 h 2 v 2 h 12 v -2 h 2 V 32 H 18 V 48 H 10 V 32 Z"
       id="path56-2" />
    <path
       style="fill:#ccccd1;fill-opacity:1;stroke:none;stroke-width:1px;stroke-linecap:butt;stroke-linejoin:miter;stroke-opacity:1"
       d="M 30,18 V 30 H 40 V 28 H 34 V 18 Z"
       id="path57-0" />
    <path
       style="fill:#ccccd1;fill-opacity:1;stroke:none;stroke-width:1px;stroke-linecap:butt;stroke-linejoin:miter;stroke-opacity:1"
       d="m 44,42 v -8 h 2 v -4 h 2 v -4 h 2 v -4 h 2 v -4 c 0,0 8,0 8,0 v 12 h -4 v 4 h -4 v 4 h -4 v 4 z"
       id="path59-5" />
    <rect
       x="42"
       y="44"
       width="4"
       height="6"
       fill="#e54127"
       id="rect44-8"
       style="fill:#ccccd1;fill-opacity:1" />
    <path
       style="fill:#e54127;fill-opacity:1;stroke:none;stroke-width:1px;stroke-linecap:butt;stroke-linejoin:miter;stroke-opacity:1"
       d="m 16,16 v 8 h 2 v 2 h 2 v 2 h 2 v -2 h 2 v -2 h 2 v -8 h -4 v 8 h -2 v -8 z"
       id="path52" />
    <path
       style="fill:#e54127;fill-opacity:1;stroke:none;stroke-width:1px;stroke-linecap:butt;stroke-linejoin:miter;stroke-opacity:1"
       d="m 22,30 v 18 h 4 v -6 h 10 v -2 h 2 v -8 h -2 v -2 z m 4,10 v -8 h 8 v 8 z"
       id="path55"
       sodipodi:nodetypes="cccccccccccccccc" />
    <path
       style="fill:#e54127;fill-opacity:1;stroke:none;stroke-width:1px;stroke-linecap:butt;stroke-linejoin:miter;stroke-opacity:1"
       d="m 4,30 v 16 h 2 v 2 h 12 v -2 h 2 V 30 H 16 V 46 H 8 V 30 Z"
       id="path56" />
    <path
       style="fill:#e54127;fill-opacity:1;stroke:none;stroke-width:1px;stroke-linecap:butt;stroke-linejoin:miter;stroke-opacity:1"
       d="M 28,16 V 28 H 38 V 26 H 32 V 16 Z"
       id="path57" />
    <path
       style="fill:#e54127;fill-opacity:1;stroke:none;stroke-width:1px;stroke-linecap:butt;stroke-linejoin:miter;stroke-opacity:1"
       d="m 42,40 v -8 h 2 v -4 h 2 v -4 h 2 v -4 h 2 v -4 c 0,0 8,0 8,0 v 12 h -4 v 4 h -4 v 4 h -4 v 4 z"
       id="path59" />
    <rect
       x="40"
       y="42"
       width="4"
       height="6"
       fill="#e54127"
       id="rect44" />
    <path
       style="fill:none;stroke:none;stroke-width:1px;stroke-linecap:butt;stroke-linejoin:miter;stroke-opacity:1"
       d="M 28,16 V 28 H 38 V 26 H 32 V 16 Z"
       id="path53" />
    <path
       style="fill:none;stroke:none;stroke-width:1px;stroke-linecap:butt;stroke-linejoin:miter;stroke-opacity:1"
       d="m 4,30 v 16 h 2 v 2 h 12 v -2 h 2 V 30 H 16 V 46 H 8 V 30 Z"
       id="path54" />
    <path
       style="fill:none;stroke:none;stroke-width:1px;stroke-linecap:butt;stroke-linejoin:miter;stroke-opacity:1"
       d="m 26,40 v -8 h 8 v 8 z"
       id="path60" />
  </g>
</svg>
