<svg preserveAspectRatio="none" overflow="visible" style="display: block;" width="148.235" height="90" viewBox="0 0 148.235 90" fill="none" xmlns="http://www.w3.org/2000/svg">
<g id="lvlup">
<path id="path57-0-4" d="M5.29364 5.29409V37.0587H31.7642V31.7646H15.8818V5.29409H5.29364Z" fill="#CCCCD1"/>
<path id="path57-9" d="M0 0V31.7646H26.4705V26.4705H10.5882V0H0Z" fill="#E54127"/>
<path id="path52-3" d="M37.0581 5.29409V26.4705H42.3522V31.7646H47.6463V37.0587H52.9404V31.7646H58.2345V26.4705H63.5286V5.29409H52.9404V26.4705H47.6463V5.29409H37.0581Z" fill="#CCCCD1"/>
<path id="path55-6" d="M52.9417 42.3527V89.9996H63.5299V74.1173H90.0004V68.8232H95.2945V47.6468H90.0004V42.3527H52.9417ZM63.5299 68.8232V47.6468H84.7063V68.8232H63.5299Z" fill="#CCCCD1"/>
<path id="path56-2" d="M5.29364 42.3527V84.7055H10.5877V89.9996H42.3524V84.7055H47.6465V42.3527H37.0583V84.7055H15.8818V42.3527H5.29364Z" fill="#CCCCD1"/>
<path id="path57-0" d="M68.8235 5.29409V37.0587H95.294V31.7646H79.4117V5.29409H68.8235Z" fill="#CCCCD1"/>
<path id="path59-5" d="M105.882 68.8233V47.6469H111.177V37.0587H116.471V26.4705H121.765V15.8823H127.059V5.29409H148.235V37.0587H137.647V47.6469H127.059V58.2351H116.471V68.8233H105.882Z" fill="#CCCCD1"/>
<path id="rect44-8" d="M111.176 74.1177H100.588V90H111.176V74.1177Z" fill="#CCCCD1"/>
<path id="path52" d="M31.7645 0V21.1764H37.0586V26.4705H42.3527V31.7646H47.6468V26.4705H52.9409V21.1764H58.235V0H47.6468V21.1764H42.3527V0H31.7645Z" fill="#E54127"/>
<path id="path55" d="M47.6472 37.0586V84.7055H58.2354V68.8232H84.7059V63.5291H90V42.3527H84.7059V37.0586H47.6472ZM58.2354 63.5291V42.3527H79.4118V63.5291H58.2354Z" fill="#E54127"/>
<path id="path56" d="M0 37.0586V79.4114H5.2941V84.7055H37.0587V79.4114H42.3528V37.0586H31.7646V79.4114H10.5882V37.0586H0Z" fill="#E54127"/>
<path id="path57" d="M63.529 0V31.7646H89.9995V26.4705H74.1172V0H63.529Z" fill="#E54127"/>
<path id="path59" d="M100.588 63.5292V42.3528H105.882V31.7646H111.176V21.1764H116.47V10.5882H121.764V0H142.941V31.7646H132.353V42.3528H121.764V52.941H111.176V63.5292H100.588Z" fill="#E54127"/>
<path id="rect44" d="M105.883 68.8232H95.2943V84.7055H105.883V68.8232Z" fill="#E54127"/>
<g id="path53">
</g>
<g id="path54">
</g>
<g id="path60">
</g>
</g>
</svg>
