<svg xmlns="http://www.w3.org/2000/svg" viewBox="0 0 179.11838 62.08917"><defs><style>.cls-1{fill:#0072ce;}</style></defs><title>Tallinna_Haridusamet_logo_RGB</title><g id="Tekstid._Tallinna_sinine" data-name="Tekstid. Tallinna sinine"><path class="cls-1" d="M70.84852,17.352H66.93861V28.38932H64.31947V17.352H60.4098V15.10709H70.84852Z"/><path class="cls-1" d="M79.0597,21.93521v6.4541H76.871v-.99146a3.59842,3.59842,0,0,1-3.08667,1.30957c-1.81445,0-3.42334-.78589-3.42334-2.73145,0-2.20728,1.96411-2.97437,4.13428-3.36719l2.24487-.41162v-.22437c0-.93555-.69214-1.45923-1.7959-1.45923-1.30957,0-1.98291.59863-2.97437,1.55273l-1.53418-1.40308a5.48575,5.48575,0,0,1,4.47119-2.15137C77.65687,18.51187,79.0597,19.915,79.0597,21.93521Zm-2.31958,2.563v-.56128l-1.60889.33667c-1.44043.29932-2.39453.63623-2.39453,1.53418,0,.59863.54248.9541,1.45923.9541A2.25745,2.25745,0,0,0,76.74012,24.4982Z"/><path class="cls-1" d="M83.60438,28.38932H81.17249V15.10709h2.43188Z"/><path class="cls-1" d="M88.15589,28.38932H85.724V15.10709h2.43188Z"/><path class="cls-1" d="M92.68885,17.38932H90.257V15.10709h2.43188Zm0,11H90.257V18.83h2.43188Z"/><path class="cls-1" d="M103.34071,21.84171v6.54761h-2.43188V22.57144c0-1.25342-.61743-1.96436-1.77734-1.96436a1.89236,1.89236,0,0,0-1.92676,2.02051v5.76172H94.77284V18.83h2.26343v1.085a3.34781,3.34781,0,0,1,2.88086-1.40308A3.13014,3.13014,0,0,1,103.34071,21.84171Z"/><path class="cls-1" d="M114.00452,21.84171v6.54761h-2.43188V22.57144c0-1.25342-.61743-1.96436-1.77734-1.96436a1.89236,1.89236,0,0,0-1.92676,2.02051v5.76172h-2.43188V18.83h2.26343v1.085a3.348,3.348,0,0,1,2.8811-1.40308A3.13006,3.13006,0,0,1,114.00452,21.84171Z"/><path class="cls-1" d="M124.35755,21.93521v6.4541h-2.18872v-.99146a3.59842,3.59842,0,0,1-3.08667,1.30957c-1.81445,0-3.42334-.78589-3.42334-2.73145,0-2.20728,1.96411-2.97437,4.13428-3.36719l2.24487-.41162v-.22437c0-.93555-.69214-1.45923-1.7959-1.45923-1.30957,0-1.98291.59863-2.97437,1.55273l-1.53418-1.40308a5.48575,5.48575,0,0,1,4.47119-2.15137C122.95472,18.51187,124.35755,19.915,124.35755,21.93521Zm-2.31958,2.563v-.56128l-1.60889.33667c-1.44043.29932-2.39453.63623-2.39453,1.53418,0,.59863.54248.9541,1.45923.9541A2.25745,2.25745,0,0,0,122.038,24.4982Z"/><path class="cls-1" d="M72.00819,46.99185H70.26844V40.81852H63.1598v6.17334H61.43861V33.70963H63.1598v5.66846h7.10864V33.70963h1.73975Z"/><path class="cls-1" d="M82.09779,40.59391v6.39795h-1.459V45.85074a3.57717,3.57717,0,0,1-3.12427,1.44043c-1.7959,0-3.29248-.74829-3.29248-2.58154,0-2.15137,1.98291-2.78735,4.28394-3.199l2.05786-.37427v-.46753c0-1.15991-.87915-1.8147-2.15137-1.8147A3.93392,3.93392,0,0,0,75.382,40.40689l-1.02881-.91675A4.97008,4.97008,0,0,1,78.35633,37.526C80.78822,37.526,82.09779,38.798,82.09779,40.59391Zm-1.53394,2.95581V42.33365l-1.68359.33691c-1.7959.374-3.08667.71069-3.08667,1.98291,0,.8418.71069,1.30957,1.8894,1.30957C79.27308,45.963,80.56385,45.0651,80.56385,43.54972Z"/><path class="cls-1" d="M89.69593,37.95621l-.29932,1.34692a4.36567,4.36567,0,0,0-1.19727-.187c-1.23486,0-2.15137,1.06616-2.15137,2.937v4.93872H84.43909v-9.2041h1.51514v1.38452a2.44484,2.44484,0,0,1,2.28247-1.49658A4.30872,4.30872,0,0,1,89.69593,37.95621Z"/><path class="cls-1" d="M92.66883,35.9733H91.05994V34.04654h1.60889Zm0,11.01855H91.05994v-9.2041h1.60889Z"/><path class="cls-1" d="M103.27406,33.70963V46.99185h-1.51538V45.57a3.45447,3.45447,0,0,1-3.14282,1.665c-2.35718,0-4.05957-1.92676-4.05957-4.84521,0-2.91821,1.73975-4.84521,4.09692-4.84521a3.41786,3.41786,0,0,1,3.012,1.478v-5.313Zm-1.55273,8.68018c0-2.18872-1.19727-3.46069-2.8623-3.46069-1.59009,0-2.65649,1.38428-2.65649,3.46069,0,2.07666,1.02905,3.47949,2.65649,3.47949C100.52406,45.8693,101.72132,44.57852,101.72132,42.3898Z"/><path class="cls-1" d="M113.17274,37.78775v9.2041h-1.49658V45.85074a3.11776,3.11776,0,0,1-2.78735,1.40308c-2.33838,0-3.27393-1.34692-3.27393-3.012v-6.4541h1.60889V43.849a1.77375,1.77375,0,0,0,1.92676,2.02026,2.273,2.273,0,0,0,2.41333-2.46924v-5.6123Z"/><path class="cls-1" d="M122.5099,38.873l-.87915,1.085a4.21327,4.21327,0,0,0-2.89966-1.12231c-1.25342,0-2.02051.57983-2.02051,1.36548,0,.80444.78589.99146,2.46948,1.36572,2.39453.54248,3.47949,1.19727,3.47949,2.82471,0,1.70239-1.45923,2.8623-3.6853,2.8623a5.77834,5.77834,0,0,1-4.24658-1.72119l.9541-1.04761a4.67225,4.67225,0,0,0,3.31128,1.44043c1.19727,0,2.09521-.54248,2.09521-1.459,0-1.01025-1.10376-1.291-2.58179-1.60889-2.45068-.52393-3.34863-1.06641-3.34863-2.60034,0-1.60889,1.44067-2.7312,3.57324-2.7312A5.44012,5.44012,0,0,1,122.5099,38.873Z"/><path class="cls-1" d="M131.92762,40.59391v6.39795h-1.45923V45.85074a3.57642,3.57642,0,0,1-3.124,1.44043c-1.7959,0-3.29248-.74829-3.29248-2.58154,0-2.15137,1.98291-2.78735,4.28394-3.199l2.05786-.37427v-.46753c0-1.15991-.87915-1.8147-2.15137-1.8147a3.93392,3.93392,0,0,0-3.03052,1.55273l-1.02905-.91675a4.97086,4.97086,0,0,1,4.00342-1.96411C130.61829,37.526,131.92762,38.798,131.92762,40.59391Zm-1.53394,2.95581V42.33365l-1.68359.33691c-1.7959.374-3.08667.71069-3.08667,1.98291,0,.8418.71069,1.30957,1.8894,1.30957C129.10291,45.963,130.39368,45.0651,130.39368,43.54972Z"/><path class="cls-1" d="M146.97083,40.57535v6.4165h-1.60889V41.02433c0-1.32837-.57983-2.13281-1.83325-2.13281a2.11187,2.11187,0,0,0-2.11377,2.31982v5.78052H139.806V41.02433c0-1.32837-.57983-2.13281-1.83325-2.13281a2.09967,2.09967,0,0,0-2.09521,2.31982v5.78052h-1.60889v-9.2041h1.51514v1.10376a2.8759,2.8759,0,0,1,2.63794-1.36548,2.78555,2.78555,0,0,1,2.65625,1.49658,3.15668,3.15668,0,0,1,2.825-1.49658A2.82418,2.82418,0,0,1,146.97083,40.57535Z"/><path class="cls-1" d="M157.38807,45.34561a5.03067,5.03067,0,0,1-4.00317,1.9082c-2.80615,0-4.5647-1.927-4.5647-4.80786s1.70239-4.91992,4.39624-4.91992c2.65649,0,4.15308,1.72095,4.15308,4.43359,0,.187-.0188.54248-.03735.71094h-6.90308c.09351,1.70215.97266,3.23633,2.97437,3.23633,1.17871,0,1.87085-.43042,3.03076-1.53418Zm-6.92163-3.87231h5.313a2.48506,2.48506,0,0,0-2.58179-2.65649A2.69789,2.69789,0,0,0,150.46644,41.4733Z"/><path class="cls-1" d="M164.18714,46.8422a5.62818,5.62818,0,0,1-1.8894.31812c-1.75854,0-2.37573-.8418-2.37573-2.301V39.00382h-1.72119V37.78775H159.922V34.70108h1.60889v3.08667h2.488v1.21606h-2.488V44.672c0,.82324.31787,1.12256,1.085,1.12256A4.94635,4.94635,0,0,0,163.944,45.57Z"/></g><g id="Logod._Tallinna_sinine" data-name="Logod. Tallinna sinine"><g id="Tallinna_logo-12" data-name="Tallinna logo"><path class="cls-1" d="M37.64714,26.46714c-3.58157-.97654-5.37235-2.19721-9.483-2.9296-4.19207-.7731-8.09923-.52895-13.06459,0v4.964c5.65725-.85446,13.79718-2.03444,20.02423-.89516,5.08745.93586,5.53514,2.80754,10.17491,3.82476V27.56574A37.67771,37.67771,0,0,1,37.64714,26.46714Z"/><path class="cls-1" d="M45.29867,33.87254c-3.54088-2.44136-6.83754-2.56342-10.21562-2.52271-6.79684.12206-11.925.97652-19.98352,2.31927v3.97063a11.61636,11.61636,0,0,0,.05933,1.26762c5.87587-1.05217,10.89612-1.7808,13.046-2.1052,6.14565-.97654,12.49479-1.95308,17.09386-1.18Z"/><path class="cls-1" d="M16.53779,43.14759a12.11175,12.11175,0,0,0,.97348,1.45c3.35538,4.24665,12.37285,7.60206,12.68781,7.70707h0c.3146-.10486,9.33237-3.46032,12.68783-7.70707a11.63371,11.63371,0,0,0,1.65568-2.86747,11.90353,11.90353,0,0,0,.62626-2.28394c.03395-.216.059-.4192.07752-.608C44.36517,38.95452,17.28017,43.03787,16.53779,43.14759Z"/><path class="cls-1" d="M27.79783,18.08522c-3.82577-.40689-6.634-1.34275-12.69829-2.23791v3.33652a34.23059,34.23059,0,0,1,10.8261,1.302c1.18029.32553,3.50018,1.01725,4.39557,1.26137,4.72116,1.302,11.111,1.302,14.97747,1.74962V19.59071C39.80422,18.61417,31.94919,18.53279,27.79783,18.08522Z"/><path class="cls-1" d="M30.19939,9.78466h-.00028A60.62324,60.62324,0,0,0,15.09954,11.5343v1.54617l30.19914,2.6041V11.5343A60.62333,60.62333,0,0,0,30.19939,9.78466Z"/></g></g></svg>