<svg width="296" height="80" viewBox="0 0 296 80" fill="none" xmlns="http://www.w3.org/2000/svg">
<path d="M0.123421 42.6798C0.260552 41.4132 -0.0137098 39.9333 0.260552 38.4001C0.671945 35.9202 2.11182 33.987 4.38819 32.9204C4.93672 32.6537 5.21098 32.3871 5.34811 31.6538C6.30803 26.3075 8.58439 21.3611 11.8892 16.9347C12.3006 16.4014 12.5749 16.1348 12.0264 15.4015C11.4779 14.6015 11.8892 13.7349 12.4378 13.0549C17.1139 7.97525 22.6129 4.22882 29.154 2.14894C44.8418 -2.66409 58.5961 0.615706 70.4991 11.9083C71.5961 12.9749 73.0497 13.9749 71.5961 15.7881C71.3218 16.0548 71.7332 16.3214 72.0075 16.5881C75.3809 21.1344 77.6436 26.2141 78.6858 31.7071C78.8229 32.2404 79.2343 32.5071 79.6457 32.7737C82.4706 34.1736 83.9104 36.5202 83.9104 39.6666C83.9104 42.8131 84.1847 45.1463 83.7733 47.8928C83.0877 51.9059 78.96 54.6524 74.9695 53.7724C73.8725 53.5058 73.3925 52.7058 73.3925 51.5592C73.3925 47.0129 73.5296 42.4665 73.3925 37.9201C72.9811 25.6808 67.4822 16.4547 56.5391 10.5618C38.5201 0.935687 15.1255 11.8283 11.2036 31.7605C10.5179 35.1736 10.6551 38.7867 10.6551 42.1998C10.6551 45.6129 10.6551 48.6928 10.5179 51.9592C10.5179 53.0258 9.83228 53.7591 8.52954 53.7591C3.37342 54.0258 0 50.8793 0 45.7996C0.137131 44.9996 0.137131 43.9997 0.137131 42.6531" fill="#1C80BE"/>
<path d="M35.8243 58.7355C37.6756 58.0689 39.0606 56.8023 39.472 54.7224C39.8834 52.6425 37.4836 49.7761 34.2473 46.7629C30.8739 43.6164 26.472 40.27 24.0722 39.07C20.5616 37.0035 17.2568 38.8034 16.5711 42.8165C15.7483 47.2295 16.5711 51.376 18.9846 55.0557C20.6988 57.6689 23.1123 58.8022 26.0743 59.0688C27.7199 59.0022 34.3982 59.3355 35.838 58.7355M50.9499 60.0021C53.0754 60.2687 55.0775 60.6687 57.203 60.802C60.0279 60.9354 62.1535 60.1354 63.7442 58.4555C65.7326 56.389 66.7062 53.7758 66.5691 51.0293C66.4319 48.1495 64.0184 46.4829 60.7959 47.0162C57.8338 47.4162 55.2969 48.6828 52.6091 49.6294C50.1956 50.5627 48.0701 51.6959 46.356 53.1758C43.9425 55.389 45.2589 58.3889 49.0437 59.5355C49.5237 59.7354 50.2093 59.8688 50.9636 60.0021M73.4531 57.5356C73.0417 57.1356 72.356 57.4023 72.0132 57.9356C70.7104 61.9486 64.6492 75.3878 44.011 76.8011C19.6566 78.4676 57.011 83.5606 67.6798 75.8678C71.3275 73.1213 75.4552 70.3881 75.318 62.4953C75.318 60.962 74.5638 58.3489 73.4668 57.5489" fill="#1C80BE"/>
<path fill-rule="evenodd" clip-rule="evenodd" d="M108.875 23.9691H113V29.6667H111.011C110.135 29.7066 109.565 29.8663 109.313 30.1725C109.061 30.4654 108.915 31.1177 108.889 32.1161V63C107.231 63 105.467 62.7204 104.393 61.5224C103.318 60.3243 103 57.9414 103 56.6368V13H108.889V23.9691H108.875Z" fill="white"/>
<path d="M123.128 45.7301V54.6239C123.128 55.8186 123.311 56.6416 123.622 56.9602C123.933 57.3319 124.596 57.531 125.754 57.531C126.912 57.531 127.59 57.3451 127.886 56.9602C128.197 56.6416 128.38 55.8319 128.38 54.6239V49.5133H134V54.9956C134 56.7611 133.873 58.1416 133.689 59.2168C133.449 60.292 133.012 61.1018 132.404 61.6726C131.797 62.2434 130.936 62.5487 129.905 62.7478C128.804 62.9336 127.406 63 125.684 63C123.961 63 122.45 62.9336 121.278 62.7478C120.12 62.562 119.259 62.177 118.652 61.6195C117.974 61.0487 117.551 60.292 117.367 59.2301C117.127 58.1549 117 56.7743 117 55.0089V32.0044C117 30.2389 117.127 28.8584 117.367 27.7832C117.551 26.708 117.974 25.8982 118.652 25.3274C119.259 24.823 120.12 24.4513 121.278 24.2522C122.436 24.0531 123.904 24 125.684 24C127.463 24 128.804 24.0664 129.905 24.2522C130.95 24.4381 131.797 24.7566 132.404 25.3274C133.012 25.8982 133.449 26.6549 133.689 27.7168C133.873 28.792 134 30.2389 134 32.0044V45.7434H123.128V45.7301ZM123.128 40.5664H128.38V32.4956C128.38 31.3009 128.197 30.4779 127.886 30.1593C127.576 29.8407 126.841 29.6549 125.754 29.6549C124.667 29.6549 123.919 29.8407 123.622 30.1593C123.311 30.4779 123.128 31.2876 123.128 32.4956V40.5664Z" fill="white"/>
<path d="M146.323 63C144.613 63 143.2 62.9337 142.169 62.8143C141.067 62.6286 140.219 62.3102 139.597 61.8061C138.989 61.302 138.551 60.5459 138.367 59.6041C138.127 58.6622 138 57.3357 138 55.7041V46.5643C138 44.2959 138.424 42.6643 139.286 41.5898C140.077 40.5153 141.547 40.0112 143.568 40.0112H144.727C146.14 40.0112 147.115 40.0776 147.666 40.1306C148.217 40.25 148.641 40.3827 148.952 40.5684V32.7551C148.952 31.4286 148.768 30.5531 148.457 30.1153C148.146 29.6776 147.411 29.4918 146.38 29.4918C145.348 29.4918 144.486 29.6776 144.175 30.1153C143.865 30.5531 143.681 31.4418 143.681 32.7551V36.4694H138V31.999C138 30.2347 138.127 28.7888 138.367 27.7143C138.551 26.6398 138.975 25.8837 139.597 25.3265C140.204 24.7561 141.067 24.451 142.098 24.252C143.144 24.0663 144.543 24 146.253 24C147.963 24 149.489 24.0663 150.662 24.252C151.82 24.4378 152.682 24.8224 153.347 25.3265C153.954 25.8969 154.392 26.7061 154.633 27.7806C154.873 28.8551 155 30.2347 155 31.999V62.3633C154.265 62.549 153.163 62.7347 151.637 62.8673C150.111 62.9337 148.33 62.9867 146.309 62.9867H146.323V63ZM146.691 57.7071C147.85 57.7071 148.641 57.6408 148.952 57.5878V45.2378C148.641 45.052 148.344 44.9857 147.906 44.9194C147.482 44.8531 147.044 44.8531 146.62 44.8531C145.942 44.8531 145.391 44.9194 145.023 44.9724C144.599 45.0388 144.288 45.2245 144.105 45.4765C143.921 45.7286 143.794 46.0469 143.737 46.4847C143.681 46.9224 143.681 47.4929 143.681 48.1827V54.099C143.681 54.9214 143.681 55.5449 143.737 55.9827C143.794 56.4204 143.921 56.8051 144.105 57.0571C144.288 57.3092 144.599 57.4949 145.023 57.5612C145.447 57.6275 145.998 57.6806 146.677 57.6806V57.7071H146.691Z" fill="white"/>
<path d="M165.064 63H159V25.3048H164.651V27.8232C165.064 26.8821 165.779 26.1929 166.673 25.6892C167.567 25.2518 168.818 25 170.427 25C172.036 25 173.108 25.2518 174.002 25.6892C174.896 26.1266 175.556 26.9484 175.968 28.075C176.56 26.8821 177.343 26.0603 178.292 25.623C179.241 25.2518 180.437 25 181.922 25C183.407 25 183.999 25.1193 184.837 25.3711C185.607 25.6229 186.212 26.0603 186.68 26.6303C187.161 27.2532 187.519 28.075 187.697 29.016C187.876 30.0234 188 31.2163 188 32.661V63H181.936V33.3634C181.936 32.4224 181.757 31.7332 181.455 31.3488C181.097 30.9777 180.437 30.7789 179.557 30.7789C178.677 30.7789 177.948 30.9644 177.591 31.2825C177.178 31.6006 176.876 32.1043 176.573 32.661V63H170.509V33.3634C170.509 32.4224 170.33 31.7332 170.028 31.3488C169.67 30.9777 169.01 30.7789 168.13 30.7789C167.25 30.7789 166.467 30.9644 166.054 31.2825C165.642 31.6536 165.339 32.1573 165.105 32.7272V63H165.064Z" fill="white"/>
<path d="M204.091 35.5354V32.6947C204.091 31.6195 203.968 30.8628 203.68 30.4912C203.378 30.1726 202.61 29.9867 201.486 29.9867C200.362 29.9867 199.649 30.1726 199.348 30.4912C199.046 30.8628 198.936 31.6195 198.936 32.6947V35.7212C198.936 36.292 198.991 36.7965 199.06 37.1018C199.115 37.4204 199.293 37.7257 199.471 37.9779C199.649 38.2965 199.951 38.5487 200.362 38.7345C200.773 38.9867 201.308 39.2389 201.966 39.5575C202.09 39.6239 202.323 39.7434 202.734 39.9292L205.339 41.1903C205.75 41.3761 206.106 41.5619 206.408 41.7611C207.176 42.1991 207.834 42.6372 208.3 43.0885C208.78 43.5265 209.136 43.9646 209.369 44.4159C209.602 44.9204 209.781 45.4248 209.849 45.9956C209.904 46.5664 209.973 47.2566 209.973 47.9469V54.9425C209.973 56.708 209.849 58.0885 209.671 59.1637C209.438 60.2389 209.013 61.0487 208.423 61.6195C207.765 62.1903 206.943 62.562 205.873 62.7478C204.749 62.9336 203.323 63 201.541 63C199.759 63 198.402 62.9336 197.264 62.7478C196.14 62.562 195.303 62.177 194.659 61.6195C194.001 61.0487 193.59 60.2389 193.356 59.1637C193.123 58.0885 193 56.708 193 54.9425V49.1416H198.936V54.2522C198.936 55.3805 199.115 56.1372 199.416 56.4558C199.718 56.8274 200.431 57.0266 201.555 57.0266C202.679 57.0266 203.392 56.8407 203.694 56.4558C203.995 56.0841 204.105 55.3274 204.105 54.2522V49.646C204.105 49.1416 204.105 48.7035 204.05 48.385C203.995 48.0664 203.872 47.7611 203.694 47.5089C203.515 47.2566 203.214 47.0044 202.926 46.7522C202.624 46.5664 202.158 46.3142 201.623 46.0619C201.144 45.8097 200.732 45.6239 200.321 45.4381C199.91 45.2522 199.553 45.1195 199.197 44.9336C198.785 44.8142 198.429 44.615 198.004 44.4292C197.593 44.2434 197.168 44.0575 196.702 43.7389C195.934 43.3009 195.331 42.9159 194.865 42.4779C194.385 42.0398 194.028 41.6018 193.74 41.031C193.439 40.5265 193.26 39.9027 193.206 39.1991C193.082 38.5089 193.027 37.6858 193.027 36.677V32.0708C193.027 30.3053 193.151 28.8584 193.384 27.7832C193.617 26.708 194.042 25.8982 194.686 25.3274C195.276 24.823 196.112 24.4513 197.236 24.2522C198.36 24.0664 199.786 24 201.569 24C203.351 24 204.708 24.0664 205.846 24.2522C206.97 24.4381 207.806 24.823 208.451 25.3274C209.04 25.8982 209.465 26.708 209.698 27.7832C209.877 28.8584 210 30.3053 210 32.0708V35.5354H204.091Z" fill="white"/>
<path d="M231 55.247C231 56.6736 230.945 57.917 230.767 58.8463C230.588 59.841 230.355 60.6525 229.929 61.2022C229.517 61.765 228.913 62.1969 228.199 62.4456C227.485 62.6942 226.592 62.812 225.466 62.812C224.34 62.812 223.09 62.6288 222.198 62.2492C221.305 61.8828 220.591 61.1891 220.056 60.2598V72H214V25.301H219.644V28.0365C220.179 26.8585 220.948 26.0471 221.896 25.6151C222.788 25.1832 223.914 25 225.288 25C226.661 25 227.361 25.1178 228.144 25.3665C228.913 25.6151 229.517 26.0471 229.929 26.6099C230.341 27.225 230.588 28.0365 230.767 28.9657C230.945 29.9605 231 31.1384 231 32.565V55.247ZM219.891 55.247C220.193 55.9276 220.605 56.425 221.017 56.7391C221.429 57.0532 222.033 57.171 222.802 57.171C223.571 57.171 224.354 56.9223 224.642 56.4904C224.944 56.1239 225.123 55.247 225.123 54.0691V33.8084C225.123 32.6305 224.944 31.7535 224.642 31.3216C224.34 30.8897 223.695 30.7065 222.802 30.7065C221.91 30.7065 221.429 30.8374 221.017 31.1384C220.605 31.4525 220.179 31.9499 219.891 32.6305V55.247Z" fill="white"/>
<path d="M241.128 45.7301V54.6239C241.128 55.8186 241.311 56.6416 241.622 56.9602C241.933 57.3319 242.596 57.531 243.754 57.531C244.912 57.531 245.59 57.3451 245.886 56.9602C246.197 56.6416 246.38 55.8319 246.38 54.6239V49.5133H252V54.9956C252 56.7611 251.873 58.1416 251.689 59.2168C251.449 60.292 251.012 61.1018 250.404 61.6726C249.797 62.2434 248.936 62.5487 247.905 62.7478C246.804 62.9336 245.406 63 243.684 63C241.961 63 240.45 62.9336 239.278 62.7478C238.12 62.562 237.259 62.177 236.652 61.6195C235.974 61.0487 235.551 60.292 235.367 59.2301C235.127 58.1549 235 56.7743 235 55.0089V32.0044C235 30.2389 235.127 28.8584 235.367 27.7832C235.551 26.708 235.974 25.8982 236.652 25.3274C237.259 24.823 238.12 24.4513 239.278 24.2522C240.436 24.0664 241.904 24 243.684 24C245.463 24 246.804 24.0664 247.905 24.2522C248.95 24.4381 249.797 24.7566 250.404 25.3274C251.012 25.8982 251.449 26.6549 251.689 27.7168C251.873 28.792 252 30.2389 252 32.0044V45.7434H241.128V45.7301ZM241.128 40.5664H246.38V32.4956C246.38 31.3009 246.197 30.4779 245.886 30.1593C245.576 29.8407 244.841 29.6549 243.754 29.6549C242.667 29.6549 241.919 29.8407 241.622 30.1593C241.311 30.4779 241.128 31.2876 241.128 32.4956V40.5664Z" fill="white"/>
<path d="M264.323 63C262.613 63 261.2 62.9337 260.169 62.8143C259.066 62.6286 258.219 62.3102 257.597 61.8061C256.989 61.302 256.551 60.5459 256.367 59.6041C256.127 58.6622 256 57.3357 256 55.7041V46.5643C256 44.2959 256.424 42.6643 257.286 41.5898C258.077 40.5153 259.547 40.0112 261.568 40.0112H262.727C264.14 40.0112 265.115 40.0776 265.666 40.1306C266.217 40.25 266.641 40.3827 266.952 40.5684V32.7551C266.952 31.4286 266.768 30.5531 266.457 30.1153C266.146 29.6776 265.411 29.4918 264.38 29.4918C263.348 29.4918 262.486 29.6776 262.175 30.1153C261.865 30.5531 261.681 31.4418 261.681 32.7551V36.4694H256V31.999C256 30.2347 256.127 28.7888 256.367 27.7143C256.551 26.6398 256.975 25.8837 257.597 25.3265C258.204 24.7561 259.066 24.451 260.098 24.252C261.144 24.0663 262.543 24 264.253 24C265.963 24 267.489 24.0663 268.662 24.252C269.82 24.4378 270.682 24.8224 271.347 25.3265C271.954 25.8969 272.392 26.7061 272.633 27.7806C272.873 28.8551 273 30.2347 273 31.999V62.3633C272.265 62.549 271.163 62.7347 269.637 62.8673C268.111 62.9337 266.33 62.9867 264.309 62.9867L264.323 63ZM264.691 57.7071C265.85 57.7071 266.655 57.6408 266.952 57.5878V45.2378C266.641 45.052 266.344 44.9857 265.906 44.9194C265.482 44.8531 265.058 44.8531 264.62 44.8531C263.942 44.8531 263.391 44.9194 263.037 44.9724C262.613 45.0388 262.303 45.2245 262.119 45.4765C261.935 45.7286 261.808 46.0469 261.751 46.4847C261.695 46.9224 261.695 47.4929 261.695 48.1827V54.099C261.695 54.9214 261.695 55.5449 261.751 55.9827C261.808 56.4204 261.935 56.8051 262.119 57.0571C262.303 57.3092 262.613 57.4949 263.037 57.5612C263.461 57.6275 264.012 57.6806 264.691 57.6806V57.7071Z" fill="white"/>
<path d="M289.091 63L283.375 43.5119H283.137V63H277V13H283.137V39.073H283.375L288.473 25.0901H295.214L288.585 40.9126L296 63H289.077H289.091Z" fill="white"/>
</svg>
